SplineFontDB: 3.2
FontName: MFEKSansUltraCondensed-Black
FullName: MFEK Sans Ultra Condensed Black
FamilyName: MFEK Sans Ultra Condensed
Weight: Black
Copyright: 
Version: 0.1
ItalicAngle: 0
UnderlinePosition: -200
UnderlineWidth: 100
Ascent: 1600
Descent: 400
InvalidEm: 0
LayerCount: 2
Layer: 0 0 "Back" 1
Layer: 1 0 "Fore" 0
XUID: [1021 31 -699969567 16487490]
FSType: 0
OS2Version: 0
OS2_WeightWidthSlopeOnly: 0
OS2_UseTypoMetrics: 1
CreationTime: 1460762150
ModificationTime: 1676542229
PfmFamily: 33
TTFWeight: 900
TTFWidth: 1
LineGap: 0
VLineGap: 0
OS2TypoAscent: 2500
OS2TypoAOffset: 0
OS2TypoDescent: -850
OS2TypoDOffset: 0
OS2TypoLinegap: 0
OS2WinAscent: 2500
OS2WinAOffset: 0
OS2WinDescent: 850
OS2WinDOffset: 0
HheadAscent: 2500
HheadAOffset: 0
HheadDescent: -850
HheadDOffset: 0
OS2CapHeight: 1500
OS2XHeight: 1040
OS2FamilyClass: 2053
OS2Vendor: 'it* '
OS2UnicodeRanges: 00000001.00000000.00000000.00000000
Lookup: 258 0 0 "kerning yeah boi" { "say cheese" [300,0,4] } ['kern' ('DFLT' <'dflt' > 'grek' <'dflt' > 'latn' <'dflt' > ) ]
MarkAttachClasses: 1
DEI: 91125
KernClass2: 30 23 "say cheese"
 73 A Agrave Aacute Acircumflex Atilde Adieresis Aring Amacron Abreve Aogonek
 96 D O Ograve Oacute Ocircumflex Otilde Odieresis Oslash Dcaron Dcroat Omacron Obreve Ohungarumlaut
 81 E AE Egrave Eacute Ecircumflex Edieresis Emacron Ebreve Edotaccent Eogonek Ecaron
 1 F
 39 G Gcircumflex Gbreve Gdotaccent uni0122
 104 J U Ugrave Uacute Ucircumflex Udieresis IJ Jcircumflex Utilde Umacron Ubreve Uring Uhungarumlaut Uogonek
 11 K X uni0136
 23 L Lacute uni013B Lslash
 1 P
 1 Q
 23 R Racute uni0156 Rcaron
 36 S Sacute Scircumflex Scedilla Scaron
 21 T uni0162 Tcaron Tbar
 1 V
 53 W Wcircumflex Wgrave Wacute Wdieresis uni1E86 uni1E88
 30 Y Ycircumflex Ydieresis Ygrave
 26 Z Zacute Zdotaccent Zcaron
 73 a agrave aacute acircumflex atilde adieresis aring amacron abreve aogonek

StartChar: ampersand
Encoding: 38 38 0
Width: 851
VWidth: 1920
Flags: HMW
LayerCount: 2
Back
SplineSet
510 22 m 6
 193 1034 l 6
 164.143554688 1132.32617188 153 1201 153 1257 c 4
 153 1342 213 1417 387 1417 c 4
 575 1417 634 1336 634 1221 c 4
 634 1077 458.618164062 942.092773438 348 885 c 4
 286 853 255 763 255 691 c 4
 255 641 261.522783653 616.678358069 284 546 c 6
 374 263 l 6
 385.775360645 225.973032639 397 215 418 215 c 4
 539 215 616 540 655 637 c 4
 656 639 658 641 662 641 c 6
 847 641 l 6
 851 641 852 639 850 635 c 4
 752 430 534 -1 330 -1 c 4
 202 -1 168.6855578 75.3294548175 116 227 c 6
 50 417 l 6
 19.4674541284 504.896722964 10 583 10 651 c 4
 10 775 119.52734375 907.689453125 313 988 c 4
 426.284179688 1035.02441406 457 1180 457 1230 c 4
 457 1262 439 1275 421 1275 c 4
 403 1275 389 1258 389 1231 c 4
 389 1207 403.649414062 1155.45996094 418 1105 c 6
 765 22 l 6
 767 18 767 17 763 17 c 6
 518 17 l 6
 514 17 512 18 510 22 c 6
EndSplineSet
Fore
SplineSet
515 5 m 2
 193 1034 l 2
 164.143554688 1132.32617188 153 1201 153 1257 c 0
 153 1342 213 1417 387 1417 c 0
 575 1417 634 1336 634 1221 c 0
 634 1077 458.618164062 942.092773438 348 885 c 0
 286 853 255 763 255 691 c 0
 255 641 261.522783653 616.678358069 284 546 c 2
 379 246 l 2
 390.729888384 208.958247207 402 198 423 198 c 0
 544 198 616 540 655 637 c 0
 656 639 658 641 662 641 c 2
 847 641 l 2
 851 641 852 639 850 635 c 0
 752 430 539 -17 335 -17 c 0
 207 -17 173.092191191 58.1255834293 121 210 c 2
 50 417 l 2
 19.4674541284 504.896722964 10 583 10 651 c 0
 10 775 119.52734375 907.689453125 313 988 c 0
 426.284179688 1035.02441406 457 1180 457 1230 c 0
 457 1262 439 1275 421 1275 c 0
 403 1275 389 1258 389 1231 c 0
 389 1207 403.649414062 1155.45996094 418 1105 c 2
 770 5 l 2
 772 1 772 0 768 0 c 2
 523 0 l 2
 519 0 517 1 515 5 c 2
EndSplineSet
EndChar

StartChar: period
Encoding: 46 46 1
Width: 400
VWidth: 1920
Flags: HMW
LayerCount: 2
Fore
SplineSet
315 0 m 6
 85 0 l 6
 78 0 75 3 75 10 c 6
 75 350 l 6
 75 357 78 360 85 360 c 6
 315 360 l 6
 322 360 325 357 325 350 c 6
 325 10 l 6
 325 3 322 0 315 0 c 6
EndSplineSet
EndChar

StartChar: zero
Encoding: 48 48 2
Width: 615
VWidth: 1920
Flags: HMW
LayerCount: 2
Fore
SplineSet
25 244 m 262
 25 1155 l 262
 25 1318 107 1417 308 1417 c 260
 509 1417 590 1318 590 1155 c 262
 590 244 l 262
 590 81 509 -18 308 -18 c 260
 107 -18 25 81 25 244 c 262
270 254 m 262
 270 180 276 152 308 152 c 260
 340 152 345 180 345 254 c 262
 345 1145 l 262
 345 1219 340 1247 308 1247 c 260
 276 1247 270 1219 270 1145 c 262
 270 254 l 262
EndSplineSet
EndChar

StartChar: one
Encoding: 49 49 3
Width: 320
VWidth: 1920
Flags: HMW
LayerCount: 2
Fore
SplineSet
43 1362 m 4
 114 1363 139 1384 144 1420 c 4
 145 1424 147 1425 150 1425 c 6
 278 1425 l 6
 282 1425 282 1424 282 1420 c 6
 282 5 l 2
 282 1 282 0 278 0 c 2
 42 0 l 2
 38 0 38 1 38 5 c 2
 38 1357 l 6
 38 1360 39 1362 43 1362 c 4
EndSplineSet
EndChar

StartChar: two
Encoding: 50 50 4
Width: 580
VWidth: 1920
Flags: HMW
LayerCount: 2
Back
SplineSet
40 130 m 262
 40 482 258 668 258 967 c 262
 258 1138 l 262
 258 1273 254 1341 200 1341 c 260
 150 1341 142 1270 142 1140 c 262
 142 817 l 6
 142 813 142 812 138 812 c 6
 58 812 l 6
 54 812 52 813 52 817 c 6
 52 1140 l 262
 52 1321 76 1417 200 1417 c 260
 328 1417 348 1340 348 1135 c 262
 348 1005 l 262
 348 647 138 470 138 160 c 262
 138 85 l 261
 360 85 l 6
 364 85 365 84 365 80 c 6
 365 5 l 6
 365 1 364 0 360 0 c 6
 45 0 l 6
 41 0 40 1 40 5 c 6
 40 130 l 262
EndSplineSet
Fore
SplineSet
15 30 m 262
 15 502 308 588 308 937 c 262
 308 1159 l 262
 308 1219 305 1243 287 1243 c 260
 270 1243 268 1217 268 1161 c 262
 268 817 l 6
 268 813 266 812 262 812 c 6
 32 812 l 6
 28 812 28 813 28 817 c 6
 28 1131 l 262
 28 1298 102 1417 300 1417 c 260
 464 1417 548 1311 548 1151 c 262
 548 999 l 262
 548 591 260 416 260 190 c 262
 260 185 l 261
 560 185 l 6
 564 185 565 184 565 180 c 6
 565 5 l 6
 565 1 564 0 560 0 c 6
 20 0 l 6
 16 0 15 1 15 5 c 6
 15 30 l 262
EndSplineSet
EndChar

StartChar: three
Encoding: 51 51 5
Width: 576
VWidth: 1920
Flags: HMW
LayerCount: 2
Fore
SplineSet
26 457 m 6
 261 457 l 6
 265 457 266 455 266 451 c 6
 266 264 l 6
 266 204 266 158 290 158 c 4
 314 158 314 196 314 261 c 6
 314 544 l 6
 314 589 309 620 261 620 c 6
 221 620 l 6
 217 620 216 621 216 625 c 6
 216 790 l 6
 216 794 217 795 221 795 c 6
 251 795 l 6
 294 795 306 816 306 856 c 6
 306 1154 l 6
 306 1214 303 1241 281 1241 c 4
 260 1241 258 1206 258 1155 c 6
 258 957 l 6
 258 953 258 952 254 952 c 6
 24 952 l 6
 20 952 18 953 18 957 c 6
 18 1185 l 6
 18 1302 82 1417 286 1417 c 4
 490 1417 554 1297 554 1182 c 6
 554 919 l 6
 554 754 459 700 281 700 c 5
 291 725 l 5
 469 725 558 676 558 501 c 6
 558 264 l 6
 558 94 489 -18 261 -18 c 4
 65 -18 21 85 21 234 c 6
 21 451 l 6
 21 455 22 457 26 457 c 6
EndSplineSet
EndChar

StartChar: four
Encoding: 52 52 6
Width: 575
VWidth: 1920
Flags: HMW
LayerCount: 2
Back
SplineSet
430 445 m 6
 430 380 l 6
 430 376 429 375 425 375 c 6
 335 375 l 261
 335 5 l 6
 335 1 334 0 330 0 c 6
 245 0 l 6
 241 0 240 1 240 5 c 6
 240 375 l 261
 30 375 l 6
 26 375 25 376 25 380 c 6
 25 450 l 6
 25 454 26.9377593361 461.01659751 28 465 c 6
 276 1395 l 6
 277 1398 281 1400 285 1400 c 6
 330 1400 l 6
 334 1400 335 1399 335 1395 c 6
 335 450 l 261
 425 450 l 6
 429 450 430 449 430 445 c 6
245 450 m 261
 245 1060 l 261
 92 450 l 261
 245 450 l 261
EndSplineSet
Fore
SplineSet
575 495 m 6
 575 330 l 6
 575 326 574 325 570 325 c 6
 480 325 l 261
 480 5 l 6
 480 1 479 0 475 0 c 6
 240 0 l 6
 236 0 235 1 235 5 c 6
 235 325 l 261
 15 325 l 6
 11 325 10 326 10 330 c 6
 10 545 l 6
 10 549 12.4388140609 560.500748856 14 565 c 6
 222 1395 l 6
 224 1398 226 1400 230 1400 c 6
 475 1400 l 6
 479 1400 480 1399 480 1395 c 6
 480 500 l 261
 570 500 l 6
 574 500 575 499 575 495 c 6
240 500 m 261
 240 1000 l 261
 142 500 l 261
 240 500 l 261
EndSplineSet
EndChar

StartChar: five
Encoding: 53 53 7
Width: 600
VWidth: 1920
Flags: HMW
LayerCount: 2
Back
SplineSet
60 364 m 6
 135 364 l 6
 138 364 140 363 140 360 c 4
 140 121 148 52 192 52 c 4
 236 52 255 163 255 319 c 6
 255 612 l 6
 255 832 252 862 220 862 c 4
 195 862 179 819 150 659 c 4
 149.202330518 654.599064928 145 653 142 653 c 6
 70 653 l 6
 66 653 65 655 66 659 c 6
 100 1395 l 6
 101 1398 102 1400 106 1400 c 6
 356 1400 l 6
 360 1400 360 1399 360 1395 c 6
 360 1362 l 6
 360 1327 345 1325 260 1325 c 6
 173 1325 l 5
 141 690 l 5
 133 690 l 5
 140 802 170 938 250 938 c 4
 320 938 350 854 350 596 c 6
 350 294 l 6
 350 76 307 -17 202 -17 c 4
 95 -17 59 51 55 359 c 4
 54.9480563283 362.999662718 56 364 60 364 c 6
EndSplineSet
Fore
SplineSet
35 364 m 6
 260 364 l 6
 263 364 265 362.162122344 265 359 c 4
 265 180 274 152 298 152 c 4
 327 152 330 193 330 379 c 6
 330 631 l 6
 330 721 328 753 306 753 c 4
 280 753 279 713 278 558 c 4
 277.965261085 552.615468197 273 553 270 553 c 6
 45 553 l 6
 41 553 39 553 40 557 c 6
 95 1395 l 6
 96 1398 96 1400 100 1400 c 6
 540 1400 l 6
 544 1400 546 1399 546 1395 c 6
 546 1322 l 6
 546 1262 520 1225 410 1225 c 6
 283 1225 l 5
 240 694 l 5
 229 694 l 5
 236 866 290 929 400 929 c 4
 520 929 575 865 575 651 c 6
 575 379 l 6
 575 85 483 -18 278 -18 c 4
 111 -18 38 55 30 359 c 4
 29.8947783835 362.998421429 31 364 35 364 c 6
EndSplineSet
EndChar

StartChar: six
Encoding: 54 54 8
Width: 591
VWidth: 1920
Flags: HMW
LayerCount: 2
Back
SplineSet
399 719 m 256
 349 719 319 687 319 595 c 258
 319 560 l 257
 289 610 l 257
 289 742 326 794 424 794 c 256
 542 794 574 714 574 577 c 258
 574 204 l 258
 574 65 540 -18 404 -18 c 256
 236 -18 226 84 226 264 c 258
 226 1121 l 258
 226 1321 251 1417 389 1417 c 256
 527 1417 546 1322 546 1190 c 258
 546 955 l 2
 546 951 545 950 541 950 c 2
 466 950 l 2
 462 950 461 951 461 955 c 2
 461 1190 l 258
 461 1271 459 1341 394 1341 c 256
 330 1341 319 1278 319 1118 c 258
 319 211 l 258
 319 116 324 58 398 58 c 256
 478 58 478 118 478 208 c 258
 478 577 l 258
 478 669 469 719 399 719 c 256
EndSplineSet
Fore
SplineSet
297 669 m 260
 272 669 267 642 267 540 c 262
 267 510 l 261
 222 550 l 261
 222 682 269 794 387 794 c 260
 531 794 571 694 571 517 c 262
 571 266 l 262
 571 67 497 -16 301 -16 c 260
 83 -16 25 86 25 326 c 262
 25 1121 l 262
 25 1311 98 1417 292 1417 c 260
 490 1417 554 1317 554 1145 c 262
 554 905 l 6
 554 901 553 900 549 900 c 6
 324 900 l 6
 320 900 319 901 319 905 c 6
 319 1125 l 262
 319 1191 319 1241 293 1241 c 260
 268 1241 267 1193 267 1118 c 262
 267 293 l 262
 267 188 273 160 297 160 c 260
 327 160 327 190 327 290 c 262
 327 527 l 262
 327 629 322 669 297 669 c 260
EndSplineSet
EndChar

StartChar: seven
Encoding: 55 55 9
Width: 521
VWidth: 1920
Flags: HMW
LayerCount: 2
Back
SplineSet
1261 1390 m 6
 839 10 l 6
 835.9375 2.611328125 832.49609375 0 825 0 c 6
 235 0 l 6
 228 0 225.935652204 3.2209572149 229 10 c 6
 755 950 l 261
 85 950 l 6
 78 950 75 953 75 960 c 6
 75 1390 l 6
 75 1397 78 1400 85 1400 c 6
 1255 1400 l 6
 1262.37207031 1400 1264.21484375 1396.23046875 1261 1390 c 6
EndSplineSet
Fore
SplineSet
529.685827628 1395 m 14
 339.685827628 5 l 22
 339.041131077 0.283535758593 336.718842161 0 331.685827628 0 c 14
 77.685827628 0 l 22
 72.7732319985 0 72.872985911 1.1023573404 73.685827628 5 c 14
 317.685827628 1175 l 29
 41.685827628 1175 l 22
 37.8999364758 1175 37.685827628 1175.54710885 37.685827628 1180 c 14
 37.685827628 1395 l 22
 37.685827628 1399.45289115 37.8999364758 1400 41.685827628 1400 c 14
 525.685546875 1400 l 22
 529.646484375 1400 530.202385528 1398.77902885 529.685827628 1395 c 14
EndSplineSet
EndChar

StartChar: eight
Encoding: 56 56 10
Width: 630
VWidth: 1920
Flags: HMW
LayerCount: 2
Back
SplineSet
222 55 m 260
 287 55 290 98 290 171 c 262
 290 554 l 262
 290 628 287 670 222 670 c 260
 157 670 154 628 154 554 c 262
 154 171 l 262
 154 98 157 55 222 55 c 260
222 745 m 260
 257 745 281 784 281 852 c 262
 281 1243 l 262
 281 1306 256 1344 222 1344 c 260
 188 1344 165 1306 165 1243 c 262
 165 852 l 262
 165 784 187 745 222 745 c 260
238 720 m 261
 378 720 386 652 386 536 c 262
 386 174 l 262
 386 50 376 -18 222 -18 c 260
 68 -18 60 50 60 174 c 262
 60 536 l 262
 60 652 67 720 207 720 c 261
 208 700 l 261
 95 703 69 759 69 869 c 262
 69 1241 l 262
 69 1352 88 1417 222 1417 c 260
 356 1417 375 1352 375 1241 c 262
 375 869 l 262
 375 759 350 703 237 700 c 261
 238 720 l 261
EndSplineSet
Fore
SplineSet
316 155 m 260
 346 155 354 178 354 216 c 262
 354 567 l 262
 354 606 346 629 316 629 c 260
 286 629 278 606 278 567 c 262
 278 216 l 262
 278 178 286 155 316 155 c 260
316 804 m 260
 341 804 348 823 348 851 c 262
 348 1203 l 262
 348 1226 340 1244 316 1244 c 260
 292 1244 282 1226 282 1203 c 262
 282 851 l 262
 282 823 291 804 316 804 c 260
331 729 m 261
 546 729 598 641 598 495 c 262
 598 224 l 262
 598 70 545 -18 316 -18 c 260
 112 -18 32 70 32 224 c 262
 32 495 l 262
 32 641 110 729 300 729 c 261
 301 709 l 261
 118 712 38 788 38 948 c 262
 38 1171 l 262
 38 1332 132 1417 316 1417 c 260
 525 1417 594 1332 594 1171 c 262
 594 948 l 262
 594 788 538 712 330 709 c 261
 331 729 l 261
EndSplineSet
EndChar

StartChar: nine
Encoding: 57 57 11
Width: 591
VWidth: 1920
Flags: HMW
LayerCount: 2
Fore
SplineSet
294 731 m 260
 319 731 324 758 324 860 c 262
 324 890 l 261
 369 850 l 261
 369 718 322 606 204 606 c 260
 60 606 20 706 20 883 c 262
 20 1134 l 262
 20 1333 94 1416 290 1416 c 260
 508 1416 566 1314 566 1074 c 262
 566 279 l 262
 566 89 493 -17 299 -17 c 260
 101 -17 27 83 27 255 c 262
 27 495 l 6
 27 499 28 500 32 500 c 6
 257 500 l 6
 261 500 262 499 262 495 c 6
 262 275 l 262
 262 209 262 159 293 159 c 260
 323 159 324 207 324 282 c 262
 324 1107 l 262
 324 1212 318 1240 294 1240 c 260
 264 1240 264 1210 264 1110 c 262
 264 873 l 262
 264 771 269 731 294 731 c 260
EndSplineSet
EndChar

StartChar: A
Encoding: 65 65 12
Width: 562
VWidth: 960
Flags: HMW
AnchorPoint: "ogonek" 424 0 basechar 0
AnchorPoint: "bottom" 251 0 basechar 0
AnchorPoint: "top" 286 1400 basechar 0
LayerCount: 2
Fore
SplineSet
144 520 m 5
 359 520 l 5
 359 395 l 5
 144 395 l 5
 144 520 l 5
270 1089 m 5
 190 5 l 6
 189 3 188 0 184 0 c 6
 -6 0 l 6
 -8 0 -12 0 -10 5 c 6
 140 1395 l 6
 142 1399 144 1400 146 1400 c 6
 436 1400 l 6
 439 1400 442 1399 443 1395 c 6
 577 5 l 6
 577 4 579 0 574 0 c 6
 324 0 l 6
 322 0 319 0 317 5 c 6
 270 1089 l 5
EndSplineSet
EndChar

StartChar: B
Encoding: 66 66 13
Width: 600
VWidth: 960
Flags: HMW
AnchorPoint: "top" 262 1400 basechar 0
AnchorPoint: "bottom" 278 0 basechar 0
LayerCount: 2
Fore
SplineSet
280 770 m 257
 305 770 l 258
 328 770 338 794 338 869 c 258
 338 1126 l 258
 338 1201 333 1225 305 1225 c 258
 280 1225 l 257
 280 770 l 257
335 725 m 257
 463 725 592 656 592 461 c 258
 592 294 l 258
 592 84 503 -1.93494194265e-14 345 0 c 262
 40 0 l 258
 36 0 35 1 35 5 c 258
 35 1395 l 258
 35 1399 36 1400 40 1400 c 258
 335 1400 l 258
 493 1400 568 1307 568 1112 c 258
 568 959 l 258
 568 764 453 700 325 700 c 257
 335 725 l 257
310 645 m 258
 280 645 l 257
 280 175 l 257
 310 175 l 258
 338 175 342 203 342 278 c 258
 342 541 l 258
 342 616 338 645 310 645 c 258
EndSplineSet
EndChar

StartChar: C
Encoding: 67 67 14
Width: 560
VWidth: 960
Flags: HMW
AnchorPoint: "top" 297 1400 basechar 0
AnchorPoint: "bottom" 288 0 basechar 0
LayerCount: 2
Fore
SplineSet
550 603 m 260
 549.4453125 526.143554688 549.606329967 366.677378693 547.736328125 294 c 4
 542.69921875 98.2333984375 454.616210938 -18 272 -18 c 260
 68 -18 25 109 25 349 c 262
 25 1042 l 262
 25 1272 68 1418 282 1418 c 260
 465.993164062 1418 533.122070312 1292.73339844 533.677734375 1074 c 4
 533.809570312 1022.16601562 534.536132812 926.009765625 535 866 c 260
 535.03125 862 534 862 530 862 c 262
 356 862 l 262
 352 862 350.015625 862 350 866 c 260
 349 1129 352 1218 312 1218 c 260
 277 1218 275 1161 275 1046 c 262
 275 314 l 262
 275 214 279 182 312 182 c 260
 349 182 355 262 355 603 c 260
 355 607 356 608 360 608 c 262
 545 608 l 262
 549 608 550.029296875 607 550 603 c 260
EndSplineSet
EndChar

StartChar: D
Encoding: 68 68 15
Width: 620
VWidth: 960
Flags: HMW
AnchorPoint: "top" 282 1400 basechar 0
AnchorPoint: "bottom" 262 0 basechar 0
LayerCount: 2
Fore
SplineSet
283 0 m 262
 40 0 l 262
 36 0 35 1 35 5 c 262
 35 1395 l 262
 35 1399 36 1400 40 1400 c 262
 283 1400 l 262
 490 1400 595 1285 595 992 c 262
 595 409 l 262
 595 116 510 0 283 0 c 262
303 175 m 262
 335 175 345 220 345 404 c 262
 345 996 l 262
 345 1180 335 1225 303 1225 c 262
 280 1225 l 261
 280 175 l 261
 303 175 l 262
EndSplineSet
EndChar

StartChar: E
Encoding: 69 69 16
Width: 440
VWidth: 960
Flags: HMW
AnchorPoint: "ogonek" 350 0 basechar 0
AnchorPoint: "top" 292 1400 basechar 0
AnchorPoint: "bottom" 292 0 basechar 0
LayerCount: 2
Fore
SplineSet
280 770 m 261
 365 770 l 262
 369 770 370 769 370 765 c 262
 370 650 l 262
 370 646 369 645 365 645 c 262
 280 645 l 261
 280 175 l 261
 435 175 l 262
 439 175 440 174 440 170 c 262
 440 5 l 262
 440 1 439 0 435 0 c 262
 40 0 l 262
 36 0 35 1 35 5 c 262
 35 1395 l 262
 35 1399 36 1400 40 1400 c 262
 425 1400 l 262
 429 1400 430 1399 430 1395 c 262
 430 1230 l 262
 430 1226 429 1225 425 1225 c 262
 280 1225 l 261
 280 770 l 261
EndSplineSet
EndChar

StartChar: F
Encoding: 70 70 17
Width: 435
VWidth: 960
Flags: HMW
AnchorPoint: "top" 272 1400 basechar 0
AnchorPoint: "bottom" 272 0 basechar 0
LayerCount: 2
Fore
SplineSet
280 775 m 257
 370 775 l 258
 374 775 375 774 375 770 c 258
 375 655 l 258
 375 651 374 650 370 650 c 258
 280 650 l 257
 280 5 l 258
 280 1 279 0 275 0 c 258
 40 0 l 258
 36 0 35 1 35 5 c 258
 35 1395 l 258
 35 1399 36 1400 40 1400 c 258
 430 1400 l 258
 434 1400 435 1399 435 1395 c 258
 435 1230 l 258
 435 1226 434 1225 430 1225 c 258
 280 1225 l 257
 280 775 l 257
EndSplineSet
EndChar

StartChar: G
Encoding: 71 71 18
Width: 582
VWidth: 960
Flags: HMW
AnchorPoint: "top" 282 1400 basechar 0
AnchorPoint: "bottom" 322 0 basechar 0
LayerCount: 2
Fore
SplineSet
310 582 m 6
 310 695 l 6
 310 699 311 700 315 700 c 6
 565 700 l 2
 569 700 570 699 570 695 c 2
 570 5 l 2
 570 1 569 0 565 0 c 2
 450 0 l 2
 446 0 445 1 444 5 c 2
 405 280 l 1
 460 630 l 1
 450 245 446 -18 232 -18 c 0
 64 -18 25 119 25 409 c 2
 25 992 l 2
 25 1282 68 1418 282 1418 c 0
 468.267578125 1418 530.130859375 1296.29394531 531.26171875 1094 c 0
 531.543945312 1043.47949219 534.032226562 927.952148438 535 867 c 0
 535.063476562 863.000976562 534 863 530 863 c 2
 335 863 l 2
 331 863 330.048828125 863 330 867 c 0
 326 1195 333 1228 300 1228 c 0
 277 1228 275 1181 275 996 c 2
 275 404 l 2
 275 224 278 172 316 172 c 0
 349 172 355 231 363 628 c 1
 424 578 l 1
 315 578 l 6
 312 578 310 578 310 582 c 6
EndSplineSet
EndChar

StartChar: H
Encoding: 72 72 19
Width: 610
VWidth: 960
Flags: HMW
AnchorPoint: "top" 302 1400 basechar 0
AnchorPoint: "bottom" 302 0 basechar 0
LayerCount: 2
Fore
SplineSet
335 1400 m 6
 570 1400 l 6
 574 1400 575 1399 575 1395 c 6
 575 5 l 2
 575 1 574 0 570 0 c 2
 335 0 l 2
 331 0 330 1 330 5 c 2
 330 620 l 257
 280 620 l 257
 280 5 l 2
 280 1 279 0 275 0 c 2
 40 0 l 2
 36 0 35 1 35 5 c 2
 35 1395 l 22
 35 1399 36 1400 40 1400 c 14
 275 1400 l 22
 279 1400 280 1399 280 1395 c 14
 280 795 l 257
 330 795 l 257
 330 1395 l 6
 330 1399 331 1400 335 1400 c 6
EndSplineSet
EndChar

StartChar: I
Encoding: 73 73 20
Width: 315
VWidth: 960
Flags: HMW
AnchorPoint: "ogonek" 160 0 basechar 0
AnchorPoint: "top" 160 1400 basechar 0
AnchorPoint: "bottom" 160 0 basechar 0
LayerCount: 2
Fore
SplineSet
40 1400 m 14
 275 1400 l 22
 279 1400 280 1399 280 1395 c 14
 280 5 l 22
 280 1 279 0 275 0 c 14
 40 0 l 22
 36 0 35 1 35 5 c 14
 35 1395 l 22
 35 1399 36 1400 40 1400 c 14
EndSplineSet
EndChar

StartChar: J
Encoding: 74 74 21
Width: 520
VWidth: 960
Flags: HMW
AnchorPoint: "top" 388 1400 basechar 0
AnchorPoint: "bottom" 238 0 basechar 0
LayerCount: 2
Fore
SplineSet
240 1400 m 6
 480 1400 l 6
 484 1400 485 1399 485 1395 c 6
 485 269 l 258
 485 76 441 -18 238 -18 c 256
 60 -18 10 77 10 239 c 258
 10 657 l 2
 10 661 11 663 15 663 c 2
 190 663 l 2
 194 663 195 661 195 657 c 2
 195 244 l 258
 195 188 199 162 216 162 c 256
 233 162 235 184 235 254 c 258
 235 1395 l 6
 235 1399 236 1400 240 1400 c 6
EndSplineSet
EndChar

StartChar: K
Encoding: 75 75 22
Width: 630
VWidth: 960
Flags: HMW
AnchorPoint: "top" 322 1400 basechar 0
AnchorPoint: "bottom" 322 0 basechar 0
LayerCount: 2
Fore
SplineSet
40 1400 m 10
 275 1400 l 18
 279 1400 280 1399 280 1395 c 10
 280 5 l 18
 280 1 279 0 275 0 c 10
 40 0 l 18
 36 0 35 1 35 5 c 10
 35 1395 l 18
 35 1399 36 1400 40 1400 c 10
  Spiro
    40 1400 [
    275 1400 ]
    278.072 1399.59 o
    279.593 1398.07 o
    280 1395 [
    280 5 ]
    279.593 1.92815 o
    278.072 0.406519 o
    275 0 [
    40 0 ]
    36.9281 0.406519 o
    35.4065 1.92815 o
    35 5 [
    35 1395 ]
    35.4065 1398.07 o
    36.9281 1399.59 o
    0 0 z
  EndSpiro
280 785 m 5
 455 890 l 1
 666 5 l 2
 667.376953125 0 667.376953125 0 665 0 c 2
 395 0 l 2
 390.0390625 0 386.34765625 2.861328125 386 5 c 2
 280 785 l 5
440 1395 m 2
 441.2421875 1398.92285156 445.25 1400 450 1400 c 2
 652 1400 l 2
 654.995117188 1400 656.650390625 1399.13769531 655 1395 c 2
 406.41796875 720 l 1
 346.41796875 770 l 1
 270 450 l 1
 155 505 l 1
 440 1395 l 2
EndSplineSet
EndChar

StartChar: L
Encoding: 76 76 23
Width: 467
VWidth: 960
Flags: HMW
AnchorPoint: "top" 142 1400 basechar 0
AnchorPoint: "bottom" 272 0 basechar 0
LayerCount: 2
Fore
SplineSet
40 1400 m 6
 275 1400 l 6
 279 1400 280 1399 280 1395 c 6
 280 175 l 281
 455 175 l 2
 459 175 460 174 460 170 c 2
 460 5 l 2
 460 1 459 0 455 0 c 2
 40 0 l 2
 36 0 35 1 35 5 c 2
 35 1395 l 6
 35 1399 36 1400 40 1400 c 6
EndSplineSet
EndChar

StartChar: M
Encoding: 77 77 24
Width: 820
VWidth: 960
Flags: HMW
AnchorPoint: "top" 382 1400 basechar 0
AnchorPoint: "bottom" 372 0 basechar 0
LayerCount: 2
Fore
SplineSet
200 1115 m 261
 200 5 l 6
 200 1 199 0 195 0 c 6
 30 0 l 6
 26 0 25 1 25 5 c 6
 25 1395 l 6
 25 1399 26 1400 30 1400 c 6
 330 1400 l 6
 334 1400 335 1399 337 1395 c 6
 405 644 l 261
 478 1395 l 6
 480 1399 481 1400 485 1400 c 6
 780 1400 l 6
 784 1400 785 1399 785 1395 c 6
 785 5 l 6
 785 1 784 0 780 0 c 6
 555 0 l 6
 551 0 550 1 550 5 c 6
 550 1115 l 261
 444 5 l 6
 442 1 441 0 437 0 c 6
 307 0 l 6
 303 0 302 1 300 5 c 6
 200 1115 l 261
EndSplineSet
EndChar

StartChar: N
Encoding: 78 78 25
Width: 590
VWidth: 960
Flags: HMW
AnchorPoint: "top" 297 1400 basechar 0
AnchorPoint: "bottom" 292 0 basechar 0
LayerCount: 2
Fore
SplineSet
385 1400 m 2
 560 1400 l 2
 564 1400 565 1399 565 1395 c 2
 565 5 l 2
 565 1 564 0 560 0 c 2
 395 0 l 2
 391 0 387.096650616 0.57601172142 386 5 c 2
 190 796 l 5
 210 796 l 261
 210 5 l 2
 210 1 209 0 205 0 c 2
 30 0 l 2
 26 0 25 1 25 5 c 2
 25 1395 l 2
 25 1399 26 1400 30 1400 c 2
 245 1400 l 2
 249 1400 253.154214562 1399.43701726 254 1395 c 2
 400 629 l 1
 380 629 l 257
 380 1395 l 2
 380 1399 381 1400 385 1400 c 2
EndSplineSet
EndChar

StartChar: O
Encoding: 79 79 26
Width: 625
VWidth: 960
Flags: HMW
AnchorPoint: "top" 312 1400 basechar 0
AnchorPoint: "bottom" 313 0 basechar 0
LayerCount: 2
Fore
SplineSet
25 359 m 262
 25 1042 l 262
 25 1275 72 1416 313 1416 c 256
 554 1416 600 1275 600 1042 c 262
 600 359 l 262
 600 126 554 -18 313 -18 c 256
 72 -18 25 126 25 359 c 262
275 264 m 258
 275 175 286 152 313 152 c 256
 340 152 350 175 350 264 c 258
 350 1136 l 258
 350 1225 340 1248 313 1248 c 256
 286 1248 275 1225 275 1136 c 258
 275 264 l 258
EndSplineSet
EndChar

StartChar: P
Encoding: 80 80 27
Width: 575
VWidth: 960
Flags: HMW
AnchorPoint: "top" 322 1400 basechar 0
AnchorPoint: "bottom" 138 0 basechar 0
LayerCount: 2
Fore
SplineSet
280 1225 m 261
 280 725 l 261
 290 725 l 262
 328 725 338 749 338 794 c 262
 338 1156 l 262
 338 1201 328 1225 290 1225 c 262
 280 1225 l 261
280 1400 m 262
 463 1400 548 1326 548 1141 c 262
 548 859 l 262
 548 674 464 600 320 600 c 262
 280 600 l 261
 280 5 l 6
 280 1 279 0 275 0 c 6
 40 0 l 6
 36 0 35 1 35 5 c 6
 35 1395 l 6
 35 1399 36 1400 40 1400 c 6
 280 1400 l 262
EndSplineSet
EndChar

StartChar: Q
Encoding: 81 81 28
Width: 668
VWidth: 960
Flags: HMW
AnchorPoint: "top" 312 1400 basechar 0
AnchorPoint: "bottom" 312 0 basechar 0
LayerCount: 2
Fore
SplineSet
668 205 m 2
 668 5 l 2
 668 1 668 -1 662 -2 c 0
 507 -28 450 46 450 179 c 257
 515 294 l 261
 515 119 460 -18 272 -18 c 256
 64 -18 25 129 25 304 c 258
 25 1096 l 258
 25 1271 68 1418 312 1418 c 256
 556 1418 600 1271 600 1096 c 258
 600 289 l 258
 600 232 616 212 662 210 c 0
 668 210 668 208 668 205 c 2
350 264 m 258
 350 1136 l 258
 350 1201 346 1248 312 1248 c 256
 278 1248 275 1201 275 1136 c 258
 275 264 l 258
 275 194 278 152 312 152 c 256
 346 152 350 194 350 264 c 258
EndSplineSet
EndChar

StartChar: R
Encoding: 82 82 29
Width: 630
VWidth: 960
Flags: HMW
AnchorPoint: "top" 322 1400 basechar 0
AnchorPoint: "bottom" 322 0 basechar 0
LayerCount: 2
Fore
SplineSet
280 1225 m 261
 280 720 l 261
 300 720 l 262
 334 720 338 751 338 796 c 262
 338 1148 l 262
 338 1188 334 1225 300 1225 c 262
 280 1225 l 261
310 1400 m 262
 543 1400 588 1296 588 1141 c 262
 588 879 l 262
 588 709 474 640 310 640 c 261
 310 670 l 261
 488 670 592 656 592 466 c 262
 592 164 l 262
 592 107 598 64 621 30 c 4
 625 24 625 23 625 20 c 6
 625 5 l 6
 625 1 624 0 620 0 c 6
 382 0 l 6
 378 0 374.8671875 1.904296875 372 6 c 4
 344 46 338 90 338 164 c 262
 338 536 l 262
 338 576 323 595 295 595 c 262
 280 595 l 261
 280 5 l 6
 280 1 279 0 275 0 c 6
 40 0 l 6
 36 0 35 1 35 5 c 6
 35 1395 l 6
 35 1399 36 1400 40 1400 c 6
 310 1400 l 262
EndSplineSet
EndChar

StartChar: S
Encoding: 83 83 30
Width: 489
VWidth: 960
Flags: HMW
AnchorPoint: "top" 201 1400 basechar 0
AnchorPoint: "bottom" 242 0 basechar 0
LayerCount: 2
Back
SplineSet
19 524 m 6
 195 524 l 6
 196 524 199 524 199 520 c 4
 199 452.100069464 199 372.100069464 199.044420408 285 c 4
 199.087886267 199.771622774 205.069471785 172 224 172 c 260
 248 172 249 208 249 354 c 260
 249 426 246.794921875 527.944335938 153 632 c 260
 58.6904296875 736.625976562 16 817 16 1076 c 260
 16 1321 89 1418 255 1418 c 260
 422 1418 475 1308 475 1150 c 6
 475 906 l 6
 475 902 472 902 469 902 c 6
 305 902 l 6
 302 902 299 902 299 906 c 4
 299 1000.26171875 299 1070.26171875 298.940429688 1139 c 4
 298.869678831 1220.63952919 293.771085876 1238 277 1238 c 260
 256 1238 256 1221 256 1092 c 260
 256 966 258.326171875 874.78515625 353 771 c 260
 458.813476562 655.00390625 489 578 489 354 c 260
 489 85 410 -18 250 -18 c 260
 86 -18 15 52 15 240 c 6
 15 520 l 6
 15 524 18 524 19 524 c 6
EndSplineSet
Fore
SplineSet
19 524 m 2
 195 524 l 2
 196 524 199 524 199 520 c 0
 199 452.100069464 199 372.100069464 199.044420408 285 c 0
 199.087886267 199.771622774 204.069335938 172 223 172 c 256
 247 172 249 208 249 314 c 256
 249 465.921875 197.29296875 558.216796875 148.334960938 645.259765625 c 4
 86.845703125 754.58203125 16 868.997070312 16 1116 c 256
 16 1321 89 1418 255 1418 c 256
 422 1418 475 1308 475 1150 c 2
 475 906 l 2
 475 902 472 902 469 902 c 2
 305 902 l 2
 302 902 299 902 299 906 c 0
 299 1000.26171875 299 1070.26171875 298.940429688 1139 c 0
 298.869678831 1220.63952919 294.771484375 1238 278 1238 c 256
 262 1238 256 1211 256 1132 c 256
 256 952.244140625 316.649414062 839.1875 369.934570312 752.703125 c 0
 431.80686473 652.281411167 489 552.170898438 489 314 c 256
 489 85 410 -18 250 -18 c 256
 86 -18 15 52 15 240 c 2
 15 520 l 2
 15 524 18 524 19 524 c 2
EndSplineSet
EndChar

StartChar: T
Encoding: 84 84 31
Width: 545
VWidth: 960
Flags: HMW
AnchorPoint: "top" 272 1400 basechar 0
AnchorPoint: "bottom" 253 0 basechar 0
LayerCount: 2
Fore
SplineSet
5 1400 m 6
 540 1400 l 6
 544 1400 545 1399 545 1395 c 6
 545 1230 l 6
 545 1226 544 1225 540 1225 c 6
 395 1225 l 261
 395 5 l 6
 395 1 394 0 390 0 c 6
 155 0 l 6
 151 0 150 1 150 5 c 6
 150 1225 l 261
 5 1225 l 6
 1 1225 0 1226 0 1230 c 6
 0 1395 l 6
 0 1399 1 1400 5 1400 c 6
EndSplineSet
EndChar

StartChar: U
Encoding: 85 85 32
Width: 555
VWidth: 960
Flags: HMW
AnchorPoint: "ogonek" 348 0 basechar 0
AnchorPoint: "top" 300 1400 basechar 0
AnchorPoint: "bottom" 300 0 basechar 0
LayerCount: 2
Fore
SplineSet
335 254 m 258
 335 1395 l 2
 335 1399 336 1400 340 1400 c 2
 515 1400 l 2
 519 1400 520 1399 520 1395 c 2
 520 299 l 262
 520 139 496 -18 278 -18 c 256
 44 -18 30 104 30 294 c 258
 30 1395 l 2
 30 1399 31 1400 35 1400 c 2
 275 1400 l 2
 279 1400 280 1399 280 1395 c 2
 280 289 l 258
 280 174 284 152 307 152 c 256
 330 152 335 179 335 254 c 258
EndSplineSet
EndChar

StartChar: V
Encoding: 86 86 33
Width: 559
VWidth: 960
Flags: HMW
AnchorPoint: "top" 290.396 1400 basechar 0
AnchorPoint: "bottom" 290.396 0 basechar 0
LayerCount: 2
Fore
SplineSet
292.395507812 311 m 5
 372.395507812 1395 l 6
 373.395507812 1397 374.395507812 1400 378.395507812 1400 c 6
 568.395507812 1400 l 6
 570.395507812 1400 574.395507812 1400 572.395507812 1395 c 6
 422.395507812 5 l 6
 420.395507812 1 418.395507812 0 416.395507812 0 c 6
 126.395507812 0 l 6
 123.395507812 0 120.395507812 1 119.395507812 5 c 6
 -14.6044921875 1395 l 6
 -14.6044921875 1396 -16.6044921875 1400 -11.6044921875 1400 c 6
 238.395507812 1400 l 6
 240.395507812 1400 243.395507812 1400 245.395507812 1395 c 6
 292.395507812 311 l 5
EndSplineSet
EndChar

StartChar: W
Encoding: 87 87 34
Width: 817
VWidth: 960
Flags: HMW
AnchorPoint: "top" 436 1400 basechar 0
AnchorPoint: "bottom" 416 0 basechar 0
LayerCount: 2
Fore
SplineSet
264 495 m 257
 347 1395 l 2
 348 1398 350 1400 354 1400 c 2
 519 1400 l 2
 523 1400 524 1398 525 1395 c 2
 608 477 l 257
 667 1395 l 6
 668 1398 670 1400 674 1400 c 6
 844 1400 l 2
 848 1400 848 1398 847 1395 c 2
 713 5 l 2
 712 1 710 0 706 0 c 2
 486 0 l 2
 483 0 481 1 480 5 c 2
 410 765 l 257
 343 5 l 2
 342 1 340 0 336 0 c 2
 114 0 l 2
 110 0 108 1 107 5 c 2
 -22 1395 l 2
 -23 1398 -23 1400 -19 1400 c 2
 219 1400 l 2
 223 1400 224 1398 225 1395 c 2
 264 495 l 257
EndSplineSet
EndChar

StartChar: X
Encoding: 88 88 35
Width: 616
VWidth: 960
Flags: HMW
AnchorPoint: "top" 316 1400 basechar 0
AnchorPoint: "bottom" 316 0 basechar 0
LayerCount: 2
Fore
SplineSet
376 1400 m 2
 608 1400 l 2
 612 1400 612 1399 610 1395 c 2
 454 732 l 257
 635 5 l 2
 637 1 638 0 634 0 c 2
 354 0 l 2
 350 0 348 1 346 5 c 2
 303 436 l 257
 230 5 l 2
 227 1 225 0 221 0 c 2
 -16 0 l 2
 -20 0 -21 1 -18 5 c 2
 188 680 l 257
 -3 1395 l 2
 -5 1399 -6 1400 -2 1400 c 2
 268 1400 l 2
 272 1400 275 1399 277 1395 c 2
 325 946 l 261
 368 1395 l 2
 370 1399 372 1400 376 1400 c 2
EndSplineSet
EndChar

StartChar: Y
Encoding: 89 89 36
Width: 645
VWidth: 960
Flags: HMW
AnchorPoint: "top" 340 1400 basechar 0
AnchorPoint: "bottom" 325 0 basechar 0
LayerCount: 2
Fore
SplineSet
450 1400 m 6
 643 1400 l 6
 647 1400 647 1399 645 1395 c 6
 445 625 l 257
 445 5 l 2
 445 1 444 0 440 0 c 2
 205 0 l 2
 201 0 200 1 200 5 c 2
 200 625 l 257
 1 1395 l 6
 -1 1399 -1 1400 3 1400 c 6
 280 1400 l 6
 284 1400 286 1399 288 1395 c 6
 365 800 l 257
 442 1395 l 6
 444 1399 446 1400 450 1400 c 6
EndSplineSet
EndChar

StartChar: Z
Encoding: 90 90 37
Width: 535
VWidth: 960
Flags: HMW
AnchorPoint: "top" 263 1400 basechar 0
AnchorPoint: "bottom" 284 0 basechar 0
LayerCount: 2
Fore
SplineSet
-35 5 m 2
 254 1225 l 257
 36 1225 l 2
 32 1225 31 1226 31 1230 c 2
 31 1395 l 2
 31 1399 32 1400 36 1400 c 2
 531 1400 l 2
 535 1400 536 1399 533 1395 c 2
 253 175 l 261
 521 175 l 2
 525 175 526 174 526 170 c 2
 526 5 l 2
 526 1 525 0 521 0 c 2
 -34 0 l 2
 -38 0 -38 1 -35 5 c 2
EndSplineSet
EndChar

StartChar: a
Encoding: 97 97 38
Width: 550
VWidth: 960
Flags: HMW
AnchorPoint: "ogonek" 443 0 basechar 0
AnchorPoint: "top" 295 1050 basechar 0
AnchorPoint: "bottom" 241 0 basechar 0
LayerCount: 2
Fore
SplineSet
246 330 m 4
 246 198 259 158 273 158 c 260
 290 158 292 186 292 234 c 261
 322 234 l 261
 322 132 267 -18 161 -18 c 260
 76 -18 8 28 8 255 c 4
 8 491 77 566 208 627 c 260
 264.358591372 653.24331354 292 678 292 734 c 261
 312 584 l 261
 305 562 291.831327114 547.6365483 281 535 c 260
 257 507 246 460 246 330 c 4
292 114 m 262
 292 814 l 262
 292 874 294 907 277 907 c 260
 258 907 257 872 255 696 c 4
 254.965911292 693.00019368 253 691 250 691 c 6
 47 691 l 6
 43 691 41.9146667961 693.001147406 42 696 c 4
 49 942 124 1067 297 1067 c 260
 467 1067 532 975 532 761 c 262
 532 104 l 262
 532 57 543 25 561 4 c 4
 563 2 562 0 559 0 c 6
 322 0 l 6
 318 0 316 1 314 3 c 4
 296 24 292 66 292 114 c 262
EndSplineSet
EndChar

StartChar: b
Encoding: 98 98 39
Width: 590
VWidth: 960
Flags: HMW
LayerCount: 2
Fore
SplineSet
30 1450 m 2
 265 1450 l 2
 269 1450 270 1449 270 1445 c 2
 270 162 l 257
 68 -12 l 6
 64 -16 59 -18 55 -18 c 6
 30 -18 l 2
 26 -18 25 -16 25 -12 c 2
 25 1445 l 2
 25 1449 26 1450 30 1450 c 2
240 801 m 257
 240 946 312 1067 410 1067 c 256
 518 1067 570 997 570 827 c 258
 570 224 l 258
 570 64 502 -18 354 -18 c 256
 230 -18 145 63 145 208 c 257
 270 244 l 257
 270 174 276 152 297 152 c 256
 321 152 325 179 325 234 c 258
 325 817 l 258
 325 872 321 897 297 897 c 256
 276 897 270 862 270 807 c 257
 240 801 l 257
EndSplineSet
EndChar

StartChar: c
Encoding: 99 99 40
Width: 479
VWidth: 960
Flags: HMW
AnchorPoint: "bottom" 252 0 basechar 0
AnchorPoint: "top" 249 1050 basechar 0
LayerCount: 2
Fore
SplineSet
464 434 m 0
 463 377 463.411402947 275.988725166 462 232 c 0
 456 45 380 -18 237 -18 c 256
 102 -18 20 76 20 224 c 258
 20 827 l 258
 20 975 90 1067 240 1067 c 256
 396 1067 450 987 456 820 c 0
 457.580226971 776.017015987 460 675 460 617 c 0
 460 614 459 613 455 613 c 2
 310 613 l 2
 307 613 304 615 304 617 c 0
 304 685 303 735 303 772 c 0
 302 859 300 873 285 873 c 256
 268 873 265 842 265 767 c 258
 265 284 l 258
 265 212 265 178 285 178 c 256
 300 178 305 192 307 283 c 0
 308 320 309 369 309 435 c 0
 309 437 312 438 315 438 c 2
 460 438 l 2
 464 438 464 437 464 434 c 0
EndSplineSet
EndChar

StartChar: d
Encoding: 100 100 41
Width: 590
VWidth: 960
Flags: HMW
LayerCount: 2
Fore
SplineSet
350 238 m 257
 350 93 285 -18 181 -18 c 260
 73 -18 20 54 20 224 c 258
 20 827 l 258
 20 997 73 1067 181 1067 c 256
 285 1067 350 956 350 811 c 257
 320 807 l 257
 320 862 318 897 294 897 c 256
 270 897 266 872 266 817 c 258
 266 234 l 258
 266 179 270 152 294 152 c 256
 318 152 320 189 320 244 c 257
 350 238 l 257
566 1445 m 2
 566 5 l 2
 566 1 564 0 560 0 c 2
 333 0 l 2
 329 0 328 1 328 5 c 2
 328 110 l 257
 320 126 l 257
 320 1445 l 2
 320 1449 322 1450 326 1450 c 2
 560 1450 l 2
 564 1450 566 1449 566 1445 c 2
EndSplineSet
EndChar

StartChar: e
Encoding: 101 101 42
Width: 570
VWidth: 960
Flags: HMW
AnchorPoint: "ogonek" 402 30 basechar 0
AnchorPoint: "bottom" 300 0 basechar 0
AnchorPoint: "top" 305 1050 basechar 0
LayerCount: 2
Fore
SplineSet
550 414 m 4
 550 337.607421875 548.72170118 299.772056928 547.424804688 239 c 4
 543.571289062 58.42578125 439.794921875 -18 288 -18 c 260
 104 -18 20 69 20 274 c 262
 20 777 l 262
 20 977 100 1067 288 1067 c 260
 472 1067 546.336914062 979.307617188 550 767 c 260
 551.985351562 651.927734375 554 607 554 485 c 4
 554 483 554 481 550 481 c 6
 158 481 l 261
 158 565 l 261
 312 565 l 261
 310 906 312 927 288 927 c 260
 270 927 266 901 266 841 c 262
 266 209 l 262
 266 134 271 122 287 122 c 260
 306 122 314 185 315 414 c 4
 315.008789062 416 317 418 320 418 c 6
 546 418 l 6
 550 418 550 417.162109375 550 414 c 4
EndSplineSet
EndChar

StartChar: f
Encoding: 102 102 43
Width: 335
VWidth: 960
Flags: HMW
LayerCount: 2
Fore
SplineSet
335 930 m 2
 0 930 l 2
 -4 930 -5 931 -5 935 c 2
 -5 1045 l 2
 -5 1049 -4 1050 0 1050 c 2
 335 1050 l 2
 339 1050 340 1049 340 1045 c 2
 340 935 l 2
 340 931 339 930 335 930 c 2
40 1313 m 262
 40 1432 130 1469 334 1440 c 4
 338.950195312 1439.29589844 340 1438 340 1434 c 6
 340 1304 l 6
 340 1301 338.188476562 1298.69726562 332 1300 c 4
 294 1308 282 1296 282 1253 c 262
 282 5 l 6
 282 1 282 0 278 0 c 6
 45 0 l 6
 41 0 40 1 40 5 c 6
 40 1313 l 262
EndSplineSet
EndChar

StartChar: g
Encoding: 103 103 44
Width: 564
VWidth: 960
Flags: HMW
AnchorPoint: "top" 297.946 1075 basechar 0
LayerCount: 2
Fore
SplineSet
571.946289062 1255 m 0
 564.946289062 1119 471.946289062 1030 301.946289062 1030 c 257
 287.946289062 1045 l 257
 317.946289062 1045 345.946289062 1071 361.946289062 1256 c 0
 362.205078125 1258.98925781 363.946289062 1260 367.946289062 1260 c 2
 567.946289062 1260 l 2
 571.946289062 1260 572.15234375 1258.99511719 571.946289062 1255 c 0
355.946289062 170 m 258
 495.946289062 170 567.946289062 100 567.946289062 -88 c 256
 567.946289062 -286 476.946289062 -360 291.946289062 -360 c 258
 213.946289062 -360 l 258
 68.9462890625 -360 -8.0537109375 -296 -8.0537109375 -168 c 260
 -8.0537109375 -70 78.9462890625 15 223.946289062 15 c 257
 288.946289062 15 l 257
 248.946289062 5 221.946289062 -44 221.946289062 -132 c 256
 221.946289062 -226 238.946289062 -260 278.946289062 -260 c 258
 285.946289062 -260 l 258
 315.946289062 -260 337.946289062 -206 337.946289062 -118 c 256
 337.946289062 -34 321.946289062 0 281.946289062 0 c 258
 168.946289062 0 l 258
 68.9462890625 0 2.9462890625 68 2.9462890625 162 c 256
 2.9462890625 266 99.9462890625 333 219.946289062 333 c 257
 209.946289062 283 l 257
 179.946289062 283 157.946289062 262 157.946289062 228 c 256
 157.946289062 182 198.946289062 170 263.946289062 170 c 258
 355.946289062 170 l 258
321.946289062 494 m 258
 321.946289062 811 l 258
 321.946289062 912 318.946289062 943 297.946289062 943 c 256
 278.946289062 943 271.946289062 913 271.946289062 811 c 258
 271.946289062 494 l 258
 271.946289062 396 278.946289062 363 297.946289062 363 c 256
 318.946289062 363 321.946289062 392 321.946289062 494 c 258
541.946289062 574 m 258
 541.946289062 399 481.946289062 237 297.946289062 237 c 256
 113.946289062 237 51.9462890625 399 51.9462890625 574 c 258
 51.9462890625 781 l 258
 51.9462890625 956 113.946289062 1067 297.946289062 1067 c 256
 481.946289062 1067 541.946289062 956 541.946289062 781 c 258
 541.946289062 574 l 258
EndSplineSet
EndChar

StartChar: h
Encoding: 104 104 45
Width: 580
VWidth: 960
Flags: HMW
AnchorPoint: "bottom" 293 0 basechar 0
AnchorPoint: "top" 448 1050 basechar 0
LayerCount: 2
Fore
SplineSet
30 1450 m 2
 265 1450 l 2
 269 1450 270 1449 270 1445 c 2
 270 5 l 2
 270 1 268 0 265 0 c 2
 30 0 l 2
 26 0 25 1 25 5 c 2
 25 1445 l 2
 25 1449 26 1450 30 1450 c 2
245 877 m 257
 245 997 317 1067 411 1067 c 256
 515 1067 558 1012 558 857 c 258
 558 5 l 2
 558 1 557 0 553 0 c 2
 318 0 l 2
 314 0 313 1 313 5 c 2
 313 831 l 258
 313 881 309 903 295 903 c 256
 277 903 270 866 270 761 c 257
 245 877 l 257
EndSplineSet
EndChar

StartChar: i
Encoding: 105 105 46
Width: 295
VWidth: 960
Flags: HMW
AnchorPoint: "bottom" 148 0 basechar 0
AnchorPoint: "ogonek" 148 0 basechar 0
LayerCount: 2
Fore
SplineSet
225 1480 m 2
 225 1165 l 2
 225 1161 224 1160 220 1160 c 2
 75 1160 l 2
 71 1160 70 1161 70 1165 c 2
 70 1480 l 2
 70 1484 71 1485 75 1485 c 2
 220 1485 l 2
 224 1485 225 1484 225 1480 c 2
270 1045 m 6
 270 5 l 6
 270 1 269 0 265 0 c 6
 30 0 l 6
 26 0 25 1 25 5 c 6
 25 1045 l 6
 25 1049 26 1050 30 1050 c 6
 265 1050 l 6
 269 1050 270 1049 270 1045 c 6
EndSplineSet
EndChar

StartChar: j
Encoding: 106 106 47
Width: 295
VWidth: 960
Flags: HMW
LayerCount: 2
Fore
SplineSet
225 1480 m 2
 225 1165 l 2
 225 1161 224 1160 220 1160 c 2
 75 1160 l 2
 71 1160 70 1161 70 1165 c 2
 70 1480 l 2
 70 1484 71 1485 75 1485 c 2
 220 1485 l 2
 224 1485 225 1484 225 1480 c 2
270 -179 m 262
 270 -358 150 -370 -44 -356 c 4
 -48 -356 -50 -354 -50 -350 c 6
 -50 -220 l 6
 -50 -217 -48 -215 -45 -216 c 4
 0 -225 25 -208 25 -144 c 262
 25 1045 l 6
 25 1049 26 1050 30 1050 c 6
 265 1050 l 6
 269 1050 270 1049 270 1045 c 6
 270 -179 l 262
EndSplineSet
EndChar

StartChar: k
Encoding: 107 107 48
Width: 595
VWidth: 960
Flags: HMW
LayerCount: 2
Fore
SplineSet
30 1450 m 6
 265 1450 l 6
 269 1450 270 1449 270 1445 c 6
 270 5 l 6
 270 1 269 0 265 0 c 6
 30 0 l 6
 26 0 25 1 25 5 c 6
 25 1445 l 6
 25 1449 26 1450 30 1450 c 6
  Spiro
    30 1450 [
    265 1450 ]
    268.072 1449.59 o
    269.593 1448.07 o
    270 1445 [
    270 5 ]
    269.593 1.92815 o
    268.072 0.406519 o
    265 0 [
    30 0 ]
    26.9281 0.406519 o
    25.4065 1.92815 o
    25 5 [
    25 1445 ]
    25.4065 1448.07 o
    26.9281 1449.59 o
    0 0 z
  EndSpiro
185 422 m 5
 410 1045 l 6
 411.41015625 1048.8046875 414.240234375 1050 420 1050 c 6
 632 1050 l 6
 636.357421875 1050 636.357421875 1050 634 1045 c 6
 255 256 l 5
 185 422 l 5
250 586 m 261
 390 616 l 261
 642 5 l 6
 644 1 644 0 640 0 c 6
 365 0 l 6
 361 0 359 1 357 5 c 6
 250 586 l 261
EndSplineSet
EndChar

StartChar: l
Encoding: 108 108 49
Width: 295
VWidth: 960
Flags: HMW
LayerCount: 2
Fore
SplineSet
30 1450 m 6
 265 1450 l 6
 269 1450 270 1449 270 1445 c 6
 270 5 l 2
 270 1 268 0 265 0 c 2
 30 0 l 2
 26 0 25 1 25 5 c 2
 25 1445 l 6
 25 1449 26 1450 30 1450 c 6
EndSplineSet
EndChar

StartChar: m
Encoding: 109 109 50
Width: 802
VWidth: 960
Flags: HMW
LayerCount: 2
Fore
SplineSet
465 877 m 257
 465 997 534 1067 632 1067 c 256
 736 1067 780 1012 780 857 c 258
 780 5 l 2
 780 1 779 0 775 0 c 2
 550 0 l 2
 546 0 545 1 545 5 c 2
 545 857 l 258
 545 887 538 903 525 903 c 256
 512 903 500 892 500 787 c 257
 465 877 l 257
30 1050 m 2
 250 1050 l 2
 254 1050 255 1049 255 1045 c 2
 255 869 l 257
 260 855 l 257
 260 5 l 2
 260 1 259 0 255 0 c 2
 30 0 l 2
 26 0 25 1 25 5 c 2
 25 1045 l 2
 25 1049 26 1050 30 1050 c 2
235 877 m 257
 235 997 278 1067 372 1067 c 256
 466 1067 500 1012 500 857 c 258
 500 5 l 2
 500 1 499 0 495 0 c 2
 310 0 l 2
 306 0 305 1 305 5 c 2
 305 857 l 258
 305 887 297 903 285 903 c 260
 272 903 260 892 260 787 c 261
 235 877 l 257
EndSplineSet
EndChar

StartChar: n
Encoding: 110 110 51
Width: 580
VWidth: 960
Flags: HMW
AnchorPoint: "bottom" 317 0 basechar 0
AnchorPoint: "top" 318 1050 basechar 0
LayerCount: 2
Fore
SplineSet
30 1050 m 6
 260 1050 l 6
 264 1050 265 1049 265 1045 c 6
 265 869 l 261
 270 855 l 261
 270 5 l 6
 270 1 269 0 265 0 c 6
 30 0 l 6
 26 0 25 1 25 5 c 6
 25 1045 l 6
 25 1049 26 1050 30 1050 c 6
245 877 m 261
 245 997 317 1067 411 1067 c 260
 515 1067 558 1012 558 857 c 262
 558 5 l 6
 558 1 557 0 553 0 c 6
 318 0 l 6
 314 0 313 1 313 5 c 6
 313 831 l 262
 313 881 309 903 295 903 c 260
 277 903 270 866 270 761 c 261
 245 877 l 261
EndSplineSet
EndChar

StartChar: o
Encoding: 111 111 52
Width: 580
VWidth: 960
Flags: HMW
AnchorPoint: "top" 290 1050 basechar 0
AnchorPoint: "bottom" 290 0 basechar 0
LayerCount: 2
Fore
SplineSet
20 274 m 262
 20 777 l 262
 20 972 102 1067 290 1067 c 260
 478 1067 560 972 560 777 c 262
 560 274 l 262
 560 79 478 -18 290 -18 c 260
 102 -18 20 79 20 274 c 262
268 209 m 262
 268 149 272 122 290 122 c 260
 308 122 313 149 313 209 c 262
 313 841 l 262
 313 901 308 927 290 927 c 260
 272 927 268 901 268 841 c 262
 268 209 l 262
EndSplineSet
EndChar

StartChar: p
Encoding: 112 112 53
Width: 590
VWidth: 960
Flags: HMW
LayerCount: 2
Fore
SplineSet
240 801 m 261
 240 946 286 1067 390 1067 c 260
 498 1067 570 997 570 827 c 262
 570 224 l 262
 570 54 498 -18 390 -18 c 260
 286 -18 240 103 240 248 c 261
 270 244 l 261
 270 189 273 152 297 152 c 260
 321 152 325 179 325 234 c 262
 325 817 l 262
 325 872 321 897 297 897 c 260
 273 897 270 862 270 807 c 261
 240 801 l 261
25 -355 m 6
 25 1045 l 6
 25 1049 26 1050 30 1050 c 6
 258 1050 l 6
 262 1050 262 1049 262 1045 c 6
 262 920 l 261
 270 924 l 261
 270 -355 l 6
 270 -359 269 -360 265 -360 c 6
 30 -360 l 6
 26 -360 25 -359 25 -355 c 6
EndSplineSet
EndChar

StartChar: q
Encoding: 113 113 54
Width: 590
VWidth: 960
Flags: HMW
LayerCount: 2
Fore
SplineSet
560 -360 m 2
 326 -360 l 2
 322 -360 320 -359 320 -355 c 2
 320 887 l 257
 522 1063 l 6
 526 1067 532 1067 536 1067 c 6
 560 1067 l 2
 564 1067 566 1067 566 1063 c 2
 566 -355 l 2
 566 -359 564 -360 560 -360 c 2
350 238 m 257
 350 93 279 -18 181 -18 c 256
 73 -18 20 54 20 224 c 258
 20 827 l 258
 20 987 88 1067 236 1067 c 256
 360 1067 446 986 446 841 c 257
 320 807 l 257
 320 877 315 897 294 897 c 256
 270 897 266 872 266 817 c 258
 266 234 l 258
 266 179 270 152 294 152 c 256
 315 152 320 189 320 244 c 257
 350 238 l 257
EndSplineSet
EndChar

StartChar: r
Encoding: 114 114 55
Width: 402
VWidth: 960
Flags: HMW
AnchorPoint: "top" 228 1050 basechar 0
AnchorPoint: "bottom" 152 0 basechar 0
LayerCount: 2
Fore
SplineSet
30 1050 m 2
 248 1050 l 2
 252 1050 252 1048 252 1045 c 2
 252 887 l 25
 270 883 l 25
 270 5 l 18
 270 1 268 0 265 0 c 10
 30 0 l 18
 27 0 25 2 25 5 c 10
 25 1045 l 2
 25 1048 27 1050 30 1050 c 2
  Spiro
    30 1050 [
    248 1050 ]
    250.813 1049.37 o
    251.852 1047.63 o
    252 1045 [
    252 887 v
    270 883 v
    270 5 ]
    269.372 1.92815 o
    267.627 0.406519 o
    265 0 [
    30 0 ]
    27.3726 0.628408 o
    25.6284 2.37259 o
    25 5 [
    25 1045 ]
    25.6284 1047.63 o
    27.3726 1049.37 o
    0 0 z
  EndSpiro
240 737 m 257
 240 835 256 1079 386 1063 c 0
 391 1062 392 1061 392 1057 c 2
 392 817 l 2
 392 814 391.161132812 810.69140625 384 812 c 0
 291 829 270 674 270 567 c 257
 240 737 l 257
EndSplineSet
EndChar

StartChar: s
Encoding: 115 115 56
Width: 504
VWidth: 960
Flags: HMW
AnchorPoint: "top" 241 1050 basechar 0
AnchorPoint: "bottom" 243 0 basechar 0
LayerCount: 2
Back
SplineSet
14 399 m 6
 180 399 l 6
 184 399 186 397 186 394 c 4
 186 339.07634445 186.375 299.068359375 187.200195312 257 c 4
 188.520507812 189.672851562 193.435006701 162 213 162 c 260
 230 162 240 181 240 256 c 260
 240 351.379806881 222.120264267 386.102230306 187 437 c 262
 82.8076171875 588 l 6
 42.5371830629 646.361613284 26 684.69140625 26 814 c 260
 26 1002 115 1067 260 1067 c 260
 397.423934423 1067 468.42842702 981.517584285 471.859375 842 c 4
 473.46875 776.555664062 474 726.552734375 474 666 c 4
 474 663 473 661 469 661 c 6
 312 661 l 6
 308 661 307 664 307 667 c 4
 307 705.98021338 308.454234277 745.998235157 306.760358983 824 c 4
 305.595614865 877.635646669 295.649187459 895 282 895 c 260
 269 895 255 875 255 823 c 260
 255 760.35178703 258.190596756 707.5496834 290 663 c 262
 430.662109375 466 l 6
 474.573669007 404.501012917 490 330.130859375 490 221 c 260
 490 69 428 -18 258 -18 c 260
 73.0419921875 -18 17.65234375 64.8857421875 12.154296875 211 c 4
 10.3909507829 257.862096917 10 317.89453125 10 395 c 4
 10 398 10 399 14 399 c 6
EndSplineSet
Fore
SplineSet
14 399 m 2
 180 399 l 2
 184 399 186 397 186 394 c 0
 186 339.07634445 186.375 299.068359375 187.200195312 257 c 0
 188.520507812 189.672851562 193.435006701 162 213 162 c 256
 230 162 240 181 240 256 c 256
 240 531.334911682 26 467.119140625 26 804 c 260
 26 992 115 1067 260 1067 c 256
 397.423934423 1067 468.42842702 981.517584285 471.859375 842 c 0
 473.46875 776.555664062 474 726.552734375 474 666 c 0
 474 663 473 661 469 661 c 2
 312 661 l 2
 308 661 307 664 307 667 c 0
 307 705.98021338 308.454234277 745.998235157 306.760358983 824 c 0
 305.595614865 877.635646669 295.649187459 895 282 895 c 256
 269 895 255 875 255 823 c 256
 255 524.863152285 490 600.909179688 490 231 c 256
 490 79 428 -18 258 -18 c 256
 73.0419921875 -18 17.65234375 64.8857421875 12.154296875 211 c 0
 10.3909507829 257.862096917 10 317.89453125 10 395 c 0
 10 398 10 399 14 399 c 2
EndSplineSet
EndChar

StartChar: t
Encoding: 116 116 57
Width: 357
VWidth: 960
Flags: HMW
AnchorPoint: "bottom" 254 0 basechar 0
LayerCount: 2
Fore
SplineSet
348 930 m 2
 -12 930 l 2
 -16 930 -18 931 -18 935 c 2
 -18 1045 l 2
 -18 1049 -16 1050 -12 1050 c 2
 348 1050 l 2
 352 1050 352 1049 352 1045 c 2
 352 935 l 2
 352 931 352 930 348 930 c 2
355 160 m 2
 355 5 l 2
 355 1 354 -1 350 -1 c 0
 106 -30 32 22 32 176 c 258
 32 1235 l 6
 32 1239 34 1240 38 1240 c 6
 270 1240 l 6
 274 1240 275 1239 275 1235 c 6
 275 211 l 258
 275 157 310 155 350 164 c 0
 353 165 355 163 355 160 c 2
EndSplineSet
EndChar

StartChar: u
Encoding: 117 117 58
Width: 582
VWidth: 960
Flags: HMW
AnchorPoint: "ogonek" 439 0 basechar 0
AnchorPoint: "bottom" 262 0 basechar 0
AnchorPoint: "top" 284 1050 basechar 0
LayerCount: 2
Fore
SplineSet
553 0 m 6
 323 0 l 6
 319 0 317 1 317 5 c 6
 317 182 l 261
 313 195 l 261
 313 1045 l 6
 313 1049 313 1050 317 1050 c 6
 553 1050 l 6
 557 1050 557 1049 557 1045 c 6
 557 5 l 6
 557 1 557 0 553 0 c 6
337 174 m 261
 337 54 264 -18 170 -18 c 260
 66 -18 22 39 22 194 c 262
 22 1045 l 6
 22 1049 24 1050 28 1050 c 6
 262 1050 l 6
 266 1050 268 1049 268 1045 c 6
 268 218 l 262
 268 168 271 148 285 148 c 260
 303 148 313 183 313 288 c 261
 337 174 l 261
EndSplineSet
EndChar

StartChar: v
Encoding: 118 118 59
Width: 535
VWidth: 960
Flags: HMW
LayerCount: 2
Fore
SplineSet
288 319 m 261
 344 1045 l 6
 345 1049 347 1050 351 1050 c 6
 541 1050 l 6
 545 1050 546 1049 544 1045 c 6
 431 5 l 6
 429 1 428 0 424 0 c 6
 132 0 l 6
 128 0 127 1 125 5 c 6
 -14 1045 l 6
 -15 1049 -15 1050 -11 1050 c 6
 244 1050 l 6
 248 1050 250 1049 251 1045 c 6
 288 319 l 261
EndSplineSet
EndChar

StartChar: w
Encoding: 119 119 60
Width: 665
VWidth: 960
InSpiro: 1
Flags: HMW
LayerCount: 2
Fore
SplineSet
486 454 m 257
 510 1045 l 2
 511 1049 512 1050 516 1050 c 2
 661 1050 l 2
 665 1050 666 1049 665 1045 c 2
 598 5 l 2
 597 1 595 0 591 0 c 2
 374 0 l 2
 370 0 368 1 367 5 c 2
 344 459 l 257
 308 5 l 2
 307 1 305 0 301 0 c 2
 79 0 l 2
 75 0 73 1 72 5 c 2
 0 1045 l 2
 -1 1049 0 1050 4 1050 c 2
 224 1050 l 2
 228 1050 229 1049 230 1045 c 2
 246 469 l 257
 300 1045 l 2
 301 1049 302 1050 306 1050 c 2
 434 1050 l 2
 438 1050 439 1049 440 1045 c 2
 486 454 l 257
  Spiro
    486 454 v
    510 1045 ]
    511.11 1048.07 o
    512.891 1049.59 o
    516 1050 [
    661 1050 ]
    664.035 1049.59 o
    665.297 1048.07 o
    665 1045 [
    598 5 ]
    596.631 1.92815 o
    594.368 0.406519 o
    591 0 [
    374 0 ]
    370.632 0.406519 o
    368.369 1.92815 o
    367 5 [
    344 459 v
    308 5 ]
    306.631 1.92815 o
    304.368 0.406519 o
    301 0 [
    79 0 ]
    75.6324 0.406519 o
    73.3686 1.92815 o
    72 5 [
    0 1045 ]
    -0.29674 1048.07 o
    0.965075 1049.59 o
    4 1050 [
    224 1050 ]
    227.109 1049.59 o
    228.89 1048.07 o
    230 1045 [
    246 469 v
    300 1045 ]
    301.11 1048.07 o
    302.891 1049.59 o
    306 1050 [
    434 1050 ]
    437.109 1049.59 o
    438.89 1048.07 o
    440 1045 [
    0 0 z
  EndSpiro
EndSplineSet
EndChar

StartChar: x
Encoding: 120 120 61
Width: 563
VWidth: 960
Flags: HMW
LayerCount: 2
Fore
SplineSet
198 0 m 2
 -17 0 l 2
 -21 0 -22 1 -19 5 c 2
 133 508 l 261
 4 1045 l 2
 1 1049 1 1050 5 1050 c 2
 265 1050 l 2
 269 1050 271 1049 273 1045 c 2
 287 718 l 257
 330 1045 l 2
 332 1049 334 1050 338 1050 c 2
 553 1050 l 2
 557 1050 557 1049 554 1045 c 2
 408 507 l 261
 572 5 l 2
 575 1 574 0 570 0 c 2
 290 0 l 2
 286 0 284 1 282 5 c 2
 259 326 l 257
 216 5 l 2
 214 1 202 0 198 0 c 2
EndSplineSet
EndChar

StartChar: y
Encoding: 121 121 62
Width: 545
VWidth: 960
Flags: HMW
AnchorPoint: "top" 281.444 1050 basechar 0
LayerCount: 2
Fore
SplineSet
290.444335938 281 m 261
 354.444335938 1045 l 2
 355.444335938 1048 357.444335938 1050 361.444335938 1050 c 2
 551.444335938 1050 l 2
 555.444335938 1050 555.444335938 1048 554.444335938 1045 c 2
 420.444335938 -130 l 258
 394.809570312 -363.499023438 207.444335938 -419 -10.5556640625 -316 c 0
 -16.0556640625 -313.401367188 -18.5556640625 -314 -18.5556640625 -310 c 2
 -18.5556640625 -75 l 2
 -18.5556640625 -72 -16.2509765625 -69.482421875 -12.5556640625 -72 c 0
 56.4443359375 -119 140.444335938 -162 157.444335938 -105 c 257
 -14.5556640625 1045 l 2
 -15.5556640625 1048 -15.5556640625 1050 -11.5556640625 1050 c 2
 238.444335938 1050 l 2
 242.444335938 1050 244.444335938 1048 245.444335938 1045 c 2
 290.444335938 281 l 261
EndSplineSet
EndChar

StartChar: z
Encoding: 122 122 63
Width: 490
VWidth: 960
Flags: HMW
AnchorPoint: "top" 240 1050 basechar 0
LayerCount: 2
Fore
SplineSet
-10 5 m 2
 212 875 l 5
 26 875 l 2
 22 875 21 876 21 880 c 2
 21 1045 l 2
 21 1049 22 1050 26 1050 c 2
 496 1050 l 2
 500 1050 501 1049 498 1045 c 2
 296 175 l 1
 466 175 l 2
 470 175 471 174 471 170 c 2
 471 5 l 2
 471 2 470 0 466 0 c 2
 -9 0 l 2
 -13 0 -13 1 -10 5 c 2
EndSplineSet
EndChar

StartChar: comma
Encoding: 44 44 65
Width: 400
VWidth: 1920
Flags: HMW
LayerCount: 2
Back
SplineSet
315 0 m 6
 85 0 l 6
 78 0 75 3 75 10 c 6
 75 350 l 6
 75 357 78 360 85 360 c 6
 315 360 l 6
 322 360 325 357 325 350 c 6
 325 10 l 6
 325 3 322 0 315 0 c 6
EndSplineSet
Fore
SplineSet
93 -310 m 14
 57 -310 l 22
 50 -310 46.5590180776 -307.646626494 50 -300 c 14
 175 0 l 261
 85 0 l 6
 76.4794921875 0 75 1.404296875 75 10 c 6
 75 350 l 6
 75 357 78 360 85 360 c 6
 315 360 l 6
 322 360 325 357 325 350 c 6
 325 20 l 6
 325 13 324.279899046 8.56199845291 319 0 c 6
 114 -300 l 22
 109.061523438 -308.140625 101 -310 93 -310 c 14
EndSplineSet
EndChar

StartChar: exclam
Encoding: 33 33 67
Width: 400
VWidth: 1920
Flags: HMW
LayerCount: 2
Fore
SplineSet
315 0 m 6
 85 0 l 6
 78 0 75 3 75 10 c 6
 75 350 l 6
 75 357 78 360 85 360 c 6
 315 360 l 6
 322 360 325 357 325 350 c 6
 325 10 l 6
 325 3 322 0 315 0 c 6
45 950 m 6
 45 1440 l 6
 45 1447 48 1450 55 1450 c 6
 345 1450 l 6
 352 1450 355 1447 355 1440 c 6
 355 950 l 6
 355 943 354.817382812 936.903320312 354 930 c 6
 256 510 l 6
 255.182617188 503.096679688 252 500 245 500 c 6
 155 500 l 6
 148 500 144.817382812 503.096679688 144 510 c 6
 46 930 l 6
 45.1826171875 936.903320312 45 943 45 950 c 6
EndSplineSet
EndChar

StartChar: quotesingle
Encoding: 39 39 70
Width: 360
VWidth: 1920
Flags: HMW
LayerCount: 2
Fore
SplineSet
210 830 m 2
 140 830 l 2
 133 830 129.159179688 833.197265625 128 840 c 2
 72 1160 l 2
 70.8408203125 1166.80273438 70 1173 70 1180 c 2
 70 1410 l 2
 70 1417 73 1420 80 1420 c 2
 280 1420 l 2
 287 1420 290 1417 290 1410 c 2
 290 1180 l 2
 290 1173 289.159179688 1166.80273438 288 1160 c 2
 222 840 l 2
 220.840820312 833.197265625 217 830 210 830 c 2
EndSplineSet
EndChar

StartChar: question
Encoding: 63 63 71
Width: 600
VWidth: 1920
Flags: HMW
LayerCount: 2
Fore
SplineSet
408 0 m 6
 178 0 l 6
 171 0 168 3 168 10 c 6
 168 350 l 6
 168 357 171 360 178 360 c 6
 408 360 l 6
 415 360 418 357 418 350 c 6
 418 10 l 6
 418 3 415 0 408 0 c 6
  Spiro
    408 0 [
    178 0 ]
    172.301 1.03493 o
    169.035 4.30074 o
    168 10 [
    168 350 ]
    169.035 355.699 o
    172.301 358.965 o
    178 360 [
    408 360 ]
    413.699 358.965 o
    416.965 355.699 o
    418 350 [
    418 10 ]
    416.965 4.30074 o
    413.699 1.03493 o
    0 0 z
  EndSpiro
348 430 m 2
 203 430 l 2
 199 430 197.254882812 432.010742188 197 435 c 0
 176 681 305 690 305 877 c 258
 305 1178 l 258
 305 1273 298 1291 280 1291 c 256
 260 1291 255 1266 255 1170 c 258
 255 957 l 2
 255 953 255 952 251 952 c 2
 21 952 l 2
 17 952 15 953 15 957 c 2
 15 1205 l 258
 15 1347 95 1467 293 1467 c 256
 491 1467 585 1361 585 1221 c 258
 585 934 l 258
 585 652 398 662 354 434 c 0
 353.576171875 431.8046875 351 430 348 430 c 2
EndSplineSet
EndChar

StartChar: parenleft
Encoding: 40 40 72
Width: 332
VWidth: 2048
Flags: HMW
LayerCount: 2
Fore
SplineSet
10 1228 m 262
 10 1430 95 1590 310 1618 c 4
 314 1619 315 1618 315 1614 c 6
 315 1504 l 6
 315 1501 313 1499 310 1497 c 4
 261 1471 248 1413 248 1213 c 262
 248 37 l 262
 248 -163 261 -221 310 -247 c 4
 313 -249 315 -251 315 -254 c 6
 315 -364 l 6
 315 -368 314 -369 310 -368 c 4
 95 -340 10 -180 10 22 c 262
 10 1228 l 262
EndSplineSet
EndChar

StartChar: parenright
Encoding: 41 41 73
Width: 332
VWidth: 2048
Flags: HMW
LayerCount: 2
Fore
SplineSet
322 22 m 258
 322 -180 237 -340 22 -368 c 0
 18 -369 17 -368 17 -364 c 2
 17 -254 l 2
 17 -251 19 -249 22 -247 c 0
 71 -221 84 -163 84 37 c 258
 84 1213 l 258
 84 1413 71 1471 22 1497 c 0
 19 1499 17 1501 17 1504 c 2
 17 1614 l 2
 17 1618 18 1619 22 1618 c 0
 237 1590 322 1430 322 1228 c 258
 322 22 l 258
EndSplineSet
EndChar

StartChar: asterisk
Encoding: 42 42 74
Width: 644
VWidth: 2048
Flags: HMW
LayerCount: 2
Back
SplineSet
678.00390625 920 m 261
 608.00390625 920 l 261
 409.00390625 1320 l 6
 408.00390625 1327 408.00390625 1333 409.00390625 1340 c 6
 417.00390625 1510 l 6
 418.00390625 1517 421.00390625 1520 428.00390625 1520 c 6
 858.00390625 1520 l 6
 865.00390625 1520 868.00390625 1517 869.00390625 1510 c 6
 877.00390625 1340 l 6
 878.00390625 1333 878.00390625 1327 877.00390625 1320 c 6
 678.00390625 920 l 261
EndSplineSet
Fore
SplineSet
328 1204 m 257
 316 1236 l 257
 475 1393 l 2
 478 1395 481 1396 485 1396 c 2
 568 1419 l 2
 572 1419 573 1419 574 1415 c 2
 641 1210 l 2
 642 1206 640 1206 637 1204 c 2
 558 1174 l 2
 555 1172 552 1171 548 1171 c 2
 328 1204 l 257
307 1210 m 257
 335 1231 l 257
 533 1128 l 2
 535 1126 537 1123 539 1120 c 2
 586 1048 l 2
 588 1045 588 1043 585 1041 c 2
 411 914 l 2
 408 912 405 914 403 916 c 2
 350 982 l 2
 348 984 346 987 344 990 c 2
 307 1210 l 257
308 1230 m 257
 336 1210 l 257
 299 990 l 2
 297 987 295 984 293 982 c 2
 240 915 l 2
 238 913 236 912 233 914 c 2
 59 1040 l 2
 56 1042 55 1045 57 1048 c 2
 104 1119 l 2
 106 1122 108 1125 110 1127 c 2
 308 1230 l 257
327 1236 m 257
 316 1203 l 257
 95 1170 l 2
 91 1170 89 1172 86 1174 c 2
 6 1204 l 2
 3 1206 2 1206 3 1210 c 2
 69 1414 l 2
 70 1418 72 1418 76 1418 c 2
 158 1396 l 2
 162 1396 164 1394 167 1392 c 2
 327 1236 l 257
339 1220 m 257
 304 1220 l 257
 205 1420 l 2
 205 1424 205 1426 205 1430 c 2
 209 1515 l 2
 209 1519 210 1520 214 1520 c 2
 429 1520 l 2
 433 1520 435 1519 435 1515 c 2
 439 1430 l 2
 439 1426 439 1424 439 1420 c 2
 339 1220 l 257
EndSplineSet
EndChar

StartChar: at
Encoding: 64 64 75
Width: 935
VWidth: 1920
Flags: HMW
LayerCount: 2
Fore
SplineSet
522 199 m 257
 522 54 534 -17 400 -17 c 256
 292 -17 208 41 208 211 c 258
 208 838 l 258
 208 998 298 1067 416 1067 c 256
 544 1067 552 996 552 851 c 257
 478 841 l 257
 478 891 476 921 453 921 c 256
 429 921 428 901 428 851 c 258
 428 199 l 258
 428 149 429 128 453 128 c 256
 476 128 478 159 478 209 c 257
 522 199 l 257
616 -324 m 0
 582 -354 522 -377 442 -377 c 256
 124 -377 50 -191 50 49 c 258
 50 990 l 258
 50 1245 214 1417 482 1417 c 256
 786 1417 885 1212 885 1016 c 258
 885 235 l 258
 885 55 799 -17 685 -17 c 256
 581 -17 478 55 478 165 c 258
 478 961 l 257
 619 1061 l 2
 622.412109375 1063.41992188 627 1067 631 1067 c 2
 692 1067 l 2
 696 1067 698 1065 698 1061 c 2
 698 231 l 258
 698 134 711 103 745 103 c 256
 773 103 795 135 795 235 c 258
 795 1016 l 258
 795 1186 706 1347 482 1347 c 256
 278 1347 145 1206 145 996 c 258
 145 45 l 258
 145 -145 184 -307 442 -307 c 256
 498 -307 554 -287 590 -259 c 0
 594 -256 596 -257 597 -261 c 2
 618 -315 l 2
 619 -319 619 -321 616 -324 c 0
EndSplineSet
EndChar

StartChar: dollar
Encoding: 36 36 76
Width: 564
VWidth: 1920
Flags: HMW
LayerCount: 2
Fore
SplineSet
14 488 m 2
 200 488 l 2
 201 488 204 487 204 480 c 2
 204 320 l 2
 204 206 204 155 274 155 c 256
 328 155 344 217 344 338 c 256
 344 462 312.666992188 561.213867188 234 644 c 256
 98.001953125 787.119140625 12 875 12 1123 c 256
 12 1303 83 1435 264 1435 c 256
 446 1435 520 1336 520 1121 c 2
 520 971 l 2
 520 964 517 963 514 963 c 2
 350 963 l 2
 347 963 344 964 344 971 c 2
 344 1131 l 2
 344 1206 327 1265 269 1265 c 256
 233 1265 210 1203 210 1113 c 256
 210 1062 215.034179688 911.638671875 328 812 c 256
 464.47265625 691.627929688 554 597 554 348 c 256
 554 71 464 -35 264 -35 c 260
 80 -35 10 63 10 319 c 2
 10 479 l 2
 10 486 13 488 14 488 c 2
255 1590 m 2
 285 1590 l 2
 289 1590 290 1587 290 1580 c 2
 290 -180 l 2
 290 -187 289 -190 285 -190 c 2
 255 -190 l 2
 251 -190 250 -187 250 -180 c 2
 250 1580 l 2
 250 1587 251 1590 255 1590 c 2
EndSplineSet
EndChar

StartChar: numbersign
Encoding: 35 35 77
Width: 805
VWidth: 1920
Flags: HMW
LayerCount: 2
Fore
SplineSet
5 545 m 6
 760 545 l 6
 763.5 545 765 543.5 765 540 c 6
 765 395 l 6
 765 391.5 764 390 760 390 c 6
 5 390 l 6
 1.5 390 0 391.5 0 395 c 6
 0 540 l 6
 0 543.5 1.5 545 5 545 c 6
45 1050 m 2
 800 1050 l 2
 803.5 1050 805 1048.5 805 1045 c 2
 805 900 l 2
 805 896.5 803.5 895 800 895 c 2
 45 895 l 2
 41.5 895 40 896.5 40 900 c 2
 40 1045 l 2
 40 1048.5 41.5 1050 45 1050 c 2
515 1400 m 2
 730 1400 l 2
 735 1400 735 1398.5 734 1395 c 2
 571 5 l 2
 570 1.5 570 0 565 0 c 2
 350 0 l 2
 345 0 345 1.5 346 5 c 2
 509 1395 l 2
 510 1398.5 510 1400 515 1400 c 2
230 1400 m 2
 445 1400 l 2
 448.5 1400 450 1398.5 449 1395 c 2
 286 5 l 2
 285 1.5 283.5 0 280 0 c 2
 65 0 l 2
 61.5 0 60 1.5 61 5 c 2
 224 1395 l 2
 225 1398.5 226.5 1400 230 1400 c 2
EndSplineSet
EndChar

StartChar: slash
Encoding: 47 47 78
Width: 520
VWidth: 2048
Flags: HMW
LayerCount: 2
Fore
SplineSet
498 1395 m 6
 190 -95 l 2
 188 -99 186 -100 182 -100 c 2
 12 -100 l 2
 8 -100 8 -99 10 -95 c 2
 318 1395 l 6
 320 1399 322 1400 325 1400 c 6
 495 1400 l 6
 499 1400 500 1399 498 1395 c 6
EndSplineSet
EndChar

StartChar: percent
Encoding: 37 37 79
Width: 927
VWidth: 2048
Flags: HMW
LayerCount: 2
Fore
SplineSet
25 1042 m 262
 25 1209 l 262
 25 1344 104 1418 242 1418 c 260
 380 1418 465 1344 465 1209 c 262
 465 1042 l 262
 465 907 380 832 242 832 c 260
 104 832 25 907 25 1042 c 262
212 1026 m 262
 212 966 214 942 242 942 c 260
 270 942 278 966 278 1026 c 262
 278 1224 l 262
 278 1284 270 1308 242 1308 c 260
 214 1308 212 1284 212 1224 c 262
 212 1026 l 262
463 192 m 262
 463 359 l 262
 463 494 542 568 680 568 c 260
 818 568 903 494 903 359 c 262
 903 192 l 262
 903 57 818 -18 680 -18 c 260
 542 -18 463 57 463 192 c 262
650 176 m 262
 650 116 652 92 680 92 c 260
 708 92 716 116 716 176 c 262
 716 374 l 262
 716 434 708 458 680 458 c 260
 652 458 650 434 650 374 c 262
 650 176 l 262
890 1395 m 6
 218 5 l 6
 216 1 214 0 210 0 c 6
 40 0 l 6
 36 0 36 1 38 5 c 6
 710 1395 l 6
 712 1399 714 1400 718 1400 c 6
 888 1400 l 6
 892 1400 892 1399 890 1395 c 6
EndSplineSet
EndChar

StartChar: hyphen
Encoding: 45 45 80
Width: 285
VWidth: 1920
Flags: HMW
LayerCount: 2
Fore
SplineSet
20 528.75 m 10
 20 696.25 l 18
 20 699.75 21.5 701.25 25 701.25 c 10
 260 701.25 l 18
 263.5 701.25 265 699.75 265 696.25 c 10
 265 528.75 l 18
 265 525.25 263.5 523.75 260 523.75 c 10
 25 523.75 l 18
 21.5 523.75 20 525.25 20 528.75 c 10
EndSplineSet
EndChar

StartChar: underscore
Encoding: 95 95 81
Width: 450
VWidth: 1920
Flags: HMW
LayerCount: 2
Fore
SplineSet
0 -172 m 14
 0 -5 l 22
 0 -1 1 0 5 0 c 14
 445 0 l 22
 449 0 450 -1 450 -5 c 14
 450 -172 l 22
 450 -176 449 -178 445 -178 c 14
 5 -178 l 22
 1 -178 0 -176 0 -172 c 14
EndSplineSet
EndChar

StartChar: plus
Encoding: 43 43 82
Width: 520
VWidth: 1920
Flags: HMW
LayerCount: 2
Fore
SplineSet
22 602 m 14
 22 770 l 18
 22 774 24 775 28 775 c 10
 492 775 l 18
 496 775 498 774 498 770 c 10
 498 602 l 22
 498 598 496 598 492 598 c 14
 28 598 l 22
 24 598 22 598 22 602 c 14
178 935 m 10
 342 935 l 18
 346 935 348 934 348 930 c 10
 348 430 l 18
 348 426 346 425 342 425 c 10
 178 425 l 18
 174 425 172 426 172 430 c 10
 172 930 l 18
 172 934 174 935 178 935 c 10
EndSplineSet
EndChar

StartChar: equal
Encoding: 61 61 83
Width: 590
VWidth: 1920
Flags: HMW
LayerCount: 2
Fore
SplineSet
75 296 m 14
 75 464 l 22
 75 468 76 469 80 469 c 14
 510 469 l 22
 514 469 515 468 515 464 c 14
 515 296 l 22
 515 292 514 291 510 291 c 14
 80 291 l 22
 76 291 75 292 75 296 c 14
75 531 m 14
 75 699 l 22
 75 703 76 704 80 704 c 14
 510 704 l 22
 514 704 515 703 515 699 c 14
 515 531 l 22
 515 527 514 526 510 526 c 14
 80 526 l 22
 76 526 75 527 75 531 c 14
EndSplineSet
EndChar

StartChar: less
Encoding: 60 60 84
Width: 505
VWidth: 1920
Flags: HMW
LayerCount: 2
Fore
SplineSet
406 343 m 2
 20 522 l 2
 16 524 16 526 16 530 c 2
 16 670 l 6
 16 674 16 676 20 678 c 6
 406 857 l 2
 410 859 410 859 410 855 c 2
 410 675 l 2
 410 671 410 669 406 667 c 2
 184 600 l 257
 406 533 l 2
 410 531 410 529 410 525 c 2
 410 345 l 2
 410 341 410 341 406 343 c 2
EndSplineSet
EndChar

StartChar: greater
Encoding: 62 62 85
Width: 505
VWidth: 1920
Flags: HMW
LayerCount: 2
Fore
SplineSet
100 857 m 2
 486 678 l 2
 490 676 490 674 490 670 c 2
 490 530 l 2
 490 526 490 524 486 522 c 2
 100 343 l 2
 96 341 96 341 96 345 c 2
 96 525 l 6
 96 529 96 531 100 533 c 6
 320 600 l 257
 100 667 l 2
 96 669 96 671 96 675 c 2
 96 855 l 2
 96 859 96 859 100 857 c 2
EndSplineSet
EndChar

StartChar: backslash
Encoding: 92 92 86
Width: 519
VWidth: 2048
Flags: HMW
LayerCount: 2
Fore
SplineSet
510 -95 m 2
 512 -99 511 -100 507 -100 c 2
 337 -100 l 2
 334 -100 332 -99 330 -95 c 2
 22 1395 l 2
 20 1399 21 1400 25 1400 c 2
 195 1400 l 2
 199 1400 200 1399 202 1395 c 2
 510 -95 l 2
EndSplineSet
EndChar

StartChar: bracketleft
Encoding: 91 91 87
Width: 380
VWidth: 1920
Flags: HMW
LayerCount: 2
Fore
SplineSet
235 1475 m 261
 235 -235 l 261
 350 -235 l 6
 354 -235 355 -236 355 -240 c 6
 355 -355 l 6
 355 -359 354 -360 350 -360 c 6
 40 -360 l 6
 36 -360 35 -359 35 -355 c 6
 35 1595 l 6
 35 1599 36 1600 40 1600 c 6
 350 1600 l 6
 354 1600 355 1599 355 1595 c 6
 355 1480 l 6
 355 1476 354 1475 350 1475 c 6
 235 1475 l 261
EndSplineSet
EndChar

StartChar: braceleft
Encoding: 123 123 88
Width: 388
VWidth: 2048
Flags: HMW
LayerCount: 2
Fore
SplineSet
78 1439 m 262
 78 1553 123 1599 332 1600 c 4
 336 1600 338 1599 338 1595 c 6
 338 1490 l 6
 338 1486 336 1485 332 1485 c 4
 282 1483 265 1456 265 1369 c 262
 265 788 l 262
 265 696 221 644 143 620 c 261
 221 596 265 544 265 452 c 262
 265 -124 l 262
 265 -210 283 -237 331 -240 c 4
 336 -240 338 -241 338 -245 c 6
 338 -355 l 6
 338 -359 336 -360 332 -360 c 4
 124 -358 78 -313 78 -199 c 262
 78 452 l 262
 78 518 59 545 11 561 c 4
 7 563 5 564 5 568 c 6
 5 672 l 6
 5 676 6 677 10 678 c 4
 60 694 78 721 78 788 c 262
 78 1439 l 262
EndSplineSet
EndChar

StartChar: bracketright
Encoding: 93 93 89
Width: 380
VWidth: 1920
Flags: HMW
LayerCount: 2
Fore
SplineSet
145 -235 m 257
 145 1475 l 257
 30 1475 l 2
 26 1475 25 1476 25 1480 c 2
 25 1595 l 2
 25 1599 26 1600 30 1600 c 2
 340 1600 l 2
 344 1600 345 1599 345 1595 c 2
 345 -355 l 2
 345 -359 344 -360 340 -360 c 2
 30 -360 l 2
 26 -360 25 -359 25 -355 c 2
 25 -240 l 2
 25 -236 26 -235 30 -235 c 2
 145 -235 l 257
EndSplineSet
EndChar

StartChar: braceright
Encoding: 125 125 90
Width: 388
VWidth: 2048
Flags: HMW
LayerCount: 2
Fore
SplineSet
310 -199 m 258
 310 -313 265 -359 56 -360 c 0
 52 -360 50 -359 50 -355 c 2
 50 -250 l 2
 50 -246 52 -245 56 -245 c 0
 106 -243 123 -216 123 -129 c 258
 123 452 l 258
 123 544 167 596 245 620 c 257
 167 644 123 696 123 788 c 258
 123 1364 l 258
 123 1450 105 1477 57 1480 c 0
 52 1480 50 1481 50 1485 c 2
 50 1595 l 2
 50 1599 52 1600 56 1600 c 0
 264 1598 310 1553 310 1439 c 258
 310 788 l 258
 310 722 329 695 377 679 c 0
 381 677 383 676 383 672 c 2
 383 568 l 2
 383 564 382 563 378 562 c 0
 328 546 310 519 310 452 c 258
 310 -199 l 258
EndSplineSet
EndChar

StartChar: bar
Encoding: 124 124 91
Width: 260
VWidth: 1920
Flags: HMW
LayerCount: 2
Fore
SplineSet
45 1600 m 14
 215 1600 l 22
 219 1600 220 1597 220 1590 c 14
 220 -350 l 22
 220 -357 219 -360 215 -360 c 14
 45 -360 l 22
 41 -360 40 -357 40 -350 c 14
 40 1590 l 22
 40 1597 41 1600 45 1600 c 14
EndSplineSet
EndChar

StartChar: asciitilde
Encoding: 126 126 92
Width: 664
VWidth: 2048
Flags: HMW
LayerCount: 2
Fore
SplineSet
210 562 m 256
 184 562 182 537 180 511 c 0
 180 508 177 507 174 507 c 2
 4 507 l 2
 0 507 0 508 0 511 c 0
 2 615 75 742 210 742 c 256
 354 742 403 644 454 644 c 260
 480 644 484 678 486 699 c 4
 486 702 487 704 490 704 c 6
 660 704 l 6
 664 704 664 703 664 699 c 4
 662 595 589 469 454 469 c 260
 310 469 261 562 210 562 c 256
EndSplineSet
EndChar

StartChar: asciicircum
Encoding: 94 94 93
Width: 412
VWidth: 1920
InSpiro: 1
Flags: HMW
LayerCount: 2
Fore
SplineSet
205 1131 m 257
 177 740 l 2
 176 734 174 730 170 730 c 2
 -15 730 l 2
 -19 730 -19 734 -18 740 c 2
 118 1390 l 2
 120 1399 121 1400 125 1400 c 2
 285 1400 l 2
 289 1400 290 1399 292 1390 c 2
 428 740 l 2
 430 734 431 730 425 730 c 2
 240 730 l 2
 235 730 234 734 233 740 c 2
 205 1131 l 257
EndSplineSet
EndChar

StartChar: figuredash
Encoding: 8210 8210 108
Width: 575
VWidth: 2048
Flags: HMW
LayerCount: 2
Fore
SplineSet
20 528.75 m 10
 20 696.25 l 22
 20 699.75 21.5 701.25 25 701.25 c 14
 550 701.25 l 22
 553.5 701.25 555 699.75 555 696.25 c 14
 555 528.75 l 18
 555 525.25 553.5 523.75 550 523.75 c 10
 25 523.75 l 18
 21.5 523.75 20 525.25 20 528.75 c 10
EndSplineSet
EndChar

StartChar: endash
Encoding: 8211 8211 109
Width: 550
VWidth: 2048
Flags: HMW
LayerCount: 2
Fore
SplineSet
20 528.75 m 10
 20 696.25 l 22
 20 699.75 21.5 701.25 25 701.25 c 14
 525 701.25 l 22
 528.5 701.25 530 699.75 530 696.25 c 14
 530 528.75 l 18
 530 525.25 528.5 523.75 525 523.75 c 10
 25 523.75 l 18
 21.5 523.75 20 525.25 20 528.75 c 10
EndSplineSet
EndChar

StartChar: emdash
Encoding: 8212 8212 110
Width: 1100
VWidth: 2048
Flags: HMW
LayerCount: 2
Fore
SplineSet
20 528.75 m 14
 20 696.25 l 18
 20 699.75 21.5 701.25 25 701.25 c 10
 1075 701.25 l 18
 1078.5 701.25 1080 699.75 1080 696.25 c 10
 1080 528.75 l 22
 1080 525.25 1078.5 523.75 1075 523.75 c 14
 25 523.75 l 22
 21.5 523.75 20 525.25 20 528.75 c 14
EndSplineSet
EndChar

StartChar: uni2015
Encoding: 8213 8213 111
Width: 1180
VWidth: 2048
Flags: HMW
LayerCount: 2
Fore
SplineSet
20 528.75 m 10
 20 696.25 l 22
 20 699.75 21.5 701.25 25 701.25 c 14
 1155 701.25 l 22
 1158.5 701.25 1160 699.75 1160 696.25 c 14
 1160 528.75 l 18
 1160 525.25 1158.5 523.75 1155 523.75 c 10
 25 523.75 l 18
 21.5 523.75 20 525.25 20 528.75 c 10
EndSplineSet
EndChar

StartChar: quoteleft
Encoding: 8216 8216 114
Width: 400
VWidth: 1920
Flags: HMW
LayerCount: 2
Fore
SplineSet
307 1435 m 10
 343 1435 l 18
 350 1435 353.44140625 1432.64648438 350 1425 c 10
 225 1125 l 257
 315 1125 l 2
 323.520507812 1125 325 1123.59570312 325 1115 c 2
 325 775 l 2
 325 768 322 765 315 765 c 2
 85 765 l 2
 78 765 75 768 75 775 c 2
 75 1105 l 2
 75 1112 75.7197265625 1116.43847656 81 1125 c 2
 286 1425 l 18
 290.938476562 1433.140625 299 1435 307 1435 c 10
EndSplineSet
EndChar

StartChar: quotereversed
Encoding: 8219 8219 117
Width: 400
VWidth: 1920
Flags: HMW
LayerCount: 2
Fore
SplineSet
307 730 m 18
 299 730 290.938476562 731.859375 286 740 c 10
 81 1040 l 2
 75.7197265625 1048.56152344 75 1053 75 1060 c 2
 75 1390 l 2
 75 1397 78 1400 85 1400 c 2
 315 1400 l 2
 322 1400 325 1397 325 1390 c 2
 325 1050 l 2
 325 1041.40429688 323.520507812 1040 315 1040 c 2
 225 1040 l 257
 350 740 l 18
 353.44140625 732.353515625 350 730 343 730 c 10
 307 730 l 18
EndSplineSet
EndChar

StartChar: bullet
Encoding: 8226 8226 120
Width: 395
VWidth: 2048
Flags: HMW
LayerCount: 2
Fore
SplineSet
25 722 m 262
 25 769 l 262
 25 864 97 922 195 922 c 260
 293 922 370 864 370 769 c 262
 370 722 l 262
 370 627 293 568 195 568 c 260
 97 568 25 627 25 722 c 262
EndSplineSet
EndChar

StartChar: dagger
Encoding: 8224 8224 124
Width: 554
VWidth: 1920
Flags: HMW
LayerCount: 2
Fore
SplineSet
20 928 m 14
 20 1045 l 22
 20 1049 20 1050 24 1050 c 14
 530 1050 l 22
 534 1050 534 1049 534 1045 c 14
 534 928 l 22
 534 924 534 922 530 922 c 14
 24 922 l 22
 20 922 20 924 20 928 c 14
160 1400 m 14
 394 1400 l 22
 398 1400 400 1399 400 1395 c 14
 400 5 l 22
 400 1 398 0 394 0 c 14
 160 0 l 22
 156 0 154 1 154 5 c 14
 154 1395 l 22
 154 1399 156 1400 160 1400 c 14
EndSplineSet
EndChar

StartChar: daggerdbl
Encoding: 8225 8225 125
Width: 554
VWidth: 1920
Flags: HMW
LayerCount: 2
Fore
SplineSet
20 6 m 14
 20 123 l 22
 20 127 20 128 24 128 c 14
 530 128 l 22
 534 128 534 127 534 123 c 14
 534 6 l 22
 534 2 534 0 530 0 c 14
 24 0 l 22
 20 0 20 2 20 6 c 14
20 928 m 10
 20 1045 l 18
 20 1049 20 1050 24 1050 c 10
 530 1050 l 18
 534 1050 534 1049 534 1045 c 10
 534 928 l 18
 534 924 534 922 530 922 c 10
 24 922 l 18
 20 922 20 924 20 928 c 10
160 1400 m 10
 394 1400 l 18
 398 1400 400 1399 400 1395 c 10
 400 -355 l 18
 400 -359 398 -360 394 -360 c 10
 160 -360 l 18
 156 -360 154 -359 154 -355 c 10
 154 1395 l 18
 154 1399 156 1400 160 1400 c 10
EndSplineSet
EndChar

StartChar: perthousand
Encoding: 8240 8240 126
Width: 1417
VWidth: 2048
Flags: HMW
LayerCount: 2
Fore
SplineSet
953 192 m 262
 953 359 l 262
 953 494 1032 568 1170 568 c 260
 1308 568 1393 494 1393 359 c 262
 1393 192 l 262
 1393 57 1308 -18 1170 -18 c 260
 1032 -18 953 57 953 192 c 262
1140 176 m 262
 1140 116 1142 92 1170 92 c 260
 1198 92 1206 116 1206 176 c 262
 1206 374 l 262
 1206 434 1198 458 1170 458 c 260
 1142 458 1140 434 1140 374 c 262
 1140 176 l 262
25 1042 m 262
 25 1209 l 262
 25 1344 104 1418 242 1418 c 260
 380 1418 465 1344 465 1209 c 262
 465 1042 l 262
 465 907 380 832 242 832 c 260
 104 832 25 907 25 1042 c 262
212 1026 m 262
 212 966 214 942 242 942 c 260
 270 942 278 966 278 1026 c 262
 278 1224 l 262
 278 1284 270 1308 242 1308 c 260
 214 1308 212 1284 212 1224 c 262
 212 1026 l 262
463 192 m 262
 463 359 l 262
 463 494 542 568 680 568 c 260
 818 568 903 494 903 359 c 262
 903 192 l 262
 903 57 818 -18 680 -18 c 260
 542 -18 463 57 463 192 c 262
650 176 m 262
 650 116 652 92 680 92 c 260
 708 92 716 116 716 176 c 262
 716 374 l 262
 716 434 708 458 680 458 c 260
 652 458 650 434 650 374 c 262
 650 176 l 262
890 1395 m 6
 218 5 l 6
 216 1 214 0 210 0 c 6
 40 0 l 6
 36 0 36 1 38 5 c 6
 710 1395 l 6
 712 1399 714 1400 718 1400 c 6
 888 1400 l 6
 892 1400 892 1399 890 1395 c 6
EndSplineSet
EndChar

StartChar: uni2031
Encoding: 8241 8241 127
Width: 1907
VWidth: 2048
Flags: HMW
LayerCount: 2
Fore
SplineSet
1443 192 m 262
 1443 359 l 262
 1443 494 1522 568 1660 568 c 260
 1798 568 1883 494 1883 359 c 262
 1883 192 l 262
 1883 57 1798 -18 1660 -18 c 260
 1522 -18 1443 57 1443 192 c 262
1630 176 m 262
 1630 116 1632 92 1660 92 c 260
 1688 92 1696 116 1696 176 c 262
 1696 374 l 262
 1696 434 1688 458 1660 458 c 260
 1632 458 1630 434 1630 374 c 262
 1630 176 l 262
953 192 m 258
 953 359 l 258
 953 494 1032 568 1170 568 c 256
 1308 568 1393 494 1393 359 c 258
 1393 192 l 258
 1393 57 1308 -18 1170 -18 c 256
 1032 -18 953 57 953 192 c 258
1140 176 m 258
 1140 116 1142 92 1170 92 c 256
 1198 92 1206 116 1206 176 c 258
 1206 374 l 258
 1206 434 1198 458 1170 458 c 256
 1142 458 1140 434 1140 374 c 258
 1140 176 l 258
25 1042 m 258
 25 1209 l 258
 25 1344 104 1418 242 1418 c 256
 380 1418 465 1344 465 1209 c 258
 465 1042 l 258
 465 907 380 832 242 832 c 256
 104 832 25 907 25 1042 c 258
212 1026 m 258
 212 966 214 942 242 942 c 256
 270 942 278 966 278 1026 c 258
 278 1224 l 258
 278 1284 270 1308 242 1308 c 256
 214 1308 212 1284 212 1224 c 258
 212 1026 l 258
463 192 m 258
 463 359 l 258
 463 494 542 568 680 568 c 256
 818 568 903 494 903 359 c 258
 903 192 l 258
 903 57 818 -18 680 -18 c 256
 542 -18 463 57 463 192 c 258
650 176 m 258
 650 116 652 92 680 92 c 256
 708 92 716 116 716 176 c 258
 716 374 l 258
 716 434 708 458 680 458 c 256
 652 458 650 434 650 374 c 258
 650 176 l 258
890 1395 m 2
 218 5 l 2
 216 1 214 0 210 0 c 2
 40 0 l 2
 36 0 36 1 38 5 c 2
 710 1395 l 2
 712 1399 714 1400 718 1400 c 2
 888 1400 l 2
 892 1400 892 1399 890 1395 c 2
EndSplineSet
EndChar

StartChar: fraction
Encoding: 8260 8260 128
Width: 580
VWidth: 1920
Flags: HMW
LayerCount: 2
Fore
SplineSet
405 1303 m 2
 517 1263 l 2
 520.10220865 1261.89206834 519.927850878 1259.1694478 519 1256 c 10
 192 139 l 18
 191.072149122 135.8305522 188.10220865 135.892068339 185 137 c 10
 73 177 l 18
 69.89779135 178.107931661 70.0721491222 180.8305522 71 184 c 10
 398 1301 l 18
 398.927850878 1304.1694478 402.339366516 1303.95022624 405 1303 c 2
EndSplineSet
EndChar

StartChar: uni2074
Encoding: 8308 8308 129
Width: 349
VWidth: 1920
Flags: HMW
LayerCount: 2
Fore
SplineSet
349 927 m 2
 349 828 l 2
 349 826 348 825 346 825 c 2
 292 825 l 257
 292 633 l 2
 292 631 291 630 289 630 c 2
 148 630 l 2
 146 630 145 631 145 633 c 2
 145 825 l 257
 13 825 l 2
 11 825 10 826 10 828 c 2
 10 957 l 2
 10 959 11 966 12 969 c 2
 137 1467 l 2
 138 1469 140 1470 142 1470 c 2
 289 1470 l 2
 291 1470 292 1469 292 1467 c 2
 292 930 l 257
 346 930 l 2
 348 930 349 929 349 927 c 2
148 930 m 257
 148 1230 l 257
 89 930 l 257
 148 930 l 257
EndSplineSet
EndChar

StartChar: uni2073
Encoding: 8307 8307 130
Width: 354
VWidth: 1920
Flags: HMW
LayerCount: 2
Fore
SplineSet
20 904 m 2
 161 904 l 2
 163 904 164 902 164 900 c 2
 164 788 l 2
 164 752 164 725 178 725 c 0
 192 725 193 747 193 786 c 2
 193 956 l 2
 193 983 190 1002 161 1002 c 2
 137 1002 l 2
 135 1002 134 1003 134 1005 c 2
 134 1104 l 2
 134 1106 135 1107 137 1107 c 2
 155 1107 l 2
 181 1107 188 1119 188 1143 c 2
 188 1322 l 2
 188 1358 186 1374 173 1374 c 0
 160 1374 159 1354 159 1323 c 2
 159 1204 l 2
 159 1202 159 1201 157 1201 c 2
 19 1201 l 2
 17 1201 15 1202 15 1204 c 2
 15 1341 l 2
 15 1411 54 1480 176 1480 c 0
 298 1480 337 1408 337 1339 c 2
 337 1181 l 2
 337 1082 280 1050 173 1050 c 1
 179 1065 l 1
 286 1065 339 1035 339 930 c 2
 339 788 l 2
 339 686 298 619 161 619 c 0
 43 619 17 681 17 770 c 2
 17 900 l 2
 17 902 18 904 20 904 c 2
EndSplineSet
EndChar

StartChar: uni2072
Encoding: 8306 8306 131
Width: 360
VWidth: 1920
Flags: HMW
LayerCount: 2
Fore
SplineSet
15 655 m 258
 15 938 191 991 191 1200 c 258
 191 1333 l 258
 191 1369 189 1383 178 1383 c 256
 168 1383 167 1368 167 1334 c 258
 167 1128 l 2
 167 1126 165 1125 163 1125 c 2
 25 1125 l 2
 23 1125 23 1126 23 1128 c 2
 23 1316 l 258
 23 1416 67 1488 186 1488 c 256
 284 1488 335 1424 335 1328 c 258
 335 1237 l 258
 335 992 162 887 162 751 c 258
 162 748 l 257
 342 748 l 2
 344 748 345 747 345 745 c 2
 345 640 l 2
 345 638 344 637 342 637 c 2
 18 637 l 2
 16 637 15 638 15 640 c 2
 15 655 l 258
EndSplineSet
EndChar

StartChar: uni2070
Encoding: 8304 8304 132
Width: 389
VWidth: 1920
Flags: HMW
LayerCount: 2
Fore
SplineSet
25 777 m 258
 25 1324 l 258
 25 1422 74 1481 195 1481 c 256
 316 1481 364 1422 364 1324 c 258
 364 777 l 258
 364 679 316 620 195 620 c 256
 74 620 25 679 25 777 c 258
172 783 m 258
 172 739 176 722 195 722 c 256
 214 722 217 739 217 783 c 258
 217 1318 l 258
 217 1362 214 1379 195 1379 c 256
 176 1379 172 1362 172 1318 c 258
 172 783 l 258
EndSplineSet
EndChar

StartChar: uni2075
Encoding: 8309 8309 133
Width: 382
VWidth: 1920
Flags: HMW
LayerCount: 2
Fore
SplineSet
33 842 m 2
 168 842 l 2
 170 842 171 841 171 839 c 0
 171 732 177 715 191 715 c 0
 208 715 210 739 210 851 c 2
 210 1002 l 2
 210 1056 209 1075 196 1075 c 0
 180 1075 180 1051 179 958 c 0
 179 955 176 955 174 955 c 2
 39 955 l 2
 37 955 35 956 36 958 c 2
 69 1460 l 2
 70 1462 70 1463 72 1463 c 2
 336 1463 l 2
 338 1463 340 1462 340 1460 c 2
 340 1417 l 2
 340 1381 324 1358 258 1358 c 2
 182 1358 l 1
 156 1040 l 1
 149 1040 l 1
 153 1143 186 1181 252 1181 c 0
 324 1181 357 1142 357 1014 c 2
 357 851 l 2
 357 675 302 613 179 613 c 0
 79 613 35 657 30 839 c 0
 30 841 31 842 33 842 c 2
EndSplineSet
EndChar

StartChar: uni2076
Encoding: 8310 8310 134
Width: 388
VWidth: 1920
Flags: HMW
LayerCount: 2
Fore
SplineSet
198 1033 m 256
 183 1033 180 1016 180 955 c 258
 180 937 l 257
 153 961 l 257
 153 1040 181 1108 252 1108 c 256
 338 1108 363 1047 363 941 c 258
 363 791 l 258
 363 672 319 622 201 622 c 256
 70 622 35 683 35 827 c 258
 35 1304 l 258
 35 1418 79 1481 195 1481 c 256
 314 1481 353 1421 353 1318 c 258
 353 1174 l 2
 353 1172 352 1171 350 1171 c 2
 215 1171 l 2
 213 1171 212 1172 212 1174 c 2
 212 1306 l 258
 212 1346 212 1376 196 1376 c 256
 181 1376 180 1347 180 1302 c 258
 180 807 l 258
 180 744 184 727 198 727 c 256
 216 727 216 745 216 805 c 258
 216 947 l 258
 216 1008 213 1033 198 1033 c 256
EndSplineSet
EndChar

StartChar: uni2077
Encoding: 8311 8311 135
Width: 280
VWidth: 1920
Flags: HMW
LayerCount: 2
Fore
SplineSet
295 1467 m 10
 181 633 l 18
 181 630 179 630 176 630 c 10
 24 630 l 18
 21 630 22 631 22 633 c 10
 168 1335 l 25
 2 1335 l 18
 0 1335 0 1335 0 1338 c 10
 0 1467 l 18
 0 1470 0 1470 2 1470 c 10
 293 1470 l 18
 295 1470 295 1469 295 1467 c 10
EndSplineSet
EndChar

StartChar: uni2078
Encoding: 8312 8312 136
Width: 404
VWidth: 1920
Flags: HMW
LayerCount: 2
Fore
SplineSet
203 724 m 256
 221 724 225 737 225 760 c 258
 225 971 l 258
 225 994 221 1008 203 1008 c 256
 185 1008 180 994 180 971 c 258
 180 760 l 258
 180 737 185 724 203 724 c 256
203 1113 m 256
 218 1113 222 1124 222 1141 c 258
 222 1353 l 258
 222 1367 217 1377 203 1377 c 256
 189 1377 182 1367 182 1353 c 258
 182 1141 l 258
 182 1124 188 1113 203 1113 c 256
212 1068 m 257
 341 1068 372 1016 372 928 c 258
 372 765 l 258
 372 673 340 620 203 620 c 256
 81 620 32 673 32 765 c 258
 32 928 l 258
 32 1016 79 1068 193 1068 c 257
 194 1056 l 257
 84 1058 36 1104 36 1200 c 258
 36 1333 l 258
 36 1430 93 1481 203 1481 c 256
 328 1481 369 1430 369 1333 c 258
 369 1200 l 258
 369 1104 336 1058 211 1056 c 257
 212 1068 l 257
EndSplineSet
EndChar

StartChar: uni2079
Encoding: 8313 8313 137
Width: 388
VWidth: 1920
Flags: HMW
LayerCount: 2
Fore
SplineSet
190 1067 m 256
 205 1067 208 1084 208 1145 c 258
 208 1163 l 257
 235 1139 l 257
 235 1060 207 992 136 992 c 256
 50 992 25 1053 25 1159 c 258
 25 1309 l 258
 25 1428 69 1478 187 1478 c 256
 318 1478 353 1417 353 1273 c 258
 353 796 l 258
 353 682 309 619 193 619 c 256
 74 619 29 679 29 782 c 258
 29 926 l 2
 29 928 30 929 32 929 c 2
 167 929 l 2
 169 929 170 928 170 926 c 2
 170 794 l 258
 170 754 170 724 189 724 c 256
 207 724 208 753 208 798 c 258
 208 1293 l 258
 208 1356 204 1373 190 1373 c 256
 172 1373 172 1355 172 1295 c 258
 172 1153 l 258
 172 1092 175 1067 190 1067 c 256
EndSplineSet
EndChar

StartChar: uni00B9
Encoding: 185 185 138
Width: 258
VWidth: 1920
Flags: HMW
LayerCount: 2
Fore
SplineSet
59 1447 m 0
 101 1447 116 1460 119 1482 c 0
 119 1484 121 1484 123 1484 c 2
 199 1484 l 2
 201 1484 203 1484 203 1482 c 2
 203 642 l 2
 203 640 201 640 199 640 c 2
 59 640 l 2
 57 640 55 640 55 642 c 2
 55 1444 l 2
 55 1446 57 1447 59 1447 c 0
EndSplineSet
EndChar

StartChar: cent
Encoding: 162 162 154
Width: 479
VWidth: 1920
Flags: HMW
LayerCount: 2
Fore
SplineSet
232 1240 m 6
 262 1240 l 6
 266 1240 267 1237 267 1230 c 6
 267 -180 l 6
 267 -187 266 -190 262 -190 c 6
 232 -190 l 6
 228 -190 227 -187 227 -180 c 6
 227 1230 l 6
 227 1237 228 1240 232 1240 c 6
EndSplineSet
Refer: 40 99 N 1 0 0 1 0 0 2
EndChar

StartChar: uni203D
Encoding: 8253 8253 157
Width: 800
VWidth: 1920
Flags: HMW
LayerCount: 2
Fore
SplineSet
285 830 m 2
 285 1220 l 2
 285 1227 286 1230 290 1230 c 2
 485 1230 l 2
 489 1230 490 1227 490 1220 c 2
 490 830 l 2
 490 823 489 817 489 810 c 2
 441 450 l 2
 441 443 439 440 435 440 c 2
 340 440 l 2
 336 440 335 443 335 450 c 2
 285 810 l 2
 285 817 285 823 285 830 c 2
543 0 m 6
 313 0 l 6
 306 0 303 3 303 10 c 6
 303 350 l 6
 303 357 306 360 313 360 c 6
 543 360 l 6
 550 360 553 357 553 350 c 6
 553 10 l 6
 553 3 550 0 543 0 c 6
  Spiro
    543 0 [
    313 0 ]
    307.301 1.03493 o
    304.035 4.30074 o
    303 10 [
    303 350 ]
    304.035 355.699 o
    307.301 358.965 o
    313 360 [
    543 360 ]
    548.699 358.965 o
    551.965 355.699 o
    553 350 [
    553 10 ]
    551.965 4.30074 o
    548.699 1.03493 o
    0 0 z
  EndSpiro
497 440 m 2
 353 440 l 2
 349 440 347 443 347 449 c 0
 326 721 505 848 505 983 c 258
 505 1198 l 258
 505 1248 486 1285 392 1285 c 256
 287 1285 255 1235 255 1182 c 258
 255 792 l 2
 255 785 254 782 250 782 c 2
 20 782 l 2
 16 782 15 785 15 792 c 2
 15 1102 l 258
 15 1346 138 1467 412 1467 c 256
 650 1467 785 1373 785 1153 c 258
 785 1078 l 258
 785 715 547 683 503 448 c 0
 502 443 500 440 497 440 c 2
EndSplineSet
EndChar

StartChar: ordfeminine
Encoding: 170 170 159
Width: 430
VWidth: 1920
Flags: HMW
LayerCount: 2
Fore
SplineSet
192 892 m 0
 192 854 192.5 791 207 791 c 256
 222 791 223.5 835 223.5 903 c 257
 262.5 827 l 257
 262.5 705 221.5 609 137 609 c 256
 50 609 10 693 10 852 c 0
 10 1047 77 1095 159 1139 c 256
 208.799804688 1165.72167969 223.5 1185 223.5 1211 c 257
 235.5 1084 l 257
 235.5 1066 222.556640625 1041.53417969 211 1024 c 256
 196.5 1002 192 930 192 892 c 0
223.5 769 m 258
 223.5 1261 l 258
 223.5 1315 222.5 1341 208 1341 c 256
 197.5 1341 193.5 1323 192.5 1222 c 0
 192.4609375 1218.00585938 191.5 1217 189.5 1217 c 2
 39.5 1217 l 2
 37.5 1217 36.263671875 1217.97558594 36.5 1222 c 0
 46.5 1392 95 1489 223.5 1489 c 256
 366.5 1489 402.5 1395 402.5 1214 c 258
 402.5 769 l 258
 402.5 712 408.5 673 419.5 648 c 0
 421 645 420.5 644 418.5 644 c 2
 253.5 644 l 2
 251.5 644 250 646 249 648 c 0
 238 674 223.5 712 223.5 769 c 258
EndSplineSet
EndChar

StartChar: exclamdown
Encoding: 161 161 160
Width: 400
VWidth: 1920
Flags: HMW
LayerCount: 2
Fore
SplineSet
85 1050 m 2
 315 1050 l 2
 322 1050 325 1047 325 1040 c 2
 325 700 l 2
 325 693 322 690 315 690 c 2
 85 690 l 2
 78 690 75 693 75 700 c 2
 75 1040 l 2
 75 1047 78 1050 85 1050 c 2
355 100 m 2
 355 -390 l 2
 355 -397 352 -400 345 -400 c 2
 55 -400 l 2
 48 -400 45 -397 45 -390 c 2
 45 100 l 2
 45 107 45.1826171875 113.096679688 46 120 c 2
 144 540 l 2
 144.817382812 546.903320312 148 550 155 550 c 2
 245 550 l 2
 252 550 255.182617188 546.903320312 256 540 c 2
 354 120 l 2
 354.817382812 113.096679688 355 107 355 100 c 2
EndSplineSet
EndChar

StartChar: AE
Encoding: 198 198 161
Width: 788
VWidth: 1920
Flags: HMW
LayerCount: 2
Fore
SplineSet
118 520 m 257
 498 520 l 257
 498 395 l 257
 118 395 l 257
 118 520 l 257
423 1400 m 1
 201 10 l 2
 197.338867188 4.4189453125 195 0 188 0 c 2
 -12 0 l 2
 -19 0 -22.361328125 4.896484375 -19 10 c 2
 220 1390 l 2
 223.361328125 1395.10351562 226 1400 233 1400 c 2
 423 1400 l 1
EndSplineSet
Refer: 16 69 N 1 0 0 1 348 0 2
EndChar

StartChar: questiondown
Encoding: 191 191 162
Width: 600
VWidth: 1920
Flags: HMW
LayerCount: 2
Fore
SplineSet
192 1050 m 2
 422 1050 l 2
 429 1050 432 1047 432 1040 c 2
 432 700 l 2
 432 693 429 690 422 690 c 2
 192 690 l 2
 185 690 182 693 182 700 c 2
 182 1040 l 2
 182 1047 185 1050 192 1050 c 2
  Spiro
    192 1050 [
    422 1050 ]
    427.699 1048.97 o
    430.965 1045.7 o
    432 1040 [
    432 700 ]
    430.965 694.301 o
    427.699 691.035 o
    422 690 [
    192 690 ]
    186.301 691.035 o
    183.035 694.301 o
    182 700 [
    182 1040 ]
    183.035 1045.7 o
    186.301 1048.97 o
    0 0 z
  EndSpiro
252 620 m 2
 397 620 l 2
 401 620 402.745117188 617.989257812 403 615 c 0
 424 369 295 360 295 173 c 258
 295 -128 l 258
 295 -223 302 -241 320 -241 c 256
 340 -241 345 -216 345 -120 c 258
 345 93 l 2
 345 97 345 98 349 98 c 2
 579 98 l 2
 583 98 585 97 585 93 c 2
 585 -155 l 258
 585 -297 505 -417 307 -417 c 256
 109 -417 15 -311 15 -171 c 258
 15 116 l 258
 15 398 202 388 246 616 c 0
 246.423828125 618.1953125 249 620 252 620 c 2
EndSplineSet
EndChar

StartChar: yen
Encoding: 165 165 163
Width: 645
VWidth: 1920
Flags: HMW
LayerCount: 2
Fore
SplineSet
23 449 m 14
 23 501 l 22
 23 505 24 506 28 506 c 14
 613 506 l 22
 617 506 618 505 618 501 c 14
 618 449 l 22
 618 445 617 444 613 444 c 14
 28 444 l 22
 24 444 23 445 23 449 c 14
23 584 m 14
 23 636 l 22
 23 640 24 641 28 641 c 14
 613 641 l 22
 617 641 618 640 618 636 c 14
 618 584 l 22
 618 580 617 579 613 579 c 14
 28 579 l 22
 24 579 23 580 23 584 c 14
EndSplineSet
Refer: 36 89 N 1 0 0 1 0 0 2
EndChar

StartChar: gravecomb
Encoding: 768 768 164
Width: 0
Flags: HMW
AnchorPoint: "top" -563 1000 mark 0
LayerCount: 2
Fore
SplineSet
-514 1104 m 6
 -639 1104 l 6
 -643 1104 -647 1109 -649 1114 c 6
 -837 1390 l 6
 -839 1395 -841 1400 -837 1400 c 6
 -557 1400 l 6
 -553 1400 -551 1397 -549 1390 c 6
 -512 1114 l 6
 -510 1107 -510 1104 -514 1104 c 6
EndSplineSet
EndChar

StartChar: acutecomb
Encoding: 769 769 165
Width: 0
Flags: HMW
AnchorPoint: "top" -548 1000 mark 0
LayerCount: 2
Fore
SplineSet
-597 1104 m 6
 -601 1104 -601 1107 -599 1114 c 6
 -562 1390 l 6
 -560 1397 -558 1400 -554 1400 c 6
 -274 1400 l 6
 -270 1400 -272 1395 -274 1390 c 6
 -462 1114 l 6
 -464 1109 -468 1104 -472 1104 c 6
 -597 1104 l 6
EndSplineSet
EndChar

StartChar: uni0302
Encoding: 770 770 166
Width: 0
VWidth: 1920
Flags: HMW
AnchorPoint: "top" -557 1000.48 mark 0
LayerCount: 2
Fore
SplineSet
-558 1261 m 261
 -600 1110 l 6
 -602 1105 -606 1100 -610 1100 c 6
 -742 1100 l 6
 -746 1100 -748 1104 -746 1110 c 6
 -654 1390 l 6
 -651 1398 -652 1400 -648 1400 c 6
 -468 1400 l 6
 -464 1400 -463 1398 -460 1390 c 6
 -364 1110 l 6
 -362 1104 -362 1100 -368 1100 c 6
 -500 1100 l 6
 -505 1100 -508 1105 -510 1110 c 6
 -558 1261 l 261
EndSplineSet
EndChar

StartChar: tildecomb
Encoding: 771 771 167
Width: 0
Flags: HMW
AnchorPoint: "top" -578 1000 mark 0
LayerCount: 2
Fore
SplineSet
-617 1229 m 260
 -638 1229 -635 1200 -637 1117 c 0
 -637.144536358 1111.00174115 -640 1108 -643 1108 c 2
 -743 1108 l 2
 -747 1108 -747.050418388 1111.00021184 -747 1117 c 4
 -745 1355 -677 1399 -632 1399 c 260
 -548 1399 -539 1232 -513 1232 c 260
 -492 1232 -494 1281 -492 1363 c 4
 -491.829101562 1369.99804688 -490 1373 -487 1373 c 6
 -388 1373 l 6
 -384 1373 -382.94117694 1369.99994419 -383 1363 c 4
 -385 1125 -453 1082 -498 1082 c 256
 -582 1082 -591 1229 -617 1229 c 260
EndSplineSet
EndChar

StartChar: uni0304
Encoding: 772 772 168
Width: 0
VWidth: 1920
Flags: HMW
AnchorPoint: "top" -560 1000 mark 0
LayerCount: 2
Fore
SplineSet
-695 1099 m 14
 -695 1206 l 22
 -695 1210 -694 1211 -690 1211 c 14
 -430 1211 l 22
 -426 1211 -425 1210 -425 1206 c 14
 -425 1099 l 22
 -425 1095 -426 1094 -430 1094 c 14
 -690 1094 l 22
 -694 1094 -695 1095 -695 1099 c 14
EndSplineSet
EndChar

StartChar: uni0306
Encoding: 774 774 169
Width: 0
VWidth: 1920
Flags: HMW
AnchorPoint: "top" -560 1000 mark 0
LayerCount: 2
Fore
SplineSet
-560 1265 m 4
 -530 1265 -522 1349 -522 1427 c 4
 -522 1435 -522 1438 -518 1438 c 6
 -385 1438 l 6
 -381 1438 -379.792489764 1434.99804253 -380 1424 c 4
 -384 1212 -428 1095 -560 1095 c 4
 -692 1095 -737 1213 -740 1427 c 4
 -740.112138514 1434.99921402 -739 1438 -735 1438 c 6
 -602 1438 l 6
 -598 1438 -598 1435 -598 1425 c 4
 -598 1345 -589 1265 -560 1265 c 4
EndSplineSet
EndChar

StartChar: uni0307
Encoding: 775 775 170
Width: 0
Flags: HMW
AnchorPoint: "top" -548 950 mark 0
LayerCount: 2
Fore
SplineSet
-452 1050 m 6
 -648 1050 l 6
 -652 1050 -652 1051 -652 1055 c 6
 -652 1225 l 6
 -652 1229 -652 1230 -648 1230 c 6
 -452 1230 l 6
 -448 1230 -448 1229 -448 1225 c 6
 -448 1055 l 6
 -448 1051 -448 1050 -452 1050 c 6
EndSplineSet
EndChar

StartChar: uni0308
Encoding: 776 776 171
Width: 0
Flags: HMW
AnchorPoint: "top" -548 950 mark 0
LayerCount: 2
Fore
SplineSet
-595 1050 m 6
 -740 1050 l 6
 -744 1050 -745 1051 -745 1055 c 6
 -745 1225 l 6
 -745 1229 -744 1230 -740 1230 c 6
 -595 1230 l 6
 -591 1230 -590 1229 -590 1225 c 6
 -590 1055 l 6
 -590 1051 -591 1050 -595 1050 c 6
-370 1050 m 6
 -515 1050 l 6
 -519 1050 -520 1051 -520 1055 c 6
 -520 1225 l 6
 -520 1229 -519 1230 -515 1230 c 6
 -370 1230 l 6
 -366 1230 -365 1229 -365 1225 c 6
 -365 1055 l 6
 -365 1051 -366 1050 -370 1050 c 6
EndSplineSet
EndChar

StartChar: uni030A
Encoding: 778 778 172
Width: 0
Flags: HMW
AnchorPoint: "top" -554 1000 mark 0
LayerCount: 2
Fore
SplineSet
-458 1232 m 4
 -458 1180 -502 1137 -554 1137 c 4
 -607 1137 -652 1179 -652 1232 c 4
 -652 1283 -607 1327 -554 1327 c 4
 -501 1327 -458 1286 -458 1232 c 4
-504 1232 m 4
 -504 1260 -527 1280 -554 1280 c 4
 -581 1280 -604 1257 -604 1232 c 4
 -604 1205 -581 1184 -554 1184 c 4
 -528 1184 -504 1207 -504 1232 c 4
EndSplineSet
EndChar

StartChar: uni030B
Encoding: 779 779 173
Width: 0
Flags: HMW
AnchorPoint: "top" -618 1000 mark 0
LayerCount: 2
Fore
SplineSet
-534 1104 m 6
 -538 1104 -538 1107 -536 1114 c 6
 -500 1390 l 6
 -498 1397 -496 1400 -492 1400 c 6
 -212 1400 l 6
 -208 1400 -210 1395 -212 1390 c 6
 -399 1114 l 6
 -401 1109 -405 1104 -409 1104 c 6
 -534 1104 l 6
-789 1104 m 6
 -793 1104 -793 1107 -791 1114 c 6
 -755 1390 l 6
 -753 1397 -751 1400 -747 1400 c 6
 -507 1400 l 6
 -503 1400 -505 1395 -507 1390 c 6
 -654 1114 l 6
 -656 1109 -660 1104 -664 1104 c 6
 -789 1104 l 6
EndSplineSet
EndChar

StartChar: uni030C
Encoding: 780 780 174
Width: 0
Flags: HMW
AnchorPoint: "top" -554 1000 mark 0
LayerCount: 2
Fore
SplineSet
-554 1259 m 257
 -512 1410 l 2
 -510 1415 -506 1420 -502 1420 c 2
 -370 1420 l 2
 -366 1420 -364 1416 -366 1410 c 2
 -458 1130 l 2
 -461 1122 -460 1120 -464 1120 c 2
 -644 1120 l 2
 -648 1120 -649 1122 -652 1130 c 2
 -748 1410 l 2
 -750 1416 -750 1420 -744 1420 c 2
 -612 1420 l 2
 -607 1420 -604 1415 -602 1410 c 2
 -554 1259 l 257
EndSplineSet
EndChar

StartChar: uni030F
Encoding: 783 783 175
Width: 0
Flags: HMW
AnchorPoint: "top" -508 1000 mark 0
LayerCount: 2
Fore
SplineSet
-327 1104 m 6
 -452 1104 l 6
 -456 1104 -460 1109 -462 1114 c 6
 -599 1390 l 6
 -601 1395 -603 1400 -599 1400 c 6
 -369 1400 l 6
 -365 1400 -363 1397 -361 1390 c 6
 -325 1114 l 6
 -323 1107 -323 1104 -327 1104 c 6
-572 1104 m 6
 -697 1104 l 6
 -701 1104 -705 1109 -707 1114 c 6
 -894 1390 l 6
 -896 1395 -898 1400 -894 1400 c 6
 -614 1400 l 6
 -610 1400 -608 1397 -606 1390 c 6
 -570 1114 l 6
 -568 1107 -568 1104 -572 1104 c 6
EndSplineSet
EndChar

StartChar: uni0311
Encoding: 785 785 176
Width: 0
Flags: HMW
AnchorPoint: "top" -604 1000 mark 0
LayerCount: 2
Fore
SplineSet
-604 1345 m 0
 -634 1345 -642 1261 -642 1183 c 0
 -642 1175 -642 1172 -646 1172 c 2
 -779 1172 l 2
 -783 1172 -784.20703125 1175.00195312 -784 1186 c 0
 -780 1398 -736 1515 -604 1515 c 0
 -472 1515 -427 1397 -424 1183 c 0
 -423.887695312 1175.00097656 -425 1172 -429 1172 c 2
 -562 1172 l 2
 -566 1172 -566 1175 -566 1185 c 0
 -566 1265 -575 1345 -604 1345 c 0
EndSplineSet
EndChar

StartChar: dotbelowcomb
Encoding: 803 803 177
Width: 0
Flags: HMW
AnchorPoint: "bottom" -551 0 mark 0
LayerCount: 2
Fore
SplineSet
-452 -320 m 6
 -648 -320 l 6
 -652 -320 -652 -319 -652 -315 c 6
 -652 -145 l 6
 -652 -141 -652 -140 -648 -140 c 6
 -452 -140 l 6
 -448 -140 -448 -141 -448 -145 c 6
 -448 -315 l 6
 -448 -319 -448 -320 -452 -320 c 6
EndSplineSet
EndChar

StartChar: uni0326
Encoding: 806 806 178
Width: 0
Flags: HMW
AnchorPoint: "bottom" -561 0 mark 0
LayerCount: 2
Fore
SplineSet
-638 -484 m 14
 -677 -484 l 22
 -680 -484 -681 -483 -679 -480 c 14
 -601 -360 l 261
 -665 -360 l 6
 -669 -360 -669 -360 -669 -356 c 6
 -669 -180 l 6
 -669 -177 -668 -176 -665 -176 c 6
 -469 -176 l 6
 -466 -176 -465 -177 -465 -180 c 6
 -465 -352 l 6
 -465 -355 -466 -356 -469 -360 c 6
 -630 -480 l 22
 -634 -482 -635 -484 -638 -484 c 14
EndSplineSet
EndChar

StartChar: uni0327
Encoding: 807 807 179
Width: 1200
Flags: HMW
AnchorPoint: "bottom" -561 0 mark 0
LayerCount: 2
Fore
SplineSet
-610 -650 m 0
 -680 -650 -728 -636 -754 -601 c 0
 -759 -594 -760 -594 -757 -584 c 2
 -739 -424 l 2
 -737 -414 -737 -416 -732 -419 c 0
 -681 -448 -659 -459 -629 -459 c 0
 -607 -459 -590 -439 -590 -357 c 0
 -590 -281 -595 -241 -684 -240 c 0
 -691 -240 -690 -240 -692 -230 c 2
 -700 -196 l 2
 -702 -187 -700 -183 -698 -176 c 2
 -617 60 l 1
 -446 60 l 1
 -530 -172 l 1
 -522 -167 -514 -164 -506 -164 c 0
 -463 -164 -418 -182 -418 -362 c 0
 -418 -590 -508 -650 -610 -650 c 0
EndSplineSet
EndChar

StartChar: uni0328
Encoding: 808 808 180
Width: 1200
Flags: HMW
AnchorPoint: "ogonek" -591 0 mark 0
LayerCount: 2
Fore
SplineSet
-509 -310 m 2
 -509 -530 l 2
 -509 -537 -510 -540 -514 -540 c 2
 -554 -540 l 2
 -638 -540 -777 -488 -777 -280 c 0
 -777 -62 -665 -2 -585 70 c 1
 -554 0 l 1
 -606 -44 -632 -96 -632 -180 c 0
 -632 -262 -609 -300 -549 -300 c 2
 -514 -300 l 2
 -510 -300 -509 -303 -509 -310 c 2
EndSplineSet
EndChar

StartChar: uni0312
Encoding: 786 786 181
Width: 0
Flags: HMW
AnchorPoint: "top" -604 900 mark 0
LayerCount: 2
Fore
SplineSet
-447 1690 m 10
 -411 1690 l 18
 -404 1690 -400.55859375 1687.64648438 -404 1680 c 10
 -529 1380 l 257
 -439 1380 l 2
 -430.479492188 1380 -429 1378.59570312 -429 1370 c 2
 -429 1030 l 2
 -429 1023 -432 1020 -439 1020 c 2
 -669 1020 l 2
 -676 1020 -679 1023 -679 1030 c 2
 -679 1360 l 2
 -679 1367 -678.280273438 1371.43847656 -673 1380 c 2
 -468 1680 l 18
 -463.061523438 1688.140625 -455 1690 -447 1690 c 10
EndSplineSet
EndChar

StartChar: sterling
Encoding: 163 163 182
Width: 610
VWidth: 1920
Flags: HMW
LayerCount: 2
Fore
SplineSet
19.984375 622 m 10
 19.984375 770 l 18
 19.984375 774 21.984375 775 25.984375 775 c 10
 519.984375 775 l 18
 523.984375 775 525.984375 774 525.984375 770 c 10
 525.984375 622 l 18
 525.984375 618 523.984375 617 519.984375 617 c 10
 25.984375 617 l 18
 21.984375 617 19.984375 618 19.984375 622 c 10
37.984375 177 m 0
 105.984375 295 159.984375 422 159.984375 657 c 0
 159.984375 856 65.984375 907 65.984375 1091 c 0
 65.984375 1306 149.984375 1417 317.984375 1417 c 0
 489.984375 1417 582.984375 1315 589.984375 967 c 0
 590.064453125 963.000976562 589.984375 963 585.984375 963 c 2
 359.984375 963 l 2
 356.984375 963 355.017578125 963 354.984375 967 c 0
 352.984375 1210 358.984375 1247 331.984375 1247 c 0
 313.984375 1247 305.984375 1211 305.984375 1066 c 0
 305.984375 945 389.984375 885 389.984375 672 c 0
 389.984375 426 333.984375 295 264.984375 177 c 1
 579.984375 177 l 2
 583.984375 177 585.984375 176 585.984375 172 c 2
 585.984375 5 l 2
 585.984375 1 583.984375 0 579.984375 0 c 2
 39.984375 0 l 2
 35.984375 0 35.984375 1 35.984375 5 c 2
 35.984375 172 l 2
 35.984375 174 36.4052734375 174.259765625 37.984375 177 c 0
EndSplineSet
EndChar

StartChar: currency
Encoding: 164 164 183
Width: 579
Flags: HMW
LayerCount: 2
Fore
SplineSet
458.5 991 m 10
 572.5 877 l 18
 574.5 875 574.5 872 572.5 870 c 10
 491.5 788 l 18
 489.5 786 486.5 786 484.5 788 c 10
 370.5 902 l 18
 368.5 904 368.5 908 370.5 910 c 10
 451.5 991 l 18
 453.5 993 456.5 993 458.5 991 c 10
94.5 627 m 10
 208.5 513 l 18
 210.5 511 210.5 507 208.5 505 c 10
 127.5 424 l 18
 125.5 422 122.5 422 120.5 424 c 10
 6.5 538 l 18
 4.5 540 4.5 543 6.5 545 c 10
 87.5 627 l 18
 89.5 629 92.5 629 94.5 627 c 10
6.5 877 m 10
 120.5 991 l 18
 122.5 993 125.5 993 127.5 991 c 10
 208.5 910 l 18
 210.5 908 210.5 904 208.5 902 c 10
 94.5 788 l 18
 92.5 786 89.5 786 87.5 788 c 10
 6.5 870 l 18
 4.5 872 4.5 875 6.5 877 c 10
370.5 513 m 10
 449.5 592 l 18
 451.5 594 489.5 629 491.5 627 c 10
 572.5 545 l 18
 574.5 543 574.5 540 572.5 538 c 10
 458.5 424 l 18
 456.5 422 453.5 422 451.5 424 c 10
 370.5 505 l 18
 368.5 507 368.5 511 370.5 513 c 10
45.5 709 m 0
 45.5 843 157.5 954 291.5 954 c 0
 425.5 954 535.5 843 535.5 709 c 0
 535.5 575 425.5 464 291.5 464 c 0
 157.5 464 45.5 575 45.5 709 c 0
225.5 709 m 0
 225.5 665 247.5 639 291.5 639 c 0
 335.5 639 355.5 665 355.5 709 c 0
 355.5 753 335.5 779 291.5 779 c 0
 247.5 779 225.5 753 225.5 709 c 0
EndSplineSet
EndChar

StartChar: brokenbar
Encoding: 166 166 184
Width: 260
VWidth: 1920
Flags: HMW
LayerCount: 2
Fore
SplineSet
50 430 m 10
 210 430 l 22
 217 430 220 427 220 420 c 14
 220 -350 l 22
 220 -357 217 -360 210 -360 c 14
 50 -360 l 18
 43 -360 40 -357 40 -350 c 10
 40 420 l 18
 40 427 43 430 50 430 c 10
50 1600 m 10
 210 1600 l 22
 217 1600 220 1597 220 1590 c 14
 220 820 l 22
 220 813 217 810 210 810 c 14
 50 810 l 18
 43 810 40 813 40 820 c 10
 40 1590 l 18
 40 1597 43 1600 50 1600 c 10
EndSplineSet
EndChar

StartChar: section
Encoding: 167 167 185
Width: 512
VWidth: 1920
Flags: HMW
LayerCount: 2
Fore
SplineSet
274 873 m 257
 236.5 873 205 809 205 691 c 256
 205 554 214.4375 435.0390625 307.5 324 c 256
 373.869140625 244.809570312 420 150 420 -20 c 256
 420 -252 362.5 -377 224 -377 c 256
 97 -377 54.5 -264 47.5 -34 c 0
 47.3173828125 -28.0029296875 49 -25 52.5 -25 c 2
 172 -25 l 2
 175.5 -25 177.125 -28.0419921875 177.5 -35 c 0
 184.5 -165 176.5 -212 198 -212 c 256
 212 -212 220 -157 220 -87 c 256
 220 1 191.588867188 52.0439453125 147.5 115 c 256
 69.7001953125 226.091796875 20 329 20 586 c 256
 20 858 147.5 953 279.5 953 c 257
 274 873 l 257
238 167 m 257
 275.5 167 307 231 307 349 c 256
 307 486 297.5625 604.9609375 204.5 716 c 256
 138.130859375 795.190429688 92 890 92 1060 c 256
 92 1292 149.5 1417 288 1417 c 256
 415 1417 457.5 1304 464.5 1074 c 0
 464.682617188 1068.00292969 463 1065 459.5 1065 c 2
 340 1065 l 2
 336.5 1065 334.875 1068.04199219 334.5 1075 c 0
 327.5 1205 335.5 1252 314 1252 c 256
 300 1252 292 1197 292 1127 c 256
 292 1039 320.411132812 987.956054688 364.5 925 c 256
 442.299804688 813.908203125 492 711 492 454 c 256
 492 182 364.5 87 232.5 87 c 257
 238 167 l 257
EndSplineSet
EndChar

StartChar: copyright
Encoding: 169 169 186
Width: 844
Flags: HMW
LayerCount: 2
Fore
SplineSet
575 622 m 256
 575 358.30738523 575 249 408 249 c 256
 286 249 260 325 260 469 c 258
 260 885 l 258
 260 1023 286 1111 414 1111 c 256
 566 1111 566 989.219298246 566 780 c 260
 566 778 565 777 563 777 c 258
 459 777 l 258
 457 777 455 778 455 780 c 256
 454 938 456 991 432 991 c 256
 411 991 410 957 410 888 c 258
 410 448 l 258
 410 388 412 369 432 369 c 256
 454 369 458 417 458 622 c 256
 458 624 459 625 461 625 c 258
 572 625 l 258
 574 625 575 624 575 622 c 256
769 668 m 0
 769 284 735 -28 421 -28 c 0
 107 -28 75 284 75 668 c 0
 75 1052 107 1366 421 1366 c 0
 735 1366 769 1052 769 668 c 0
723 668 m 0
 723 1006 709 1320 421 1320 c 0
 133 1320 121 1006 121 668 c 0
 121 330 133 18 421 18 c 0
 709 18 723 330 723 668 c 0
EndSplineSet
EndChar

StartChar: registered
Encoding: 174 174 188
Width: 844
Flags: HMW
LayerCount: 2
Fore
SplineSet
400 995 m 261
 400 692 l 261
 412 692 l 262
 432.400390625 692 434.799804688 710.599609375 434.799804688 737.599609375 c 262
 434.799804688 948.799804688 l 262
 434.799804688 972.799804688 432.400390625 995 412 995 c 262
 400 995 l 261
418 1100 m 262
 557.799804688 1100 584.799804688 1037.59960938 584.799804688 944.599609375 c 262
 584.799804688 787.400390625 l 262
 584.799804688 685.400390625 516.400390625 644 418 644 c 261
 418 662 l 261
 524.799804688 662 587.200195312 653.599609375 587.200195312 539.599609375 c 262
 587.200195312 358.400390625 l 262
 587.200195312 324.200195312 590.799804688 298.400390625 604.599609375 278 c 4
 607 274.400390625 607 273.799804688 607 272 c 6
 607 263 l 6
 607 260.599609375 606.400390625 260 604 260 c 6
 461.200195312 260 l 6
 458.799804688 260 456.919921875 261.142578125 455.200195312 263.599609375 c 4
 438.400390625 287.599609375 434.799804688 314 434.799804688 358.400390625 c 262
 434.799804688 581.599609375 l 262
 434.799804688 605.599609375 425.799804688 617 409 617 c 262
 400 617 l 261
 400 263 l 6
 400 260.599609375 399.400390625 260 397 260 c 6
 256 260 l 6
 253.599609375 260 253 260.599609375 253 263 c 6
 253 1097 l 6
 253 1099.40039062 253.599609375 1100 256 1100 c 6
 418 1100 l 262
769 668 m 0
 769 284 735 -28 421 -28 c 0
 107 -28 75 284 75 668 c 0
 75 1052 107 1366 421 1366 c 0
 735 1366 769 1052 769 668 c 0
723 668 m 0
 723 1006 709 1320 421 1320 c 0
 133 1320 121 1006 121 668 c 0
 121 330 133 18 421 18 c 0
 709 18 723 330 723 668 c 0
EndSplineSet
EndChar

StartChar: dotlessi
Encoding: 305 305 279
Width: 295
VWidth: 960
Flags: HMW
AnchorPoint: "top" 150 1050 basechar 0
LayerCount: 2
Fore
SplineSet
270 1045 m 2
 270 5 l 2
 270 1 269 0 265 0 c 2
 30 0 l 2
 26 0 25 1 25 5 c 2
 25 1045 l 2
 25 1049 26 1050 30 1050 c 2
 265 1050 l 2
 269 1050 270 1049 270 1045 c 2
EndSplineSet
EndChar

StartChar: uni0237
Encoding: 567 567 291
Width: 295
VWidth: 960
Flags: HMW
AnchorPoint: "top" 141 1050 basechar 0
LayerCount: 2
Fore
SplineSet
270 -179 m 258
 270 -358 150 -370 -44 -356 c 0
 -48 -356 -50 -354 -50 -350 c 2
 -50 -220 l 2
 -50 -217 -48 -215 -45 -216 c 0
 0 -225 25 -208 25 -144 c 258
 25 1045 l 2
 25 1049 26 1050 30 1050 c 2
 265 1050 l 2
 269 1050 270 1049 270 1045 c 2
 270 -179 l 258
EndSplineSet
EndChar

StartChar: kgreenlandic
Encoding: 312 312 298
Width: 595
VWidth: 960
Flags: HMW
LayerCount: 2
Fore
SplineSet
30 1050 m 6
 265 1050 l 6
 269 1050 270 1049 270 1045 c 6
 270 5 l 2
 270 1 269 0 265 0 c 2
 30 0 l 2
 26 0 25 1 25 5 c 2
 25 1045 l 6
 25 1049 26 1050 30 1050 c 6
185 422 m 1
 410 1045 l 2
 411.41015625 1048.8046875 414.240234375 1050 420 1050 c 2
 632 1050 l 2
 636.357421875 1050 636.357421875 1050 634 1045 c 2
 255 256 l 1
 185 422 l 1
250 586 m 257
 390 616 l 257
 642 5 l 2
 644 1 644 0 640 0 c 2
 365 0 l 2
 361 0 359 1 357 5 c 2
 250 586 l 257
EndSplineSet
EndChar

StartChar: grave
Encoding: 96 96 339
Width: 386
VWidth: 0
Flags: HMW
LayerCount: 2
Fore
SplineSet
353 1104 m 2
 228 1104 l 2
 224 1104 220 1109 218 1114 c 2
 30 1390 l 2
 28 1395 26 1400 30 1400 c 2
 310 1400 l 2
 314 1400 316 1397 318 1390 c 2
 355 1114 l 2
 357 1107 357 1104 353 1104 c 2
EndSplineSet
EndChar

StartChar: longs
Encoding: 383 383 352
Width: 335
VWidth: 960
Flags: HMW
LayerCount: 2
Fore
SplineSet
40 1313 m 262
 40 1432 130 1469 334 1440 c 4
 338.950195312 1439.29589844 340 1438 340 1434 c 6
 340 1304 l 6
 340 1301 338.188476562 1298.69726562 332 1300 c 4
 294 1308 282 1296 282 1253 c 262
 282 5 l 6
 282 1 282 0 278 0 c 6
 45 0 l 6
 41 0 40 1 40 5 c 6
 40 1313 l 262
EndSplineSet
EndChar

StartChar: uni0259
Encoding: 601 601 359
Width: 570
VWidth: 960
Flags: HMW
LayerCount: 2
Fore
SplineSet
20 636 m 0
 20 886.056613206 20 1068 282 1068 c 260
 466 1068 550 981 550 776 c 258
 550 273 l 258
 550 73 470 -17 282 -17 c 256
 98 -17 23.6630859375 70.6923828125 20 283 c 256
 18.0146484375 398.072265625 16 443 16 565 c 0
 16 567 16 569 20 569 c 2
 412 569 l 257
 412 485 l 257
 258 485 l 257
 260 144 258 123 282 123 c 256
 300 123 304 149 304 209 c 258
 304 841 l 258
 304 916 299 928 283 928 c 256
 264 928 256 865 255 636 c 0
 254.991210938 634 253 632 250 632 c 2
 24 632 l 2
 20 632 20 632.837890625 20 636 c 0
EndSplineSet
EndChar

StartChar: logicalnot
Encoding: 172 172 373
Width: 575
VWidth: 2048
Flags: HMW
LayerCount: 2
Fore
SplineSet
40 543.75 m 2
 40 711.25 l 2
 40 714.75 41.5 716.25 45 716.25 c 2
 535 716.25 l 2
 538.5 716.25 540 714.75 540 711.25 c 2
 540 453.75 l 2
 540 450.25 538.5 448.75 535 448.75 c 2
 350 448.75 l 2
 346.5 448.75 345 450.25 345 453.75 c 2
 345 538.75 l 1
 45 538.75 l 2
 41.5 538.75 40 540.25 40 543.75 c 2
EndSplineSet
EndChar

StartChar: acute
Encoding: 180 180 374
Width: 386
Flags: HMW
LayerCount: 2
Fore
SplineSet
33 1104 m 6
 29 1104 29 1107 31 1114 c 6
 68 1390 l 6
 70 1397 72 1400 76 1400 c 6
 356 1400 l 6
 360 1400 358 1395 356 1390 c 6
 168 1114 l 6
 166 1109 162 1104 158 1104 c 6
 33 1104 l 6
EndSplineSet
EndChar

StartChar: degree
Encoding: 176 176 376
Width: 490
VWidth: 2048
Flags: HMW
LayerCount: 2
Fore
SplineSet
25 1191 m 262
 25 1209 l 262
 25 1339 118 1417 242 1417 c 260
 366 1417 465 1339 465 1209 c 262
 465 1191 l 262
 465 1061 366 983 242 983 c 260
 118 983 25 1061 25 1191 c 262
202 1191 m 262
 202 1156 221 1143 245 1143 c 260
 269 1143 288 1156 288 1191 c 262
 288 1209 l 262
 288 1244 269 1257 245 1257 c 260
 221 1257 202 1244 202 1209 c 262
 202 1191 l 262
EndSplineSet
EndChar

StartChar: plusminus
Encoding: 177 177 377
Width: 575
Flags: HMW
LayerCount: 2
Fore
SplineSet
50 452.5 m 10
 50 620 l 18
 50 623.5 51.5 625 55 625 c 10
 520 625 l 18
 523.5 625 525 623.5 525 620 c 10
 525 452.5 l 18
 525 449 523.5 447.5 520 447.5 c 10
 55 447.5 l 18
 51.5 447.5 50 449 50 452.5 c 10
50 835 m 10
 50 1002.5 l 18
 50 1006 51.5 1007.5 55 1007.5 c 10
 520 1007.5 l 18
 523.5 1007.5 525 1006 525 1002.5 c 10
 525 835 l 18
 525 831.5 523.5 830 520 830 c 10
 55 830 l 18
 51.5 830 50 831.5 50 835 c 10
205 1142.5 m 10
 370 1142.5 l 22
 373.5 1142.5 375 1141 375 1137.5 c 14
 375 687.5 l 22
 375 684 373.5 682.5 370 682.5 c 14
 205 682.5 l 18
 201.5 682.5 200 684 200 687.5 c 10
 200 1137.5 l 18
 200 1141 201.5 1142.5 205 1142.5 c 10
EndSplineSet
EndChar

StartChar: ae
Encoding: 230 230 379
Width: 836
VWidth: 960
Flags: HMW
LayerCount: 2
Fore
SplineSet
246 330 m 4
 246 198 259 158 273 158 c 260
 290 158 292 186 292 234 c 261
 412 234 l 261
 412 132 367 -18 231 -18 c 260
 106 -18 8 28 8 255 c 4
 8 491 77 566 208 627 c 260
 264 653 292 678 292 734 c 261
 312 584 l 261
 305 562 292 548 281 535 c 260
 257 507 246 460 246 330 c 4
292 204 m 269
 292 814 l 262
 292 874 294 907 277 907 c 260
 258 907 257 872 255 696 c 4
 255 693 253 691 250 691 c 6
 47 691 l 6
 43 691 42 693 42 696 c 4
 49 942 114 1067 267 1067 c 260
 407 1067 462 975 462 761 c 262
 462 194 l 277
 292 204 l 269
816 414 m 4
 816 167 816 -18 554 -18 c 260
 370 -18 366 69 366 274 c 262
 366 777 l 262
 366 977 426 1067 584 1067 c 260
 771 1067 810 956 818 707 c 4
 820 642 820 569 820 485 c 4
 820 483 820 481 816 481 c 6
 424 481 l 261
 424 565 l 261
 578 565 l 261
 576 906 578 927 554 927 c 260
 536 927 532 901 532 841 c 262
 532 209 l 262
 532 134 537 122 553 122 c 260
 572 122 580 185 581 414 c 4
 581 416 583 418 586 418 c 6
 812 418 l 6
 816 418 816 417 816 414 c 4
EndSplineSet
EndChar

StartChar: paragraph
Encoding: 182 182 380
Width: 755
VWidth: 1920
Flags: HMW
LayerCount: 2
Fore
SplineSet
662 1225 m 5
 662 -350 l 2
 662 -357 661 -360 657 -360 c 2
 492 -360 l 2
 488 -360 487 -357 487 -350 c 2
 487 1225 l 5
 447 1225 l 5
 447 -350 l 2
 447 -357 446 -360 442 -360 c 2
 282 -360 l 2
 278 -360 277 -357 277 -350 c 2
 277 400 l 1
 272 400 l 2
 144 400 24 548 24 868 c 2
 24 932 l 2
 24 1252 144 1400 272 1400 c 2
 732 1400 l 2
 736 1400 737 1397 737 1390 c 2
 737 1235 l 6
 737 1228 736 1225 732 1225 c 6
 662 1225 l 5
EndSplineSet
EndChar

StartChar: guilsinglleft
Encoding: 8249 8249 381
Width: 630
Flags: HMW
LayerCount: 2
Fore
SplineSet
460 116 m 6
 90 429 l 6
 82.61328125 433.393554688 80 438 80 445 c 6
 80 675 l 6
 80 682 82.61328125 686.606445312 90 691 c 6
 460 974 l 6
 467.38671875 978.393554688 470 977 470 970 c 6
 470 710 l 6
 470 703 467.579101562 698.283203125 460 694 c 6
 249.01953125 555 l 261
 460 396 l 6
 467.579101562 391.716796875 470 387 470 380 c 6
 470 120 l 6
 470 113 467.38671875 111.606445312 460 116 c 6
EndSplineSet
EndChar

StartChar: guilsinglright
Encoding: 8250 8250 382
Width: 630
Flags: HW
LayerCount: 2
Fore
SplineSet
170 984 m 2
 540 671 l 2
 547.38671875 666.606445312 550 662 550 655 c 2
 550 425 l 2
 550 418 547.38671875 413.393554688 540 409 c 2
 170 126 l 2
 162.61328125 121.606445312 160 123 160 130 c 2
 160 390 l 2
 160 397 162.420898438 401.716796875 170 406 c 2
 380.98046875 545 l 257
 170 704 l 2
 162.420898438 708.283203125 160 713 160 720 c 2
 160 980 l 2
 160 987 162.61328125 988.393554688 170 984 c 2
EndSplineSet
EndChar

StartChar: mu
Encoding: 181 181 385
Width: 582
VWidth: 1920
Flags: HW
LayerCount: 2
Fore
SplineSet
32 1050 m 2
 258 1050 l 2
 265 1050 268 1047 268 1040 c 2
 268 -350 l 2
 268 -357 265 -360 258 -360 c 2
 32 -360 l 2
 25 -360 22 -357 22 -350 c 2
 22 1040 l 2
 22 1047 25 1050 32 1050 c 2
553 0 m 2
 323 0 l 2
 319 0 317 1 317 5 c 2
 317 182 l 257
 313 195 l 257
 313 1045 l 2
 313 1049 313 1050 317 1050 c 2
 553 1050 l 2
 557 1050 557 1049 557 1045 c 2
 557 5 l 2
 557 1 557 0 553 0 c 2
337 174 m 257
 337 54 314 -18 270 -18 c 260
 216 -18 152 39 152 194 c 258
 152 1045 l 2
 152 1049 154 1050 158 1050 c 2
 262 1050 l 2
 266 1050 268 1049 268 1045 c 2
 268 218 l 258
 268 168 271 148 285 148 c 256
 303 148 313 183 313 288 c 257
 337 174 l 257
EndSplineSet
EndChar

StartChar: Eth
Encoding: 208 208 387
Width: 620
VWidth: 1920
Flags: HW
LayerCount: 2
Fore
SplineSet
-42 629 m 10
 -42 796 l 18
 -42 800 -42 801 -38 801 c 10
 313 801 l 22
 317 801 317 800 317 796 c 14
 317 629 l 22
 317 625 317 624 313 624 c 14
 -38 624 l 18
 -42 624 -42 625 -42 629 c 10
EndSplineSet
Refer: 15 68 N 1 0 0 1 0 0 2
EndChar

StartChar: Dcroat
Encoding: 272 272 388
Width: 620
VWidth: 1920
Flags: HW
LayerCount: 2
Fore
SplineSet
-42 629 m 10
 -42 796 l 18
 -42 800 -42 801 -38 801 c 10
 318 801 l 18
 322 801 322 800 322 796 c 10
 322 629 l 18
 322 625 322 624 318 624 c 10
 -38 624 l 18
 -42 624 -42 625 -42 629 c 10
EndSplineSet
Refer: 15 68 N 1 0 0 1 0 0 2
EndChar

StartChar: thorn
Encoding: 254 254 389
Width: 590
VWidth: 960
Flags: HW
LayerCount: 2
Fore
SplineSet
30 1450 m 6
 266 1450 l 6
 270 1450 270 1449 270 1445 c 6
 270 -355 l 6
 270 -359 269 -360 265 -360 c 6
 30 -360 l 6
 26 -360 25 -359 25 -355 c 6
 25 1445 l 6
 25 1449 26 1450 30 1450 c 6
240 801 m 257
 240 946 286 1067 390 1067 c 256
 498 1067 570 997 570 827 c 258
 570 224 l 258
 570 54 498 -18 390 -18 c 256
 286 -18 240 103 240 248 c 257
 270 244 l 257
 270 189 273 152 297 152 c 256
 321 152 325 179 325 234 c 258
 325 817 l 258
 325 872 321 897 297 897 c 256
 273 897 270 862 270 807 c 257
 240 801 l 257
EndSplineSet
EndChar

StartChar: Thorn
Encoding: 222 222 390
Width: 575
VWidth: 960
Flags: HW
LayerCount: 2
Fore
SplineSet
290 1110 m 6
 464.045898438 1108.28320312 548 1031.5625 548 851 c 6
 548 569 l 6
 548 384 464 310 320 310 c 6
 280 310 l 5
 280 5 l 2
 280 1 279 0 275 0 c 2
 40 0 l 2
 36 0 35 1 35 5 c 2
 35 1395 l 2
 35 1399 36 1400 40 1400 c 2
 275 1400 l 2
 279 1400 280 1399 280 1395 c 2
 280 1110 l 5
 290 1110 l 6
280 435 m 5
 290 435 l 6
 328 435 338 459 338 504 c 6
 338 866 l 6
 338 911 328 935 290 935 c 6
 280 935 l 5
 280 435 l 5
EndSplineSet
EndChar

StartChar: divide
Encoding: 247 247 391
Width: 960
VWidth: 2048
Flags: HW
LayerCount: 2
Fore
SplineSet
5 634 m 10
 5 751 l 18
 5 755 5 756 9 756 c 10
 949 756 l 18
 953 756 955 755 955 751 c 10
 955 634 l 18
 955 630 953 629 949 629 c 10
 9 629 l 18
 5 629 5 630 5 634 c 10
EndSplineSet
Refer: 1 46 S 1 0 0 1 280 906 2
Refer: 1 46 N 1 0 0 1 280 119 2
EndChar

StartChar: multiply
Encoding: 215 215 392
Width: 650
VWidth: 1920
Flags: HW
LayerCount: 2
Fore
SplineSet
548 600 m 10
 438 489 l 18
 436 487 433 487 431 489 c 10
 102 818 l 18
 100 820 100 823 102 825 c 10
 213 936 l 18
 215 938 218 938 220 936 c 10
 548 607 l 18
 550 605 550 602 548 600 c 10
213 489 m 14
 102 600 l 18
 100 602 100 605 102 607 c 10
 431 936 l 18
 433 938 436 938 438 936 c 10
 548 825 l 22
 550 823 550 820 548 818 c 14
 220 489 l 22
 218 487 215 487 213 489 c 14
EndSplineSet
EndChar

StartChar: Oslash
Encoding: 216 216 393
Width: 625
VWidth: 1920
Flags: HW
LayerCount: 2
Fore
SplineSet
405 1478 m 6
 432 1471 l 6
 434.360351562 1470.38769531 434.459960938 1467.21972656 434 1464 c 6
 214 -76 l 6
 213.540039062 -79.2197265625 210.296875 -78.8544921875 207 -78 c 6
 180 -71 l 6
 176.703125 -70.1455078125 177.559570312 -67.080078125 178 -64 c 6
 398 1476 l 6
 398.440429688 1479.08007812 400.765625 1479.09765625 405 1478 c 6
EndSplineSet
Refer: 26 79 N 1 0 0 1 0 0 2
EndChar

StartChar: oslash
Encoding: 248 248 394
Width: 580
VWidth: 1920
Flags: HW
LayerCount: 2
Fore
SplineSet
388 1198 m 6
 415 1191 l 6
 417.360351562 1190.38769531 417.459960938 1187.21972656 417 1184 c 6
 197 -76 l 6
 196.540039062 -79.2197265625 193.296875 -78.8544921875 190 -78 c 6
 163 -71 l 6
 159.703125 -70.1455078125 160.559570312 -67.080078125 161 -64 c 6
 381 1196 l 6
 381.440429688 1199.08007812 383.765625 1199.09765625 388 1198 c 6
EndSplineSet
Refer: 52 111 N 1 0 0 1 0 0 2
EndChar

StartChar: germandbls
Encoding: 223 223 396
Width: 685
VWidth: 1920
Flags: HW
LayerCount: 2
Fore
SplineSet
35 1218 m 2
 35 1390 149 1467 319 1467 c 0
 511 1467 567 1355 567 1261 c 0
 567 1103 541 1061 541 931 c 0
 541 771 677 641 677 391 c 0
 677 95 567 -17 332 -17 c 0
 328 -17 327 -17 327 -13 c 2
 327 143 l 2
 327 147 328 147 332 147 c 0
 400 147 427 245 427 409 c 0
 427 611 307 698 307 878 c 0
 307 1034 321 1113 321 1208 c 0
 321 1278 316 1304 300 1304 c 0
 284 1304 278 1279 278 1193 c 2
 278 5 l 2
 278 1 277 0 273 0 c 2
 41 0 l 2
 37 0 35 1 35 5 c 2
 35 1218 l 2
EndSplineSet
EndChar

StartChar: eth
Encoding: 240 240 397
Width: 593
VWidth: 1920
Flags: HW
LayerCount: 2
Fore
SplineSet
210 1235 m 14
 190 1277 l 22
 188 1280 189 1282 192 1284 c 14
 485 1494 l 18
 488 1496 490 1495 492 1492 c 10
 511 1450 l 18
 513 1447 511 1445 508 1443 c 10
 216 1233 l 22
 213 1231 212 1232 210 1235 c 14
295 917 m 256
 270 917 266 879 266 793 c 258
 266 249 l 258
 266 164 266 133 290 133 c 256
 324 133 325 172 325 237 c 258
 325 874 l 258
 325 1207 267 1410 126 1470 c 0
 121 1472 118.267578125 1476.56445312 121 1480 c 10
 222 1607 l 18
 224.732421875 1610.43554688 228 1612 234 1609 c 0
 446 1513 568 1279 568 896 c 258
 568 269 l 258
 568 104 500 -17 286 -17 c 256
 75 -17 20 90 20 229 c 258
 20 808 l 258
 20 945 47 1067 195 1067 c 256
 299 1067 345 953 345 856 c 257
 325 761 l 257
 325 826 l 258
 325 898 320 917 295 917 c 256
EndSplineSet
EndChar

StartChar: dcroat
Encoding: 273 273 398
Width: 590
VWidth: 1920
Flags: HW
LayerCount: 2
Fore
SplineSet
235.5 1171.25 m 14
 235.5 1303.75 l 22
 235.5 1307.25 237 1308.75 240.5 1308.75 c 14
 665.5 1308.75 l 22
 669 1308.75 670.5 1307.25 670.5 1303.75 c 14
 670.5 1171.25 l 22
 670.5 1167.75 669 1166.25 665.5 1166.25 c 14
 240.5 1166.25 l 22
 237 1166.25 235.5 1167.75 235.5 1171.25 c 14
EndSplineSet
Refer: 41 100 N 1 0 0 1 0 0 2
EndChar

StartChar: Hbar
Encoding: 294 294 399
Width: 610
VWidth: 1920
Flags: HW
LayerCount: 2
Fore
SplineSet
-30 1038.75 m 14
 -30 1196.25 l 22
 -30 1199.75 -28.5 1201.25 -25 1201.25 c 14
 635 1201.25 l 22
 638.5 1201.25 640 1199.75 640 1196.25 c 14
 640 1038.75 l 22
 640 1035.25 638.5 1033.75 635 1033.75 c 14
 -25 1033.75 l 22
 -28.5 1033.75 -30 1035.25 -30 1038.75 c 14
EndSplineSet
Refer: 19 72 N 1 0 0 1 0 0 2
EndChar

StartChar: hbar
Encoding: 295 295 400
Width: 580
VWidth: 1920
Flags: HW
LayerCount: 2
Fore
SplineSet
-30 1158.75 m 14
 -30 1316.25 l 22
 -30 1319.75 -28.5 1321.25 -25 1321.25 c 14
 345 1321.25 l 22
 348.5 1321.25 350 1319.75 350 1316.25 c 14
 350 1158.75 l 22
 350 1155.25 348.5 1153.75 345 1153.75 c 14
 -25 1153.75 l 22
 -28.5 1153.75 -30 1155.25 -30 1158.75 c 14
  Spiro
    -30 1158.75 [
    -30 1316.25 ]
    -29.4825 1319.1 o
    -27.8496 1320.73 o
    -25 1321.25 [
    345 1321.25 ]
    347.85 1320.73 o
    349.483 1319.1 o
    350 1316.25 [
    350 1158.75 ]
    349.483 1155.9 o
    347.85 1154.27 o
    345 1153.75 [
    -25 1153.75 ]
    -27.8496 1154.27 o
    -29.4825 1155.9 o
    0 0 z
  EndSpiro
EndSplineSet
Refer: 45 104 N 1 0 0 1 0 0 2
EndChar

StartChar: Lslash
Encoding: 321 321 405
Width: 467
VWidth: 1920
Flags: HW
LayerCount: 2
Fore
SplineSet
371.578125 1024.24023438 m 6
 386.578125 998.259765625 l 6
 388.328125 995.228515625 387.779296875 993.1796875 384.748046875 991.4296875 c 6
 -24.748046875 753.9296875 l 6
 -27.779296875 752.1796875 -29.828125 752.728515625 -31.578125 755.759765625 c 6
 -46.578125 781.740234375 l 6
 -48.328125 784.771484375 -47.779296875 786.8203125 -44.748046875 788.5703125 c 6
 364.748046875 1026.0703125 l 6
 367.779296875 1027.8203125 369.828125 1027.27148438 371.578125 1024.24023438 c 6
EndSplineSet
Refer: 23 76 N 1 0 0 1 0 0 2
EndChar

StartChar: lslash
Encoding: 322 322 406
Width: 295
VWidth: 1920
Flags: HW
LayerCount: 2
Fore
SplineSet
351.578125 1024.24023438 m 6
 366.578125 998.259765625 l 6
 368.328125 995.228515625 367.779296875 993.1796875 364.748046875 991.4296875 c 6
 -44.748046875 753.9296875 l 6
 -47.779296875 752.1796875 -49.828125 752.728515625 -51.578125 755.759765625 c 6
 -66.578125 781.740234375 l 6
 -68.328125 784.771484375 -67.779296875 786.8203125 -64.748046875 788.5703125 c 6
 344.748046875 1026.0703125 l 6
 347.779296875 1027.8203125 349.828125 1027.27148438 351.578125 1024.24023438 c 6
EndSplineSet
Refer: 49 108 N 1 0 0 1 0 0 2
EndChar

StartChar: eng
Encoding: 331 331 408
Width: 580
VWidth: 960
Flags: HW
LayerCount: 2
Fore
SplineSet
30 1050 m 2
 260 1050 l 2
 264 1050 265 1049 265 1045 c 2
 265 869 l 257
 270 855 l 257
 270 5 l 2
 270 1 269 0 265 0 c 2
 30 0 l 2
 26 0 25 1 25 5 c 2
 25 1045 l 2
 25 1049 26 1050 30 1050 c 2
558 -179 m 6
 558 -358 438 -370 244 -356 c 0
 240 -356 238 -354 238 -350 c 2
 238 -220 l 2
 238 -217 240 -215 243 -216 c 0
 288 -225 313 -208 313 -144 c 2
 313 831 l 2
 313 881 309 903 295 903 c 0
 277 903 270 866 270 761 c 1
 245 877 l 1
 245 997 317 1067 411 1067 c 0
 515 1067 558 1012 558 857 c 2
 558 -179 l 6
EndSplineSet
EndChar

StartChar: Eng
Encoding: 330 330 409
Width: 590
VWidth: 960
Flags: HW
LayerCount: 2
Fore
SplineSet
385 1400 m 2
 560 1400 l 2
 564 1400 565 1399 565 1395 c 1
 565 -179 l 6
 565 -358 445 -370 251 -356 c 0
 247 -356 245 -354 245 -350 c 2
 245 -220 l 2
 245 -217 247 -215 250 -216 c 0
 295 -225 320 -208 320 -144 c 2
 320 271.25 l 1
 210 715 l 1
 210 5 l 2
 210 1 209 0 205 0 c 2
 30 0 l 2
 26 0 25 1 25 5 c 2
 25 1395 l 2
 25 1399 26 1400 30 1400 c 2
 245 1400 l 2
 249 1400 251 1399 254 1395 c 2
 380 734 l 1
 380 1395 l 2
 380 1399 381 1400 385 1400 c 2
EndSplineSet
EndChar

StartChar: oe
Encoding: 339 339 410
Width: 864
VWidth: 960
Flags: HW
LayerCount: 2
Fore
SplineSet
20 274 m 262
 20 777 l 262
 20 972 102 1067 240 1067 c 260
 418 1067 490 972 490 777 c 262
 490 274 l 262
 490 79 418 -18 240 -18 c 260
 102 -18 20 79 20 274 c 262
268 209 m 262
 268 149 272 122 290 122 c 260
 308 122 313 149 313 209 c 262
 313 841 l 262
 313 901 308 927 290 927 c 260
 272 927 268 901 268 841 c 262
 268 209 l 262
844 414 m 4
 844 185 844 -18 612 -18 c 260
 438 -18 384 69 384 274 c 262
 384 777 l 262
 384 977 434 1067 612 1067 c 260
 784 1067 830 986 843 776 c 4
 848 698 848 602 848 485 c 4
 848 483 848 481 844 481 c 6
 452 481 l 261
 452 565 l 261
 606 565 l 261
 604 906 606 927 582 927 c 260
 564 927 560 901 560 841 c 262
 560 209 l 262
 560 134 565 122 581 122 c 260
 600 122 608 185 609 414 c 4
 609 416 611 418 614 418 c 6
 840 418 l 6
 844 418 844 417 844 414 c 4
EndSplineSet
EndChar

StartChar: OE
Encoding: 338 338 411
Width: 745
VWidth: 1920
Flags: HW
LayerCount: 2
Fore
SplineSet
337 1400 m 262
 580 1400 l 262
 584 1400 585 1399 585 1395 c 262
 585 5 l 262
 585 1 584 0 580 0 c 262
 337 0 l 262
 130 0 25 115 25 408 c 262
 25 991 l 262
 25 1284 110 1400 337 1400 c 262
317 1225 m 262
 285 1225 275 1180 275 996 c 262
 275 404 l 262
 275 220 285 175 317 175 c 262
 340 175 l 261
 340 1225 l 261
 317 1225 l 262
EndSplineSet
Refer: 16 69 N 1 0 0 1 305 0 2
EndChar

StartChar: Tbar
Encoding: 358 358 413
Width: 545
VWidth: 1920
Flags: HW
LayerCount: 2
Fore
SplineSet
47.5 593.75 m 14
 47.5 701.25 l 22
 47.5 704.75 49 706.25 52.5 706.25 c 14
 487.5 706.25 l 22
 491 706.25 492.5 704.75 492.5 701.25 c 14
 492.5 593.75 l 22
 492.5 590.25 491 588.75 487.5 588.75 c 14
 52.5 588.75 l 22
 49 588.75 47.5 590.25 47.5 593.75 c 14
EndSplineSet
Refer: 31 84 N 1 0 0 1 0 0 2
EndChar

StartChar: tbar
Encoding: 359 359 414
Width: 357
VWidth: 1920
Flags: HW
LayerCount: 2
Fore
SplineSet
-19 523.75 m 14
 -19 631.25 l 22
 -19 634.75 -17.5 636.25 -14 636.25 c 14
 326 636.25 l 22
 329.5 636.25 331 634.75 331 631.25 c 14
 331 523.75 l 22
 331 520.25 329.5 518.75 326 518.75 c 14
 -14 518.75 l 22
 -17.5 518.75 -19 520.25 -19 523.75 c 14
EndSplineSet
Refer: 57 116 N 1 0 0 1 0 0 2
EndChar

StartChar: uni0394
Encoding: 916 916 430
Width: 562
VWidth: 960
Flags: HW
LayerCount: 2
Fore
SplineSet
-6 0 m 6
 -8 0 -12 0 -10 5 c 2
 140 1395 l 2
 142 1399 144 1400 146 1400 c 2
 436 1400 l 2
 439 1400 442 1399 443 1395 c 2
 577 5 l 2
 577 4 579 0 574 0 c 6
 -6 0 l 6
198.856088561 125 m 1
 311.79704797 125 l 1
 270 1089 l 1
 198.856088561 125 l 1
EndSplineSet
EndChar

StartChar: uni03A9
Encoding: 937 937 431
Width: 636
VWidth: 1920
Flags: HW
LayerCount: 2
Fore
SplineSet
337 185 m 0
 365 217 366 289 366 379 c 2
 366 1111 l 2
 366 1195 365 1247 318 1247 c 4
 271 1247 270 1195 270 1111 c 2
 270 379 l 2
 270 289 272 221 300 185 c 0
 305 179 308 181 308 175 c 2
 308 5 l 2
 308 1 307 0 303 0 c 2
 28 0 l 2
 24 0 23 1 23 5 c 2
 23 172 l 2
 23 176 24 177 28 177 c 2
 200 177 l 1
 99 215 20 322 20 424 c 2
 20 1141 l 2
 20 1334 102 1417 318 1417 c 4
 534 1417 616 1334 616 1141 c 2
 616 424 l 2
 616 322 534 215 434 177 c 1
 608 177 l 2
 612 177 613 176 613 172 c 2
 613 5 l 2
 613 1 612 0 608 0 c 2
 333 0 l 2
 329 0 328 1 328 5 c 2
 328 175 l 2
 328 181 331 178 337 185 c 0
EndSplineSet
EndChar

StartChar: pi
Encoding: 960 960 432
Width: 760
VWidth: 1920
Flags: HW
LayerCount: 2
Fore
SplineSet
339 1020 m 2
 339 5 l 2
 339 1 338 0 334 0 c 2
 99 0 l 2
 95 0 94 1 94 5 c 2
 94 1020 l 2
 94 1024 95 1025 99 1025 c 2
 334 1025 l 2
 338 1025 339 1024 339 1020 c 2
750 160 m 2
 750 5 l 2
 750 1 749 0 745 0 c 0
 501 -29 412 22 412 176 c 258
 412 975 l 2
 412 979 414 980 418 980 c 2
 650 980 l 2
 654 980 655 979 655 975 c 2
 655 211 l 258
 655 157 696 156 746 165 c 0
 749 166 750 163 750 160 c 2
10 878 m 10
 10 1045 l 18
 10 1049 11 1050 15 1050 c 10
 740 1050 l 18
 744 1050 745 1049 745 1045 c 10
 745 878 l 18
 745 874 744 873 740 873 c 10
 15 873 l 18
 11 873 10 874 10 878 c 10
EndSplineSet
EndChar

StartChar: minute
Encoding: 8242 8242 433
Width: 280
VWidth: 1920
Flags: HW
LayerCount: 2
Fore
SplineSet
108 930 m 2
 32.5 930 l 2
 29 930 27.5 934 28.5 940 c 2
 39.5 1410 l 2
 40.5 1417 42 1420 45.5 1420 c 2
 285.5 1420 l 2
 289 1420 291 1416 289.5 1410 c 2
 115.5 940 l 2
 114 934 111.5 930 108 930 c 2
EndSplineSet
EndChar

StartChar: Euro
Encoding: 8364 8364 435
Width: 560
VWidth: 1920
Flags: HW
LayerCount: 2
Fore
SplineSet
-35.0009765625 554 m 10
 -35.0009765625 656 l 18
 -35.0009765625 660 -34.0009765625 661 -30.0009765625 661 c 10
 389.999023438 661 l 18
 393.999023438 661 394.999023438 660 394.999023438 656 c 10
 394.999023438 554 l 18
 394.999023438 550 393.999023438 549 389.999023438 549 c 10
 -30.0009765625 549 l 18
 -34.0009765625 549 -35.0009765625 550 -35.0009765625 554 c 10
-35.0009765625 729 m 10
 -35.0009765625 831 l 18
 -35.0009765625 835 -34.0009765625 836 -30.0009765625 836 c 10
 389.999023438 836 l 18
 393.999023438 836 394.999023438 835 394.999023438 831 c 10
 394.999023438 729 l 18
 394.999023438 725 393.999023438 724 389.999023438 724 c 10
 -30.0009765625 724 l 18
 -34.0009765625 724 -35.0009765625 725 -35.0009765625 729 c 10
549.999023438 453 m 260
 546.682617188 93.4609375 495.517578125 -18 271.999023438 -18 c 260
 67.9990234375 -18 24.9990234375 109 24.9990234375 349 c 262
 24.9990234375 1042 l 262
 24.9990234375 1272 67.9990234375 1418 281.999023438 1418 c 260
 530.732421875 1418 532.067382812 1275.27734375 534.999023438 1026 c 260
 535.045898438 1022 533.999023438 1022 529.999023438 1022 c 262
 355.999023438 1022 l 262
 351.999023438 1022 350.03125 1022 349.999023438 1026 c 260
 348.999023438 1149 351.999023438 1218 311.999023438 1218 c 260
 276.999023438 1218 274.999023438 1161 274.999023438 1046 c 262
 274.999023438 314 l 262
 274.999023438 214 278.999023438 182 311.999023438 182 c 260
 348.999023438 182 354.999023438 212 354.999023438 453 c 260
 354.999023438 457 355.999023438 458 359.999023438 458 c 262
 544.999023438 458 l 262
 548.999023438 458 550.036132812 457 549.999023438 453 c 260
EndSplineSet
EndChar

StartChar: uni2116
Encoding: 8470 8470 436
Width: 974
VWidth: 1920
Flags: HW
LayerCount: 2
Fore
SplineSet
615 5 m 10
 615 122 l 18
 615 126 617 127 621 127 c 10
 948 127 l 18
 952 127 954 126 954 122 c 10
 954 5 l 18
 954 1 952 0 948 0 c 10
 621 0 l 18
 617 0 615 1 615 5 c 10
EndSplineSet
Refer: 132 8304 N 1 0 0 1 590 -295 2
Refer: 25 78 N 1 0 0 1 0 0 2
EndChar

StartChar: trademark
Encoding: 8482 8482 437
Width: 834
VWidth: 1920
Flags: HW
LayerCount: 2
Fore
SplineSet
13 1400 m 6
 334 1400 l 6
 336 1400 337 1399 337 1397 c 6
 337 1298 l 6
 337 1296 336 1295 334 1295 c 6
 247 1295 l 261
 247 563 l 6
 247 561 246 560 244 560 c 6
 103 560 l 6
 101 560 100 561 100 563 c 6
 100 1295 l 261
 13 1295 l 6
 11 1295 10 1296 10 1298 c 6
 10 1397 l 6
 10 1399 11 1400 13 1400 c 6
473 1229 m 257
 473 563 l 2
 473 561 472 560 470 560 c 2
 371 560 l 2
 369 560 368 561 368 563 c 2
 368 1397 l 2
 368 1399 369 1400 371 1400 c 2
 551 1400 l 2
 553 1400 554 1399 555 1397 c 2
 596 946 l 257
 640 1397 l 2
 641 1399 642 1400 644 1400 c 2
 821 1400 l 2
 823 1400 824 1399 824 1397 c 2
 824 563 l 2
 824 561 823 560 821 560 c 2
 686 560 l 2
 684 560 683 561 683 563 c 2
 683 1229 l 257
 619 563 l 2
 618 561 617 560 615 560 c 2
 537 560 l 2
 535 560 534 561 533 563 c 2
 473 1229 l 257
EndSplineSet
EndChar

StartChar: partialdiff
Encoding: 8706 8706 438
Width: 577
VWidth: 1920
Flags: HW
LayerCount: 2
Fore
SplineSet
285 732 m 256
 270 732 266 716 266 674 c 258
 266 214 l 258
 266 174 270 158 290 158 c 256
 304 158 310 176 310 226 c 258
 310 789 l 258
 310 1172 267 1305 126 1365 c 0
 121 1367 120 1368 122 1372 c 2
 198 1518 l 2
 200 1522 199 1522 206 1520 c 0
 443 1439 552 1210 552 752 c 258
 552 268 l 262
 552 103 514 -18 286 -18 c 256
 90 -18 20 44 20 228 c 258
 20 624 l 258
 20 806 77 882 205 882 c 256
 303 882 340 818 340 721 c 257
 310 671 l 257
 310 681 l 258
 310 717 300 732 285 732 c 256
EndSplineSet
EndChar

StartChar: summation
Encoding: 8721 8721 439
Width: 564
VWidth: 1920
Flags: HW
LayerCount: 2
Fore
SplineSet
515 512 m 10
 351 -185 l 1
 559 -185 l 18
 563 -185 564 -186 564 -190 c 10
 564 -355 l 18
 564 -359 563 -360 559 -360 c 10
 39 -360 l 18
 35 -360 36.9395430028 -359.46105708 38 -355 c 10
 246 520 l 1
 38 1395 l 18
 36.9395430028 1399.46105708 35 1400 39 1400 c 10
 559 1400 l 18
 563 1400 564 1399 564 1395 c 10
 564 1230 l 18
 564 1226 563 1225 559 1225 c 10
 351 1225 l 1
 515 528 l 18
 516.547540984 521.42295082 516.547540984 518.57704918 515 512 c 10
EndSplineSet
EndChar

StartChar: minus
Encoding: 8722 8722 440
Width: 584
Flags: HW
LayerCount: 2
Fore
SplineSet
65 419 m 10
 65 586 l 18
 65 590 65 591 69 591 c 10
 515 591 l 18
 519 591 519 590 519 586 c 10
 519 419 l 18
 519 415 519 414 515 414 c 10
 69 414 l 18
 65 414 65 415 65 419 c 10
EndSplineSet
EndChar

StartChar: integral
Encoding: 8747 8747 441
Width: 335
VWidth: 960
Flags: HW
LayerCount: 2
Fore
SplineSet
282 -179 m 6
 282 -358 162 -370 -32 -356 c 0
 -36 -356 -38 -354 -38 -350 c 2
 -38 -220 l 2
 -38 -217 -36 -215 -33 -216 c 0
 12 -225 40 -208 40 -144 c 2
 40 1313 l 2
 40 1432 130 1469 334 1440 c 0
 338.950195312 1439.29589844 340 1438 340 1434 c 2
 340 1304 l 2
 340 1301 338.188476562 1298.69726562 332 1300 c 0
 294 1308 282 1296 282 1253 c 2
 282 -179 l 6
EndSplineSet
EndChar

StartChar: radical
Encoding: 8730 8730 443
Width: 611
VWidth: 1920
Flags: HMW
LayerCount: 2
Fore
SplineSet
190.806640625 1049 m 2
 194.806640625 1049 196.806640625 1047 197.806640625 1044 c 2
 315.806640625 413 l 1
 397.806640625 1595 l 2
 397.806640625 1599 398.806640625 1600 402.806640625 1600 c 2
 604.806640625 1600 l 2
 608.806640625 1600 611.806640625 1598 610.806640625 1595 c 2
 326.806640625 -147 l 2
 325.806640625 -151 325.806640625 -151 323.806640625 -147 c 2
 80.806640625 874 l 1
 10.806640625 874 l 2
 6.806640625 874 4.806640625 875 4.806640625 879 c 2
 4.806640625 1044 l 2
 4.806640625 1048 6.806640625 1049 10.806640625 1049 c 2
 190.806640625 1049 l 2
EndSplineSet
EndChar

StartChar: infinity
Encoding: 8734 8734 444
Width: 716
Flags: HMW
LayerCount: 2
Fore
SplineSet
199 492 m 4
 94 492 25 577 25 674 c 0
 25 771 94 854 199 854 c 4
 306 854 337 804 359 754 c 1
 381 804 406 854 518 854 c 4
 623 854 691 771 691 674 c 0
 691 577 623 492 518 492 c 4
 406 492 371 537 359 592 c 1
 336 537 306 492 199 492 c 4
225 620 m 0
 259 620 289 637 316 674 c 1
 291 710 259 727 225 727 c 0
 185 727 164 709 164 674 c 0
 164 640 185 620 225 620 c 0
492 620 m 4
 532 620 552 640 552 674 c 4
 552 709 532 727 492 727 c 4
 463 727 426 710 401 674 c 1
 416 638 463 620 492 620 c 4
EndSplineSet
EndChar

StartChar: product
Encoding: 8719 8719 445
Width: 600
VWidth: 1920
Flags: HW
LayerCount: 2
Fore
SplineSet
560 1400 m 2
 564 1400 565 1399 565 1395 c 2
 565 5 l 2
 565 1 564 0 560 0 c 2
 325 0 l 2
 321 0 320 1 320 5 c 2
 320 1225 l 257
 280 1225 l 257
 280 5 l 2
 280 1 279 0 275 0 c 2
 40 0 l 2
 36 0 35 1 35 5 c 2
 35 1395 l 18
 35 1399 36 1400 40 1400 c 10
 560 1400 l 2
EndSplineSet
EndChar

StartChar: uni2219
Encoding: 8729 8729 446
Width: 274
Flags: HW
LayerCount: 2
Fore
SplineSet
25 675 m 4
 25 741 71 788 137 788 c 4
 203 788 249 741 249 675 c 4
 249 609 207 562 141 562 c 4
 75 562 25 609 25 675 c 4
EndSplineSet
EndChar

StartChar: approxequal
Encoding: 8776 8776 447
Width: 1180
VWidth: 1920
Flags: HW
LayerCount: 2
Fore
SplineSet
526 562 m 260
 485 562 472 535 470 519 c 4
 470 516 468 514 465 514 c 6
 350 514 l 6
 346 514 345 516 345 519 c 4
 347 613 411 695 511 695 c 260
 575 695 613 634 654 634 c 260
 695 634 708 661 710 677 c 4
 710 680 712 682 715 682 c 6
 830 682 l 6
 834 682 835 681 835 677 c 4
 833 583 779 501 669 501 c 260
 605 501 577 562 526 562 c 260
526 367 m 260
 485 367 472 340 470 324 c 4
 470 321 468 319 465 319 c 6
 350 319 l 6
 346 319 345 321 345 324 c 4
 347 418 411 500 511 500 c 260
 575 500 613 439 654 439 c 260
 695 439 708 466 710 482 c 4
 710 485 712 487 715 487 c 6
 830 487 l 6
 834 487 835 486 835 482 c 4
 833 388 804 306 694 306 c 260
 630 306 577 367 526 367 c 260
EndSplineSet
EndChar

StartChar: notequal
Encoding: 8800 8800 448
Width: 590
VWidth: 1920
Flags: HW
LayerCount: 2
Fore
SplineSet
509 780 m 2
 530 759 l 2
 532 757 532 754 530 752 c 2
 98 210 l 2
 96 208 93 208 91 210 c 2
 70 231 l 2
 68 233 68 236 70 238 c 2
 502 780 l 2
 504 782 507 782 509 780 c 2
EndSplineSet
Refer: 83 61 N 1 0 0 1 0 0 2
EndChar

StartChar: lessequal
Encoding: 8804 8804 449
Width: 500
VWidth: 1920
Flags: HW
LayerCount: 2
Fore
SplineSet
50 325 m 10
 50 468 l 18
 50 472 51 473 55 473 c 10
 465 473 l 18
 469 473 470 472 470 468 c 10
 470 325 l 18
 470 321 469 320 465 320 c 10
 55 320 l 18
 51 320 50 321 50 325 c 10
EndSplineSet
Refer: 84 60 N 1 0 0 1 40 230 2
EndChar

StartChar: greaterequal
Encoding: 8805 8805 450
Width: 500
VWidth: 1920
Flags: HW
LayerCount: 2
Fore
SplineSet
40 325 m 14
 40 468 l 22
 40 472 41 473 45 473 c 14
 455 473 l 22
 459 473 460 472 460 468 c 14
 460 325 l 22
 460 321 459 320 455 320 c 14
 45 320 l 22
 41 320 40 321 40 325 c 14
EndSplineSet
Refer: 85 62 S 1 0 0 1 -40 230 2
EndChar

StartChar: lozenge
Encoding: 9674 9674 451
Width: 581
Flags: HW
LayerCount: 2
Fore
SplineSet
293 40 m 6
 18 702 l 6
 16 710 16 714 18 722 c 6
 293 1382 l 6
 296 1391 296 1392 299 1382 c 6
 562 722 l 6
 564 714 564 710 562 702 c 6
 299 40 l 6
 296 30 296 31 293 40 c 6
293 454 m 5
 359 712 l 5
 293 970 l 5
 221 712 l 5
 293 454 l 5
EndSplineSet
EndChar

StartChar: uniF8EA
Encoding: 63722 63722 452
Width: 630
VWidth: 1920
Flags: HW
LayerCount: 2
Fore
SplineSet
39 1400 m 6
 267 1400 l 6
 268 1400 269 1399 269 1398 c 6
 269 1339 l 6
 269 1338 268 1337 267 1337 c 6
 197 1337 l 261
 197 1150 l 6
 197 1149 196 1148 195 1148 c 6
 111 1148 l 6
 110 1148 109 1149 109 1150 c 6
 109 1337 l 261
 39 1337 l 6
 38 1337 37 1338 37 1339 c 6
 37 1398 l 6
 37 1399 38 1400 39 1400 c 6
347 1298 m 261
 347 1150 l 6
 347 1149 346 1148 345 1148 c 6
 285 1148 l 6
 284 1148 283 1149 283 1150 c 6
 283 1398 l 6
 283 1399 284 1400 285 1400 c 6
 393 1400 l 6
 394 1400 395 1399 395 1398 c 6
 439 1272 l 261
 487 1398 l 6
 487 1399 488 1400 489 1400 c 6
 591 1400 l 6
 592 1400 593 1399 593 1398 c 6
 593 1150 l 6
 593 1149 592 1148 591 1148 c 6
 511 1148 l 6
 510 1148 509 1149 509 1150 c 6
 509 1298 l 261
 455 1150 l 6
 455 1149 454 1148 453 1148 c 6
 406 1148 l 6
 405 1148 403 1149 403 1150 c 6
 347 1298 l 261
EndSplineSet
EndChar

StartChar: uniF8E8
Encoding: 63720 63720 453
Width: 492
Flags: HW
LayerCount: 2
Fore
SplineSet
222 1275 m 261
 222 1219 l 261
 240 1219 l 262
 263 1219 268 1230 268 1246 c 262
 268 1247 l 262
 268 1261 263 1275 240 1275 c 262
 222 1275 l 261
258 1337 m 262
 331 1337 358 1304 358 1262 c 262
 358 1258 l 262
 358 1215 317 1189 258 1189 c 261
 258 1201 l 261
 322 1201 360 1195 360 1152 c 262
 360 1145 l 262
 360 1125 366 1109 374 1097 c 4
 376 1095 375 1094 375 1093 c 6
 375 1087 l 6
 375 1086 374 1085 373 1085 c 6
 283 1085 l 6
 282 1085 281 1085 280 1087 c 4
 270 1105 268 1129 268 1145 c 262
 268 1152 l 262
 268 1166 263 1173 244 1173 c 262
 222 1173 l 261
 222 1087 l 6
 222 1086 221 1085 220 1085 c 6
 136 1085 l 6
 135 1085 134 1086 134 1087 c 6
 134 1335 l 6
 134 1336 135 1337 136 1337 c 6
 258 1337 l 262
455 1207 m 4
 455 1092 361 999 246 999 c 4
 131 999 37 1092 37 1207 c 4
 37 1322 131 1417 246 1417 c 4
 361 1417 455 1322 455 1207 c 4
430 1207 m 4
 430 1309 348 1391 246 1391 c 4
 144 1391 62 1309 62 1207 c 4
 62 1105 144 1025 246 1025 c 4
 348 1025 430 1105 430 1207 c 4
EndSplineSet
EndChar

StartChar: uniF8E9
Encoding: 63721 63721 454
Width: 492
Flags: HW
LayerCount: 2
Fore
SplineSet
370 1190 m 260
 366 1130 332 1076 248 1076 c 260
 160 1076 124 1125 124 1193 c 262
 124 1223 l 262
 124 1291 160 1341 248 1341 c 260
 332 1341 363 1288 365 1239 c 260
 365 1237 364 1237 363 1237 c 262
 300 1237 l 262
 299 1237 298 1237 298 1239 c 260
 298 1261 284 1279 258 1279 c 260
 232 1279 214 1263 214 1225 c 262
 214 1192 l 262
 214 1152 230 1137 260 1137 c 260
 290 1137 304 1157 304 1190 c 260
 304 1192 305 1192 306 1192 c 262
 368 1192 l 262
 369 1192 370 1192 370 1190 c 260
455 1207 m 4
 455 1092 361 999 246 999 c 4
 131 999 37 1092 37 1207 c 4
 37 1322 131 1417 246 1417 c 4
 361 1417 455 1322 455 1207 c 4
430 1207 m 4
 430 1309 348 1391 246 1391 c 4
 144 1391 62 1309 62 1207 c 4
 62 1105 144 1025 246 1025 c 4
 348 1025 430 1105 430 1207 c 4
EndSplineSet
EndChar

StartChar: uni1E9E
Encoding: 7838 7838 457
Width: 611
VWidth: 1920
Flags: HW
LayerCount: 2
Fore
SplineSet
35 1063 m 2
 35 1295 103 1417 288 1417 c 0
 474 1417 553 1254 583 1085 c 0
 584.992836384 1073.77368837 585.825272905 1057.10645964 585 1048 c 2
 526 738 l 1
 556 688 601 614 601 409 c 0
 601 102 540 -18 420 -18 c 0
 371 -18 350 -12 309 8 c 0
 297 14 296 14 296 18 c 2
 296 178 l 2
 296 183 298 184 307 179 c 0
 313 175 317 174 323 174 c 0
 336 174 356 221 356 435 c 0
 356 593 343 641 300 676 c 0
 292 683 291 688 292 698 c 2
 336 1053 l 1
 321 1209 315 1246 297 1246 c 0
 283 1246 278 1219 278 1167 c 2
 278 5 l 2
 278 1 276 0 272 0 c 2
 40 0 l 2
 36 0 35 1 35 5 c 2
 35 1063 l 2
EndSplineSet
EndChar
